<!-- Created by Apktool M – https://maximoff.su/apktool -->
<svg
	xmlns="http://www.w3.org/2000/svg"
	xmlns:xlink="http://www.w3.org/1999/xlink"
	version="1.1"
	width="512"
	height="512"
	viewBox="0 0 512 512">
	<path
		d="M0,0h512zM0,1h512zM0,2h512zM0,3h512zM0,4h512zM0,5h512zM0,6h512zM0,7h512zM0,8h512zM0,9h512zM0,10h512zM0,11h512zM0,12h512zM0,13h512zM0,14h512zM0,15h512zM0,16h512zM0,17h512zM0,18h512zM0,19h512zM0,20h512zM0,21h512zM0,22h512zM0,23h512zM0,24h512zM0,25h512zM0,26h512zM0,27h512zM0,28h512zM0,29h512zM0,30h512zM0,31h512zM0,32h512zM0,33h512zM0,34h512zM0,35h512zM0,36h231zM280,36h232zM0,37h225zM286,37h226zM0,38h217zM294,38h218zM0,39h214zM298,39h214zM0,40h208zM304,40h208zM0,41h204zM307,41h205zM0,42h199zM313,42h199zM0,43h196zM315,43h197zM0,44h192zM320,44h192zM0,45h190zM322,45h190zM0,46h186zM326,46h186zM0,47h184zM328,47h184zM0,48h180zM332,48h180zM0,49h178zM334,49h178zM0,50h174zM337,50h175zM0,51h173zM339,51h173zM0,52h170zM342,52h170zM0,53h168zM344,53h168zM0,54h165zM346,54h166zM0,55h164zM348,55h164zM0,56h161zM351,56h161zM0,57h160zM352,57h160zM0,58h157zM355,58h157zM0,59h156zM356,59h156zM0,60h153zM359,60h153zM0,61h152zM360,61h152zM0,62h149zM362,62h150zM0,63h148zM364,63h148zM0,64h146zM366,64h146zM0,65h144zM367,65h145zM0,66h142zM370,66h142zM0,67h141zM370,67h142zM0,68h139zM373,68h139zM0,69h138zM374,69h138zM0,70h136zM376,70h136zM0,71h135zM377,71h135zM0,72h133zM379,72h133zM0,73h132zM380,73h132zM0,74h130zM382,74h130zM0,75h129zM383,75h129zM0,76h127zM384,76h128zM0,77h126zM386,77h126zM0,78h124zM387,78h125zM0,79h124zM388,79h124zM0,80h122zM390,80h122zM0,81h121zM391,81h121zM0,82h119zM392,82h120zM0,83h118zM394,83h118zM0,84h117zM395,84h117zM0,85h116zM396,85h116zM0,86h114zM398,86h114zM0,87h114zM398,87h114zM0,88h112zM400,88h112zM0,89h111zM400,89h112zM0,90h110zM402,90h110zM0,91h109zM403,91h109zM0,92h107zM404,92h108zM0,93h106zM405,93h107zM0,94h105zM406,94h106zM0,95h104zM407,95h105zM0,96h103zM408,96h104zM0,97h102zM409,97h103zM0,98h101zM410,98h102zM0,99h100zM411,99h101zM0,100h99zM412,100h100zM0,101h98zM413,101h99zM0,102h97zM414,102h98zM0,103h96zM415,103h97zM0,104h95zM416,104h96zM0,105h94zM417,105h95zM0,106h93zM418,106h94zM0,107h92zM419,107h93zM0,108h92zM420,108h92zM0,109h91zM421,109h91zM0,110h90zM422,110h90zM0,111h89zM422,111h90zM0,112h88zM424,112h88zM0,113h88zM424,113h88zM0,114h86zM425,114h87zM0,115h86zM426,115h86zM0,116h84zM427,116h85zM0,117h84zM428,117h84zM0,118h83zM428,118h84zM0,119h82zM429,119h83zM0,120h82zM430,120h82zM0,121h81zM431,121h81zM0,122h80zM432,122h80zM0,123h80zM432,123h80zM0,124h78zM433,124h79zM0,125h78zM434,125h78zM0,126h77zM435,126h77zM0,127h76zM435,127h77zM0,128h76zM436,128h76zM0,129h75zM436,129h76zM0,130h74zM438,130h74zM0,131h74zM438,131h74zM0,132h73zM439,132h73zM0,133h72zM439,133h73zM0,134h72zM440,134h72zM0,135h71zM441,135h71zM0,136h70zM442,136h70zM0,137h70zM442,137h70zM0,138h69zM443,138h69zM0,139h68zM443,139h69zM0,140h68zM444,140h68zM0,141h67zM444,141h68zM0,142h66zM445,142h67zM0,143h66zM446,143h66zM0,144h65zM446,144h66zM0,145h65zM447,145h65zM0,146h64zM448,146h64zM0,147h64zM448,147h64zM0,148h63zM449,148h63zM0,149h62zM449,149h63zM0,150h62zM450,150h62zM0,151h62zM450,151h62zM0,152h61zM451,152h61zM0,153h60zM451,153h61zM0,154h60zM452,154h60zM0,155h60zM452,155h60zM0,156h59zM453,156h59zM0,157h58zM453,157h59zM0,158h58zM454,158h58zM0,159h58zM454,159h58zM0,160h57zM455,160h57zM0,161h56zM455,161h57zM0,162h56zM456,162h56zM0,163h56zM456,163h56zM0,164h55zM457,164h55zM0,165h54zM457,165h55zM0,166h54zM458,166h54zM0,167h54zM458,167h54zM0,168h53zM458,168h54zM0,169h53zM459,169h53zM0,170h52zM460,170h52zM0,171h52zM460,171h52zM0,172h52zM460,172h52zM0,173h51zM460,173h52zM0,174h51zM461,174h51zM0,175h50zM461,175h51zM0,176h50zM462,176h50zM0,177h50zM462,177h50zM0,178h49zM462,178h50zM0,179h49zM463,179h49zM0,180h48zM463,180h49zM0,181h48zM464,181h48zM0,182h48zM464,182h48zM0,183h48zM464,183h48zM0,184h47zM464,184h48zM0,185h47zM465,185h47zM0,186h46zM465,186h47zM0,187h46zM466,187h46zM0,188h46zM466,188h46zM0,189h46zM466,189h46zM0,190h45zM466,190h46zM0,191h45zM467,191h45zM0,192h44zM467,192h45zM0,193h44zM468,193h44zM0,194h44zM468,194h44zM0,195h44zM468,195h44zM0,196h43zM468,196h44zM0,197h43zM468,197h44zM0,198h43zM469,198h43zM0,199h42zM469,199h43zM0,200h42zM470,200h42zM0,201h42zM470,201h42zM0,202h42zM470,202h42zM0,203h42zM470,203h42zM0,204h41zM470,204h42zM0,205h41zM470,205h42zM0,206h41zM471,206h41zM0,207h40zM471,207h41zM0,208h40zM471,208h41zM0,209h40zM472,209h40zM0,210h40zM472,210h40zM0,211h40zM472,211h40zM0,212h40zM472,212h40zM0,213h40zM472,213h40zM0,214h39zM472,214h40zM0,215h39zM473,215h39zM0,216h39zM473,216h39zM0,217h38zM473,217h39zM0,218h38zM473,218h39zM0,219h38zM474,219h38zM0,220h38zM474,220h38zM0,221h38zM474,221h38zM0,222h38zM474,222h38zM0,223h38zM474,223h38zM0,224h38zM474,224h38zM0,225h38zM474,225h38zM0,226h37zM474,226h38zM0,227h37zM474,227h38zM0,228h37zM475,228h37zM0,229h37zM475,229h37zM0,230h37zM475,230h37zM0,231h36zM475,231h37zM0,232h36zM475,232h37zM0,233h36zM475,233h37zM0,234h36zM475,234h37zM0,235h36zM476,235h36zM0,236h36zM476,236h36zM0,237h36zM476,237h36zM0,238h36zM476,238h36zM0,239h36zM476,239h36zM0,240h36zM476,240h36zM0,241h36zM476,241h36zM0,242h36zM476,242h36zM0,243h36zM476,243h36zM0,244h36zM476,244h36zM0,245h36zM476,245h36zM0,246h36zM476,246h36zM0,247h36zM476,247h36zM0,248h36zM476,248h36zM0,249h36zM476,249h36zM0,250h36zM476,250h36zM0,251h36zM476,251h36zM0,252h36zM476,252h36zM0,253h36zM476,253h36zM0,254h36zM476,254h36zM0,255h36zM476,255h36zM0,256h36zM476,256h36zM0,257h36zM476,257h36zM0,258h36zM476,258h36zM0,259h36zM476,259h36zM0,260h36zM476,260h36zM0,261h36zM476,261h36zM0,262h36zM476,262h36zM0,263h36zM476,263h36zM0,264h36zM476,264h36zM0,265h36zM476,265h36zM0,266h36zM476,266h36zM0,267h36zM476,267h36zM0,268h36zM476,268h36zM0,269h36zM476,269h36zM0,270h36zM476,270h36zM0,271h36zM476,271h36zM0,272h36zM476,272h36zM0,273h36zM476,273h36zM0,274h36zM476,274h36zM0,275h36zM476,275h36zM0,276h36zM476,276h36zM0,277h36zM475,277h37zM0,278h36zM475,278h37zM0,279h36zM475,279h37zM0,280h37zM475,280h37zM0,281h37zM475,281h37zM0,282h37zM475,282h37zM0,283h37zM474,283h38zM0,284h37zM474,284h38zM0,285h37zM474,285h38zM0,286h38zM474,286h38zM0,287h38zM474,287h38zM0,288h38zM474,288h38zM0,289h38zM474,289h38zM0,290h38zM474,290h38zM0,291h38zM474,291h38zM0,292h38zM473,292h39zM0,293h38zM473,293h39zM0,294h39zM473,294h39zM0,295h39zM473,295h39zM0,296h39zM472,296h40zM0,297h39zM472,297h40zM0,298h40zM472,298h40zM0,299h40zM472,299h40zM0,300h40zM472,300h40zM0,301h40zM472,301h40zM0,302h40zM472,302h40zM0,303h40zM471,303h41zM0,304h41zM471,304h41zM0,305h41zM471,305h41zM0,306h41zM470,306h42zM0,307h41zM470,307h42zM0,308h42zM470,308h42zM0,309h42zM470,309h42zM0,310h42zM470,310h42zM0,311h42zM470,311h42zM0,312h42zM469,312h43zM0,313h43zM469,313h43zM0,314h43zM468,314h44zM0,315h44zM468,315h44zM0,316h44zM468,316h44zM0,317h44zM468,317h44zM0,318h44zM467,318h45zM0,319h44zM467,319h45zM0,320h45zM467,320h45zM0,321h45zM466,321h46zM0,322h46zM466,322h46zM0,323h46zM466,323h46zM0,324h46zM466,324h46zM0,325h46zM465,325h47zM0,326h47zM465,326h47zM0,327h47zM464,327h48zM0,328h48zM464,328h48zM0,329h48zM464,329h48zM0,330h48zM464,330h48zM0,331h48zM463,331h49zM0,332h49zM462,332h50zM0,333h49zM462,333h50zM0,334h50zM462,334h50zM0,335h50zM462,335h50zM0,336h50zM461,336h51zM0,337h51zM461,337h51zM0,338h51zM460,338h52zM0,339h52zM460,339h52zM0,340h52zM460,340h52zM0,341h52zM459,341h53zM0,342h53zM459,342h53zM0,343h53zM458,343h54zM0,344h54zM458,344h54zM0,345h54zM458,345h54zM0,346h55zM457,346h55zM0,347h55zM456,347h56zM0,348h56zM456,348h56zM0,349h56zM456,349h56zM0,350h56zM455,350h57zM0,351h57zM455,351h57zM0,352h58zM454,352h58zM0,353h58zM454,353h58zM0,354h58zM453,354h59zM0,355h59zM453,355h59zM0,356h60zM452,356h60zM0,357h60zM452,357h60zM0,358h60zM451,358h61zM0,359h61zM451,359h61zM0,360h62zM450,360h62zM0,361h62zM450,361h62zM0,362h63zM449,362h63zM0,363h63zM448,363h64zM0,364h64zM448,364h64zM0,365h64zM448,365h64zM0,366h65zM446,366h66zM0,367h66zM446,367h66zM0,368h66zM446,368h66zM0,369h66zM445,369h67zM0,370h68zM444,370h68zM0,371h68zM444,371h68zM0,372h68zM443,372h69zM0,373h69zM442,373h70zM0,374h70zM442,374h70zM0,375h70zM441,375h71zM0,376h71zM440,376h72zM0,377h72zM440,377h72zM0,378h72zM439,378h73zM0,379h73zM439,379h73zM0,380h74zM438,380h74zM0,381h74zM437,381h75zM0,382h75zM436,382h76zM0,383h76zM436,383h76zM0,384h77zM435,384h77zM0,385h77zM434,385h78zM0,386h78zM434,386h78zM0,387h79zM433,387h79zM0,388h80zM432,388h80zM0,389h80zM432,389h80zM0,390h81zM430,390h82zM0,391h82zM430,391h82zM0,392h83zM429,392h83zM0,393h83zM428,393h84zM0,394h84zM427,394h85zM0,395h85zM427,395h85zM0,396h86zM426,396h86zM0,397h86zM425,397h87zM0,398h88zM424,398h88zM0,399h88zM423,399h89zM0,400h90zM422,400h90zM0,401h90zM422,401h90zM0,402h91zM420,402h92zM0,403h92zM420,403h92zM0,404h93zM419,404h93zM0,405h94zM418,405h94zM0,406h95zM417,406h95zM0,407h96zM416,407h96zM0,408h97zM415,408h97zM0,409h98zM414,409h98zM0,410h99zM413,410h99zM0,411h100zM412,411h100zM0,412h101zM411,412h101zM0,413h102zM410,413h102zM0,414h103zM409,414h103zM0,415h104zM408,415h104zM0,416h105zM407,416h105zM0,417h106zM406,417h106zM0,418h107zM405,418h107zM0,419h108zM404,419h108zM0,420h109zM402,420h110zM0,421h110zM402,421h110zM0,422h112zM400,422h112zM0,423h112zM400,423h112zM0,424h114zM398,424h114zM0,425h114zM397,425h115zM0,426h116zM396,426h116zM0,427h117zM394,427h118zM0,428h119zM393,428h119zM0,429h120zM392,429h120zM0,430h121zM390,430h122zM0,431h122zM390,431h122zM0,432h124zM388,432h124zM0,433h125zM387,433h125zM0,434h126zM385,434h127zM0,435h128zM384,435h128zM0,436h130zM382,436h130zM0,437h130zM381,437h131zM0,438h132zM380,438h132zM0,439h133zM378,439h134zM0,440h135zM376,440h136zM0,441h136zM375,441h137zM0,442h138zM373,442h139zM0,443h140zM372,443h140zM0,444h142zM370,444h142zM0,445h143zM369,445h143zM0,446h145zM366,446h146zM0,447h146zM366,447h146zM0,448h148zM363,448h149zM0,449h150zM362,449h150zM0,450h152zM359,450h153zM0,451h154zM358,451h154zM0,452h156zM356,452h156zM0,453h158zM354,453h158zM0,454h160zM352,454h160zM0,455h162zM350,455h162zM0,456h164zM347,456h165zM0,457h166zM346,457h166zM0,458h169zM342,458h170zM0,459h171zM341,459h171zM0,460h174zM338,460h174zM0,461h176zM336,461h176zM0,462h179zM333,462h179zM0,463h181zM331,463h181zM0,464h185zM327,464h185zM0,465h187zM325,465h187zM0,466h191zM321,466h191zM0,467h193zM318,467h194zM0,468h198zM314,468h198zM0,469h200zM312,469h200zM0,470h206zM306,470h206zM0,471h209zM303,471h209zM0,472h216zM296,472h216zM0,473h219zM292,473h220zM0,474h228zM283,474h229zM0,475h235zM276,475h236zM0,476h512zM0,477h512zM0,478h512zM0,479h512zM0,480h512zM0,481h512zM0,482h512zM0,483h512zM0,484h512zM0,485h512zM0,486h512zM0,487h512zM0,488h512zM0,489h512zM0,490h512zM0,491h512zM0,492h512zM0,493h512zM0,494h512zM0,495h512zM0,496h512zM0,497h512zM0,498h512zM0,499h512zM0,500h512zM0,501h512zM0,502h512zM0,503h512zM0,504h512zM0,505h512zM0,506h512zM0,507h512zM0,508h512zM0,509h512zM0,510h512zM0,511h512z"
		stroke="none"
		stroke-width="1.0" />
	<path
		d="M231,36h1zM312,42h1zM174,50h1zM369,66h1zM372,68h1zM107,92h1zM92,107h1zM84,116h1zM434,126h1zM459,170h1zM472,215h1zM36,231h1zM41,307h1zM469,311h1zM42,312h1zM447,365h1zM66,369h1zM68,372h1zM438,379h1zM86,397h1zM399,423h1zM114,425h1zM379,438h1zM133,439h1zM135,440h1zM365,447h1zM148,448h1zM311,469h1z"
		stroke="rgb(0,0,0)"
		stroke-opacity="0.003921569"
		stroke-width="1.0" />
	<path
		d="M232,36h1zM363,63h1zM127,76h1zM421,110h1zM76,127h1zM471,209h1zM466,320h1zM64,365h1zM166,457h1z"
		stroke="rgb(0,0,0)"
		stroke-opacity="0.06666667"
		stroke-width="1.0" />
	<path
		d="M233,36h1zM157,58h1zM394,84h1zM452,156h1zM58,157h1zM84,394h1zM425,396h1zM387,432h1zM156,452h1z"
		stroke="rgb(0,0,0)"
		stroke-opacity="0.13333334"
		stroke-width="1.0" />
	<path
		d="M234,36h1zM388,431h1zM158,453h1zM273,475h1z"
		stroke="rgb(0,0,0)"
		stroke-opacity="0.2"
		stroke-width="1.0" />
	<path
		d="M235,36h1zM187,46h1zM171,52h1zM455,348h1zM56,349h1zM334,461h1zM300,471h1zM272,475h1z"
		stroke="rgb(0,0,0)"
		stroke-opacity="0.24313726"
		stroke-width="1.0" />
	<path
		d="M236,36h2zM273,36h3zM226,37h1zM220,38h1zM291,38h1zM201,42h1zM310,42h1zM166,54h1zM125,78h1zM111,89h1zM52,171h1zM463,182h1zM46,187h1zM465,188h1zM42,201h1zM469,202h1zM40,209h1zM471,211h1zM38,220h1zM473,222h1zM473,223h1zM36,235h1zM36,236h1zM36,237h1zM475,239h1zM475,240h1zM475,241h1zM475,242h1zM475,243h1zM475,268h1zM475,269h1zM475,270h1zM475,271h1zM475,272h1zM36,274h1zM36,275h1zM36,276h1zM473,288h1zM473,289h1zM38,290h1zM38,291h1zM471,300h1zM469,309h1zM42,310h1zM467,316h1zM182,463h1zM188,465h1zM316,467h1zM202,469h1zM309,469h1zM211,471h1zM222,473h1zM288,473h2zM239,475h4zM268,475h4z"
		stroke="rgb(0,0,0)"
		stroke-opacity="0.24705882"
		stroke-width="1.0" />
	<path
		d="M238,36h1zM301,40h1zM335,50h1zM78,125h1zM435,128h1zM467,195h1zM50,335h1z"
		stroke="rgb(0,0,0)"
		stroke-opacity="0.2509804"
		stroke-width="1.0" />
	<path
		d="M239,36h1zM323,46h1zM383,76h1z"
		stroke="rgb(0,0,0)"
		stroke-opacity="0.34901962"
		stroke-width="1.0" />
	<path
		d="M240,36h1z"
		stroke="rgb(0,0,0)"
		stroke-opacity="0.50980395"
		stroke-width="1.0" />
	<path
		d="M241,36h1zM305,41h1zM37,228h1zM43,313h1zM69,372h1zM395,425h1zM126,433h1zM263,475h1z"
		stroke="rgb(0,0,0)"
		stroke-opacity="0.68235296"
		stroke-width="1.0" />
	<path
		d="M242,36h1zM53,170h1zM428,391h1zM353,452h1zM187,464h1zM260,475h1z"
		stroke="rgb(0,0,0)"
		stroke-opacity="0.8509804"
		stroke-width="1.0" />
	<path
		d="M243,36h1zM380,75h1zM416,106h1zM422,113h1zM46,189h1zM472,221h1zM474,238h1zM464,323h1zM75,380h1zM420,400h1zM106,416h1zM360,448h1z"
		stroke="rgb(0,0,0)"
		stroke-opacity="0.98039216"
		stroke-width="1.0" />
	<path
		d="M244,36h24zM236,37h40zM224,38h64zM220,39h72zM213,40h86zM210,41h92zM204,42h104zM201,43h109zM196,44h120zM194,45h124zM190,46h132zM188,47h136zM184,48h144zM182,49h148zM178,50h156zM176,51h160zM173,52h165zM172,53h168zM168,54h176zM167,55h178zM164,56h184zM162,57h187zM160,58h192zM158,59h196zM156,60h200zM154,61h203zM152,62h208zM151,63h210zM148,64h216zM147,65h217zM145,66h222zM144,67h224zM142,68h228zM140,69h231zM138,70h236zM137,71h237zM135,72h241zM134,73h244zM132,74h248zM131,75h249zM129,76h253zM128,77h255zM126,78h259zM126,79h260zM124,80h264zM123,81h265zM121,82h269zM120,83h271zM119,84h274zM118,85h276zM116,86h280zM116,87h280zM114,88h284zM113,89h285zM112,90h288zM111,91h290zM110,92h292zM108,93h295zM107,94h297zM106,95h299zM105,96h302zM104,97h304zM103,98h306zM102,99h308zM101,100h310zM100,101h312zM99,102h314zM98,103h316zM97,104h318zM96,105h319zM95,106h321zM94,107h323zM93,108h325zM93,109h326zM92,110h328zM91,111h330zM90,112h332zM89,113h333zM88,114h336zM88,115h336zM86,116h339zM86,117h340zM85,118h342zM84,119h344zM83,120h345zM82,121h347zM82,122h348zM81,123h349zM80,124h352zM80,125h352zM78,126h355zM78,127h356zM77,128h357zM77,129h358zM76,130h360zM75,131h361zM74,132h363zM74,133h364zM73,134h365zM72,135h367zM72,136h368zM71,137h369zM70,138h371zM70,139h93zM310,139h132zM69,140h94zM320,140h122zM69,141h94zM324,141h119zM68,142h95zM329,142h115zM68,143h95zM332,143h112zM67,144h96zM336,144h109zM66,145h97zM338,145h107zM66,146h97zM341,146h105zM65,147h98zM342,147h104zM64,148h99zM345,148h102zM64,149h99zM346,149h102zM63,150h100zM349,150h99zM63,151h100zM350,151h99zM62,152h101zM352,152h98zM62,153h101zM353,153h97zM61,154h102zM355,154h95zM61,155h102zM356,155h95zM60,156h103zM358,156h94zM60,157h103zM358,157h94zM59,158h104zM360,158h92zM59,159h104zM360,159h93zM58,160h105zM362,160h92zM58,161h105zM363,161h91zM57,162h106zM364,162h90zM57,163h106zM364,163h91zM56,164h107zM366,164h90zM56,165h107zM366,165h90zM56,166h107zM368,166h88zM55,167h108zM368,167h88zM54,168h109zM369,168h88zM54,169h109zM370,169h88zM54,170h109zM370,170h88zM54,171h109zM371,171h87zM53,172h110zM372,172h87zM52,173h111zM372,173h87zM52,174h111zM373,174h87zM52,175h111zM374,175h86zM51,176h112zM374,176h86zM51,177h112zM374,177h87zM50,178h113zM375,178h86zM50,179h113zM376,179h86zM50,180h113zM376,180h86zM50,181h113zM376,181h86zM49,182h114zM377,182h85zM49,183h114zM378,183h85zM48,184h115zM378,184h86zM48,185h115zM378,185h86zM48,186h260zM379,186h85zM48,187h264zM379,187h85zM47,188h269zM380,188h85zM47,189h271zM380,189h85zM46,190h274zM380,190h86zM46,191h276zM380,191h86zM46,192h278zM381,192h85zM46,193h278zM381,193h85zM45,194h281zM381,194h85zM45,195h282zM382,195h85zM44,196h284zM382,196h85zM44,197h284zM382,197h85zM44,198h286zM382,198h86zM44,199h286zM382,199h86zM44,200h287zM382,200h86zM43,201h289zM383,201h85zM43,202h289zM383,202h86zM43,203h289zM383,203h86zM42,204h291zM383,204h86zM42,205h292zM383,205h87zM42,206h292zM384,206h86zM42,207h292zM384,207h86zM42,208h293zM384,208h86zM42,209h293zM384,209h86zM41,210h294zM384,210h86zM41,211h295zM384,211h87zM40,212h296zM384,212h87zM40,213h296zM384,213h87zM40,214h296zM384,214h88zM40,215h296zM384,215h88zM40,216h296zM384,216h88zM40,217h296zM384,217h88zM40,218h296zM384,218h88zM40,219h296zM384,219h88zM39,220h297zM384,220h88zM39,221h297zM384,221h88zM39,222h297zM384,222h89zM39,223h297zM384,223h89zM38,224h298zM384,224h89zM38,225h298zM384,225h89zM38,226h298zM384,226h90zM38,227h298zM384,227h90zM38,228h298zM384,228h90zM38,229h298zM384,229h90zM38,230h298zM384,230h90zM38,231h297zM384,231h90zM38,232h297zM383,232h91zM38,233h297zM383,233h91zM38,234h296zM383,234h91zM37,235h297zM383,235h91zM37,236h297zM382,236h92zM37,237h296zM382,237h92zM37,238h295zM382,238h92zM37,239h295zM382,239h93zM37,240h295zM382,240h93zM37,241h294zM382,241h93zM37,242h293zM382,242h93zM37,243h293zM381,243h94zM36,244h293zM381,244h94zM36,245h292zM381,245h94zM36,246h291zM380,246h95zM36,247h290zM380,247h95zM36,248h289zM380,248h95zM36,249h288zM380,249h95zM36,250h286zM379,250h96zM36,251h285zM379,251h96zM36,252h283zM378,252h97zM36,253h282zM378,253h97zM36,254h278zM378,254h97zM36,255h276zM377,255h98zM36,256h266zM376,256h99zM36,257h159zM376,257h99zM36,258h152zM376,258h99zM36,259h150zM376,259h99zM36,260h146zM375,260h100zM36,261h144zM374,261h101zM36,262h142zM374,262h101zM36,263h141zM373,263h102zM36,264h139zM372,264h103zM36,265h138zM372,265h103zM36,266h137zM371,266h104zM36,267h136zM371,267h104zM37,268h134zM370,268h105zM37,269h134zM370,269h105zM37,270h133zM368,270h107zM37,271h133zM368,271h107zM37,272h131zM367,272h107zM37,273h131zM366,273h108zM37,274h131zM366,274h108zM37,275h130zM365,275h109zM38,276h129zM364,276h110zM38,277h128zM363,277h111zM38,278h128zM362,278h112zM38,279h128zM361,279h113zM38,280h127zM360,280h114zM38,281h127zM359,281h115zM38,282h127zM358,282h116zM38,283h126zM357,283h117zM38,284h126zM355,284h119zM38,285h126zM354,285h119zM38,286h126zM353,286h120zM38,287h126zM352,287h121zM39,288h125zM350,288h123zM39,289h125zM349,289h124zM39,290h125zM346,290h126zM39,291h125zM345,291h127zM40,292h124zM343,292h129zM40,293h123zM341,293h131zM40,294h123zM338,294h134zM40,295h123zM337,295h135zM40,296h123zM333,296h139zM40,297h123zM331,297h140zM40,298h123zM327,298h144zM41,299h122zM324,299h147zM41,300h122zM317,300h153zM41,301h122zM312,301h158zM42,302h121zM213,302h257zM42,303h121zM212,303h258zM42,304h121zM211,304h259zM42,305h121zM211,305h259zM42,306h121zM210,306h259zM42,307h121zM210,307h259zM43,308h120zM210,308h259zM43,309h120zM210,309h258zM44,310h119zM210,310h258zM44,311h119zM210,311h258zM44,312h119zM210,312h258zM44,313h119zM210,313h258zM44,314h119zM210,314h257zM44,315h119zM210,315h257zM45,316h118zM210,316h256zM45,317h118zM210,317h256zM46,318h117zM210,318h256zM46,319h117zM210,319h256zM46,320h117zM210,320h256zM46,321h117zM210,321h255zM47,322h116zM210,322h255zM47,323h116zM210,323h254zM48,324h115zM210,324h254zM48,325h115zM210,325h254zM48,326h115zM210,326h254zM48,327h115zM210,327h253zM49,328h114zM210,328h253zM49,329h114zM210,329h252zM50,330h113zM210,330h252zM50,331h113zM210,331h252zM50,332h113zM210,332h251zM50,333h113zM210,333h251zM51,334h112zM210,334h250zM51,335h112zM210,335h250zM52,336h111zM210,336h250zM52,337h111zM210,337h250zM53,338h110zM210,338h249zM53,339h110zM210,339h249zM54,340h109zM210,340h248zM54,341h109zM210,341h248zM54,342h109zM210,342h247zM55,343h108zM210,343h247zM55,344h108zM210,344h246zM56,345h107zM210,345h246zM56,346h107zM210,346h246zM56,347h107zM210,347h245zM57,348h106zM210,348h244zM58,349h105zM210,349h244zM58,350h105zM210,350h244zM58,351h105zM210,351h243zM59,352h104zM210,352h242zM59,353h104zM210,353h242zM60,354h103zM210,354h242zM60,355h103zM210,355h242zM61,356h102zM210,356h240zM62,357h101zM210,357h240zM62,358h101zM210,358h240zM62,359h101zM210,359h239zM63,360h100zM210,360h238zM64,361h99zM210,361h238zM64,362h99zM210,362h238zM64,363h99zM210,363h237zM66,364h97zM210,364h236zM66,365h97zM210,365h236zM66,366h97zM210,366h235zM67,367h96zM210,367h235zM68,368h95zM210,368h234zM68,369h95zM210,369h234zM69,370h94zM210,370h233zM70,371h93zM210,371h232zM70,372h93zM210,372h232zM70,373h93zM210,373h231zM72,374h91zM210,374h230zM72,375h91zM210,375h230zM73,376h90zM210,376h229zM73,377h90zM210,377h228zM74,378h89zM210,378h228zM74,379h89zM210,379h227zM76,380h87zM210,380h226zM76,381h87zM210,381h226zM77,382h86zM210,382h225zM78,383h85zM210,383h224zM78,384h85zM210,384h223zM79,385h84zM210,385h223zM80,386h83zM210,386h222zM80,387h83zM210,387h221zM82,388h81zM210,388h220zM82,389h81zM210,389h220zM83,390h80zM210,390h219zM84,391h79zM210,391h218zM84,392h79zM210,392h217zM85,393h78zM210,393h216zM86,394h77zM210,394h216zM86,395h77zM210,395h215zM88,396h75zM210,396h214zM88,397h75zM210,397h213zM90,398h73zM210,398h212zM90,399h73zM210,399h212zM91,400h72zM210,400h210zM92,401h71zM210,401h210zM93,402h70zM210,402h209zM94,403h69zM210,403h208zM95,404h322zM96,405h320zM97,406h318zM97,407h317zM98,408h315zM99,409h313zM100,410h311zM101,411h309zM102,412h307zM103,413h305zM104,414h303zM106,415h300zM107,416h298zM108,417h296zM109,418h294zM110,419h292zM111,420h289zM112,421h288zM114,422h284zM114,423h284zM116,424h280zM116,425h279zM118,426h275zM119,427h273zM121,428h270zM122,429h268zM124,430h264zM124,431h263zM126,432h260zM127,433h257zM129,434h254zM130,435h252zM132,436h248zM133,437h246zM135,438h242zM136,439h240zM138,440h236zM139,441h234zM141,442h230zM142,443h228zM144,444h224zM146,445h220zM148,446h216zM149,447h214zM151,448h209zM152,449h207zM155,450h201zM156,451h200zM159,452h194zM160,453h192zM163,454h185zM164,455h183zM168,456h176zM169,457h173zM172,458h168zM174,459h164zM177,460h157zM179,461h154zM182,462h147zM184,463h143zM188,464h135zM190,465h131zM195,466h122zM197,467h117zM202,468h108zM205,469h101zM211,470h89zM214,471h83zM222,472h68zM226,473h59zM239,474h33z"
		stroke="rgb(0,0,0)"
		stroke-opacity="1.0"
		stroke-width="1.0" />
	<path
		d="M268,36h1zM434,128h1zM441,138h1zM66,144h1zM466,194h1zM37,277h1zM467,314h1zM462,329h1zM49,330h1zM138,441h1z"
		stroke="rgb(0,0,0)"
		stroke-opacity="0.95686275"
		stroke-width="1.0" />
	<path
		d="M269,36h1zM279,37h1zM381,75h1zM127,77h1zM474,235h1zM47,325h1zM75,381h1zM361,448h1zM324,464h1z"
		stroke="rgb(0,0,0)"
		stroke-opacity="0.7921569"
		stroke-width="1.0" />
	<path
		d="M270,36h1zM398,88h1zM36,270h1zM474,280h1z"
		stroke="rgb(0,0,0)"
		stroke-opacity="0.62352943"
		stroke-width="1.0" />
	<path
		d="M271,36h1z"
		stroke="rgb(0,0,0)"
		stroke-opacity="0.45490196"
		stroke-width="1.0" />
	<path
		d="M272,36h1zM45,190h1zM38,221h1zM448,362h1zM428,392h1z"
		stroke="rgb(0,0,0)"
		stroke-opacity="0.29803923"
		stroke-width="1.0" />
	<path
		d="M276,36h1zM209,40h1zM457,167h1zM461,334h1zM449,360h1zM167,457h1zM198,468h1z"
		stroke="rgb(0,0,0)"
		stroke-opacity="0.23921569"
		stroke-width="1.0" />
	<path
		d="M277,36h1z"
		stroke="rgb(0,0,0)"
		stroke-opacity="0.18039216"
		stroke-width="1.0" />
	<path
		d="M278,36h1zM373,69h1zM60,153h1zM454,160h1zM46,186h1zM465,187h1zM469,310h1zM460,337h1zM310,469h1z"
		stroke="rgb(0,0,0)"
		stroke-opacity="0.10980392"
		stroke-width="1.0" />
	<path
		d="M279,36h1zM381,74h1zM423,112h1zM36,279h1zM72,378h1zM74,381h1zM421,401h1zM138,442h1zM361,449h1zM320,466h1z"
		stroke="rgb(0,0,0)"
		stroke-opacity="0.043137256"
		stroke-width="1.0" />
	<path
		d="M225,37h1zM325,46h1zM378,72h1zM382,75h1zM94,105h1zM430,121h1zM65,144h1zM456,164h1zM49,333h1zM445,368h1zM433,386h1zM121,430h1zM386,433h1zM146,447h1z"
		stroke="rgb(0,0,0)"
		stroke-opacity="0.03529412"
		stroke-width="1.0" />
	<path
		d="M227,37h1zM304,470h1z"
		stroke="rgb(0,0,0)"
		stroke-opacity="0.49019608"
		stroke-width="1.0" />
	<path
		d="M228,37h1zM313,43h1zM360,62h1zM452,157h1zM472,217h1zM474,231h1zM161,454h1zM199,468h1z"
		stroke="rgb(0,0,0)"
		stroke-opacity="0.69803923"
		stroke-width="1.0" />
	<path
		d="M229,37h2zM280,37h3zM216,39h1zM294,39h2zM206,41h1zM304,41h1zM198,43h1zM51,174h1zM464,186h1zM43,198h1zM41,206h1zM470,208h1zM39,216h1zM472,218h1zM37,229h1zM37,230h1zM474,232h1zM474,233h1zM474,234h1zM474,277h1zM474,278h1zM474,279h1zM37,280h1zM37,281h1zM472,292h1zM472,293h1zM39,294h1zM39,295h1zM470,303h1zM41,304h1zM466,318h1zM61,358h1zM170,458h1zM180,462h1zM186,464h1zM318,466h1zM208,470h1zM303,470h1zM218,472h1zM292,472h2zM232,474h3zM277,474h3z"
		stroke="rgb(0,0,0)"
		stroke-opacity="0.7490196"
		stroke-width="1.0" />
	<path
		d="M231,37h1zM207,41h1zM312,43h1zM174,51h1zM378,73h1zM422,112h1zM63,149h1zM458,170h1zM37,231h1zM475,262h1zM468,311h1zM43,312h1zM382,435h1zM311,468h1zM276,474h1z"
		stroke="rgb(0,0,0)"
		stroke-opacity="0.7529412"
		stroke-width="1.0" />
	<path
		d="M232,37h1zM400,90h1zM88,113h1zM471,213h1zM78,385h1z"
		stroke="rgb(0,0,0)"
		stroke-opacity="0.8156863"
		stroke-width="1.0" />
	<path
		d="M233,37h1zM195,44h1zM157,59h1zM370,68h1zM59,157h1zM68,370h1zM274,474h1zM259,475h1z"
		stroke="rgb(0,0,0)"
		stroke-opacity="0.88235295"
		stroke-width="1.0" />
	<path
		d="M234,37h1zM144,66h1zM442,140h1zM40,299h1zM465,321h1zM463,327h1zM388,430h1zM327,463h1zM273,474h1zM257,475h1z"
		stroke="rgb(0,0,0)"
		stroke-opacity="0.9490196"
		stroke-width="1.0" />
	<path
		d="M235,37h1zM310,43h1zM338,52h1zM171,53h1zM349,57h1zM150,63h1zM364,65h1zM388,81h1zM109,92h1zM415,105h1zM92,109h1zM76,129h1zM438,134h1zM445,145h1zM53,171h1zM462,182h1zM47,187h1zM467,197h1zM41,209h1zM474,272h1zM37,276h1zM471,297h1zM470,300h1zM468,309h1zM43,310h1zM466,316h1zM461,332h1zM52,338h1zM54,343h1zM452,352h1zM450,356h1zM65,364h1zM431,387h1zM81,388h1zM426,393h1zM423,397h1zM96,406h1zM105,415h1zM393,426h1zM134,438h1zM145,445h1zM356,450h1zM348,454h1zM300,470h1zM272,474h1z"
		stroke="rgb(0,0,0)"
		stroke-opacity="0.99607843"
		stroke-width="1.0" />
	<path
		d="M276,37h1zM219,39h1zM209,41h1zM181,49h1zM357,61h1zM141,68h1zM405,95h1zM87,115h1zM425,116h1zM456,167h1zM475,256h1zM57,349h1zM453,351h1zM71,374h1zM77,383h1zM89,398h1zM387,431h1zM132,437h1zM342,457h1zM306,469h1zM221,472h1zM285,473h1zM256,475h1z"
		stroke="rgb(0,0,0)"
		stroke-opacity="0.9882353"
		stroke-width="1.0" />
	<path
		d="M277,37h1zM155,60h1zM90,111h1zM450,154h1zM475,258h1zM410,411h1zM253,475h1z"
		stroke="rgb(0,0,0)"
		stroke-opacity="0.92941177"
		stroke-width="1.0" />
	<path
		d="M278,37h1zM186,47h1zM352,58h1zM151,62h1zM61,153h1zM461,178h1zM47,186h1zM469,204h1zM475,250h1zM475,260h1zM468,310h1zM129,435h1z"
		stroke="rgb(0,0,0)"
		stroke-opacity="0.85882354"
		stroke-width="1.0" />
	<path
		d="M283,37h1zM147,64h1zM63,362h1zM312,468h1zM247,475h1z"
		stroke="rgb(0,0,0)"
		stroke-opacity="0.63529414"
		stroke-width="1.0" />
	<path
		d="M284,37h1zM397,87h1zM54,344h1z"
		stroke="rgb(0,0,0)"
		stroke-opacity="0.40392157"
		stroke-width="1.0" />
	<path
		d="M285,37h1zM175,50h1zM40,208h1zM116,426h1z"
		stroke="rgb(0,0,0)"
		stroke-opacity="0.15686275"
		stroke-width="1.0" />
	<path
		d="M217,38h1zM437,130h1zM457,345h1zM130,437h1zM219,473h1z"
		stroke="rgb(0,0,0)"
		stroke-opacity="0.023529412"
		stroke-width="1.0" />
	<path
		d="M218,38h1zM118,83h1zM36,278h1zM432,387h1zM396,425h1zM160,454h1z"
		stroke="rgb(0,0,0)"
		stroke-opacity="0.13725491"
		stroke-width="1.0" />
	<path
		d="M219,38h1zM181,48h1zM432,124h1zM54,166h1zM39,214h1zM124,432h1zM221,473h1z"
		stroke="rgb(0,0,0)"
		stroke-opacity="0.23529412"
		stroke-width="1.0" />
	<path
		d="M221,38h1zM309,42h1zM46,323h1zM64,364h1zM436,381h1zM82,391h1zM328,463h1zM267,475h1z"
		stroke="rgb(0,0,0)"
		stroke-opacity="0.37254903"
		stroke-width="1.0" />
	<path
		d="M222,38h1zM167,54h1zM433,126h1zM475,263h1zM471,298h1zM66,367h1zM80,388h1zM133,438h1z"
		stroke="rgb(0,0,0)"
		stroke-opacity="0.6666667"
		stroke-width="1.0" />
	<path
		d="M223,38h1zM203,42h1zM159,58h1zM475,257h1zM472,290h1zM39,292h1zM430,388h1zM140,442h1zM158,452h1z"
		stroke="rgb(0,0,0)"
		stroke-opacity="0.9529412"
		stroke-width="1.0" />
	<path
		d="M288,38h1zM299,40h1zM208,41h1zM475,251h1zM455,347h1z"
		stroke="rgb(0,0,0)"
		stroke-opacity="0.8784314"
		stroke-width="1.0" />
	<path
		d="M289,38h1zM408,97h1zM410,99h1zM412,101h1zM414,103h1zM428,119h1zM454,350h1zM97,408h1zM99,410h1zM103,414h1z"
		stroke="rgb(0,0,0)"
		stroke-opacity="0.56078434"
		stroke-width="1.0" />
	<path
		d="M290,38h1zM353,58h1zM150,62h1zM50,176h1zM475,267h1zM471,299h1zM411,411h1z"
		stroke="rgb(0,0,0)"
		stroke-opacity="0.29411766"
		stroke-width="1.0" />
	<path
		d="M292,38h1zM190,45h1zM340,52h1zM475,273h1zM140,443h1zM329,463h1zM238,475h1z"
		stroke="rgb(0,0,0)"
		stroke-opacity="0.21960784"
		stroke-width="1.0" />
	<path
		d="M293,38h1zM153,60h1zM97,102h1zM70,136h1zM68,139h1zM449,150h1zM450,152h1zM49,178h1zM453,353h1zM109,420h1zM391,429h1zM383,435h1zM181,463h1z"
		stroke="rgb(0,0,0)"
		stroke-opacity="0.09411765"
		stroke-width="1.0" />
	<path
		d="M214,39h1zM330,48h1zM437,131h1zM441,137h1zM443,140h1zM131,437h1zM137,441h1zM344,457h1zM194,467h1zM295,472h1z"
		stroke="rgb(0,0,0)"
		stroke-opacity="0.21568628"
		stroke-width="1.0" />
	<path
		d="M215,39h1zM96,104h1zM54,167h1zM45,320h1zM67,369h1z"
		stroke="rgb(0,0,0)"
		stroke-opacity="0.65882355"
		stroke-width="1.0" />
	<path
		d="M217,39h1zM457,168h1zM474,276h1zM49,331h1zM456,345h1zM168,457h1zM213,471h1zM219,472h1zM235,474h1zM249,475h1z"
		stroke="rgb(0,0,0)"
		stroke-opacity="0.77254903"
		stroke-width="1.0" />
	<path
		d="M218,39h1zM308,42h1zM56,163h1zM406,415h1zM148,447h1z"
		stroke="rgb(0,0,0)"
		stroke-opacity="0.8862745"
		stroke-width="1.0" />
	<path
		d="M292,39h1zM193,45h1zM324,47h1zM183,48h1zM45,193h1zM94,404h1zM147,446h1zM290,472h1z"
		stroke="rgb(0,0,0)"
		stroke-opacity="0.972549"
		stroke-width="1.0" />
	<path
		d="M293,39h1zM153,61h1zM69,139h1zM448,150h1zM475,261h1zM58,352h1zM60,356h1zM405,416h1zM383,434h1zM181,462h1z"
		stroke="rgb(0,0,0)"
		stroke-opacity="0.84313726"
		stroke-width="1.0" />
	<path
		d="M296,39h1zM40,300h1z"
		stroke="rgb(0,0,0)"
		stroke-opacity="0.52156866"
		stroke-width="1.0" />
	<path
		d="M297,39h1zM170,52h1zM168,53h1zM130,74h1zM463,181h1zM468,313h1zM50,336h1zM459,340h1zM451,357h1zM435,383h1zM349,455h1zM236,475h1z"
		stroke="rgb(0,0,0)"
		stroke-opacity="0.08235294"
		stroke-width="1.0" />
	<path
		d="M208,40h1zM416,406h1zM282,474h1zM274,475h1z"
		stroke="rgb(0,0,0)"
		stroke-opacity="0.12941177"
		stroke-width="1.0" />
	<path
		d="M210,40h1zM58,353h1zM299,471h1zM243,475h1z"
		stroke="rgb(0,0,0)"
		stroke-opacity="0.28235295"
		stroke-width="1.0" />
	<path
		d="M211,40h1zM165,456h1zM298,471h1z"
		stroke="rgb(0,0,0)"
		stroke-opacity="0.61960787"
		stroke-width="1.0" />
	<path
		d="M212,40h1zM374,71h1zM437,132h1zM68,141h1zM55,166h1zM49,181h1zM39,219h1zM41,302h1zM448,360h1zM95,405h1zM400,420h1zM113,422h1zM297,471h1z"
		stroke="rgb(0,0,0)"
		stroke-opacity="0.9843137"
		stroke-width="1.0" />
	<path
		d="M300,40h1zM128,76h1zM445,144h1zM474,230h1zM144,445h1z"
		stroke="rgb(0,0,0)"
		stroke-opacity="0.4627451"
		stroke-width="1.0" />
	<path
		d="M302,40h1zM193,44h1zM324,46h1zM419,108h1zM44,193h1zM470,206h1zM46,324h1zM147,447h1zM290,473h1z"
		stroke="rgb(0,0,0)"
		stroke-opacity="0.22352941"
		stroke-width="1.0" />
	<path
		d="M303,40h1zM180,48h1zM420,109h1zM82,119h1zM473,291h1zM38,293h1zM461,335h1zM63,363h1zM110,421h1zM357,451h1z"
		stroke="rgb(0,0,0)"
		stroke-opacity="0.07450981"
		stroke-width="1.0" />
	<path
		d="M204,41h1zM341,52h1zM165,54h1zM385,77h1zM78,124h1zM77,385h1z"
		stroke="rgb(0,0,0)"
		stroke-opacity="0.03137255"
		stroke-width="1.0" />
	<path
		d="M205,41h1zM106,417h1z"
		stroke="rgb(0,0,0)"
		stroke-opacity="0.39215687"
		stroke-width="1.0" />
	<path
		d="M302,41h1zM143,67h1zM84,118h1zM428,120h1zM67,143h1zM446,147h1zM37,234h1zM36,243h1zM47,324h1zM53,340h1zM120,428h1zM323,464h1z"
		stroke="rgb(0,0,0)"
		stroke-opacity="0.9764706"
		stroke-width="1.0" />
	<path
		d="M303,41h1zM180,49h1zM336,51h1zM385,78h1zM123,80h1zM443,141h1zM52,172h1zM36,242h1zM472,291h1zM39,293h1zM91,401h1zM110,420h1zM357,450h1zM340,458h1zM250,475h1z"
		stroke="rgb(0,0,0)"
		stroke-opacity="0.8235294"
		stroke-width="1.0" />
	<path
		d="M306,41h1zM138,69h1zM447,147h1zM466,191h1zM36,234h1zM52,340h1zM108,419h1zM323,465h1z"
		stroke="rgb(0,0,0)"
		stroke-opacity="0.22745098"
		stroke-width="1.0" />
	<path
		d="M199,42h1zM86,114h1zM465,324h1zM70,375h1zM88,399h1z"
		stroke="rgb(0,0,0)"
		stroke-opacity="0.050980393"
		stroke-width="1.0" />
	<path
		d="M200,42h1zM42,200h1zM471,210h1zM457,344h1z"
		stroke="rgb(0,0,0)"
		stroke-opacity="0.21176471"
		stroke-width="1.0" />
	<path
		d="M202,42h1z"
		stroke="rgb(0,0,0)"
		stroke-opacity="0.5568628"
		stroke-width="1.0" />
	<path
		d="M311,42h1zM347,55h1zM126,77h1zM433,125h1zM72,133h1zM64,146h1zM459,171h1zM36,233h1zM42,311h1zM54,345h1zM73,379h1zM377,439h1z"
		stroke="rgb(0,0,0)"
		stroke-opacity="0.16078432"
		stroke-width="1.0" />
	<path
		d="M196,43h1zM62,149h1zM54,165h1zM475,276h1zM48,331h1zM56,350h1zM454,351h1zM75,382h1zM426,395h1zM404,418h1zM395,426h1zM200,469h1zM228,474h1zM235,475h1z"
		stroke="rgb(0,0,0)"
		stroke-opacity="0.019607844"
		stroke-width="1.0" />
	<path
		d="M197,43h1zM158,58h1zM469,203h1zM36,239h1zM465,322h1zM352,453h1z"
		stroke="rgb(0,0,0)"
		stroke-opacity="0.3882353"
		stroke-width="1.0" />
	<path
		d="M199,43h1zM426,117h1zM464,324h1zM71,375h1zM429,390h1zM89,399h1z"
		stroke="rgb(0,0,0)"
		stroke-opacity="0.8"
		stroke-width="1.0" />
	<path
		d="M200,43h1zM330,49h1zM376,72h1zM125,79h1zM118,84h1zM440,137h1zM43,200h1zM42,203h1zM470,210h1zM473,285h1zM137,440h1zM344,456h1z"
		stroke="rgb(0,0,0)"
		stroke-opacity="0.9647059"
		stroke-width="1.0" />
	<path
		d="M311,43h1zM322,46h1zM328,48h1zM432,125h1zM73,133h1zM439,135h1zM65,146h1zM458,171h1zM41,208h1zM37,233h1zM475,252h1zM475,259h1zM36,268h1zM43,311h1zM55,345h1zM438,377h1zM76,382h1zM412,409h1zM366,445h1z"
		stroke="rgb(0,0,0)"
		stroke-opacity="0.9098039"
		stroke-width="1.0" />
	<path
		d="M314,43h1zM89,111h1zM467,194h1zM36,277h1zM463,329h1zM48,330h1zM415,407h1zM179,462h1zM191,466h1zM229,474h1z"
		stroke="rgb(0,0,0)"
		stroke-opacity="0.20784314"
		stroke-width="1.0" />
	<path
		d="M192,44h1zM333,49h1zM354,58h1zM142,66h1zM66,142h1zM447,146h1zM475,235h1zM37,285h1zM46,325h1zM52,341h1zM368,445h1zM355,452h1zM324,465h1zM193,467h1z"
		stroke="rgb(0,0,0)"
		stroke-opacity="0.039215688"
		stroke-width="1.0" />
	<path
		d="M194,44h1zM116,85h1zM472,216h1z"
		stroke="rgb(0,0,0)"
		stroke-opacity="0.32941177"
		stroke-width="1.0" />
	<path
		d="M316,44h1zM131,74h1zM231,474h1z"
		stroke="rgb(0,0,0)"
		stroke-opacity="0.6862745"
		stroke-width="1.0" />
	<path
		d="M317,44h1zM403,92h1zM36,238h1zM44,317h1zM459,339h1zM348,455h1zM339,459h1z"
		stroke="rgb(0,0,0)"
		stroke-opacity="0.26666668"
		stroke-width="1.0" />
	<path
		d="M318,44h1zM386,78h1zM44,318h1zM61,359h1zM62,361h1zM444,369h1zM441,374h1zM78,386h1z"
		stroke="rgb(0,0,0)"
		stroke-opacity="0.18431373"
		stroke-width="1.0" />
	<path
		d="M319,44h1zM469,200h1zM40,207h1zM38,217h1zM474,228h1zM44,319h1zM463,330h1zM60,358h1zM431,389h1z"
		stroke="rgb(0,0,0)"
		stroke-opacity="0.015686275"
		stroke-width="1.0" />
	<path
		d="M191,45h1zM62,360h1zM325,464h1zM248,475h1z"
		stroke="rgb(0,0,0)"
		stroke-opacity="0.7058824"
		stroke-width="1.0" />
	<path
		d="M192,45h1zM325,47h1zM354,59h1zM142,67h1zM114,87h1zM100,100h1zM77,127h1zM67,142h1zM446,146h1zM459,338h1zM53,341h1zM193,466h1z"
		stroke="rgb(0,0,0)"
		stroke-opacity="0.7882353"
		stroke-width="1.0" />
	<path
		d="M318,45h1zM386,79h1zM111,90h1zM403,93h1zM45,318h1zM449,359h1zM63,361h1zM347,455h1z"
		stroke="rgb(0,0,0)"
		stroke-opacity="0.93333334"
		stroke-width="1.0" />
	<path
		d="M319,45h1zM119,83h1zM41,207h1zM39,217h1zM36,269h1zM462,330h1zM57,350h1z"
		stroke="rgb(0,0,0)"
		stroke-opacity="0.7647059"
		stroke-width="1.0" />
	<path
		d="M320,45h1zM367,66h1zM388,80h1zM53,169h1zM441,373h1zM373,441h1zM207,470h1z"
		stroke="rgb(0,0,0)"
		stroke-opacity="0.64705884"
		stroke-width="1.0" />
	<path
		d="M321,45h1zM136,70h1zM376,71h1zM401,90h1zM96,103h1zM427,117h1zM53,168h1zM475,275h1zM371,443h1zM335,461h1z"
		stroke="rgb(0,0,0)"
		stroke-opacity="0.08627451"
		stroke-width="1.0" />
	<path
		d="M186,46h1zM103,96h1zM102,97h1zM98,101h1zM438,132h1zM474,282h1zM71,376h1zM417,405h1zM337,460h1z"
		stroke="rgb(0,0,0)"
		stroke-opacity="0.105882354"
		stroke-width="1.0" />
	<path
		d="M188,46h1zM427,118h1zM431,123h1zM118,427h1z"
		stroke="rgb(0,0,0)"
		stroke-opacity="0.5254902"
		stroke-width="1.0" />
	<path
		d="M189,46h1zM340,53h1zM110,91h1zM404,94h1zM417,107h1zM91,110h1zM79,125h1zM48,183h1zM474,273h1zM72,376h1zM427,392h1zM107,417h1zM392,427h1zM128,434h1zM329,462h1zM194,466h1zM314,467h1zM238,474h1z"
		stroke="rgb(0,0,0)"
		stroke-opacity="0.96862745"
		stroke-width="1.0" />
	<path
		d="M184,47h1zM371,68h1zM424,114h1zM62,150h1zM68,371h1z"
		stroke="rgb(0,0,0)"
		stroke-opacity="0.3137255"
		stroke-width="1.0" />
	<path
		d="M185,47h1zM460,175h1zM466,192h1zM41,305h1zM56,348h1z"
		stroke="rgb(0,0,0)"
		stroke-opacity="0.73333335"
		stroke-width="1.0" />
	<path
		d="M187,47h1zM166,55h1zM371,69h1zM383,77h1zM391,83h1zM115,87h1zM398,89h1zM430,123h1zM475,255h1zM469,306h1zM460,334h1zM457,342h1zM454,348h1zM61,357h1zM69,371h1zM433,384h1zM83,391h1zM123,430h1zM384,433h1zM167,456h1zM334,460h1zM255,475h1z"
		stroke="rgb(0,0,0)"
		stroke-opacity="0.99215686"
		stroke-width="1.0" />
	<path
		d="M326,47h1zM105,95h1zM438,133h1zM70,137h1zM451,155h1zM454,161h1zM36,241h1zM473,286h1zM460,336h1zM336,460h1z"
		stroke="rgb(0,0,0)"
		stroke-opacity="0.67058825"
		stroke-width="1.0" />
	<path
		d="M327,47h1zM178,49h1zM390,81h1zM99,100h1zM405,417h1z"
		stroke="rgb(0,0,0)"
		stroke-opacity="0.11372549"
		stroke-width="1.0" />
	<path
		d="M182,48h1zM91,109h1zM475,246h1zM39,296h1zM467,315h1zM457,343h1zM358,450h1z"
		stroke="rgb(0,0,0)"
		stroke-opacity="0.5176471"
		stroke-width="1.0" />
	<path
		d="M329,48h1zM85,116h1zM439,134h1zM367,445h1zM185,464h1zM322,465h1z"
		stroke="rgb(0,0,0)"
		stroke-opacity="0.34509805"
		stroke-width="1.0" />
	<path
		d="M331,48h1zM350,56h1zM144,65h1zM124,78h1zM441,136h1zM467,193h1zM471,302h1zM418,404h1zM136,441h1zM345,457h1zM332,462h1zM330,463h1z"
		stroke="rgb(0,0,0)"
		stroke-opacity="0.02745098"
		stroke-width="1.0" />
	<path
		d="M179,49h1zM470,207h1zM425,395h1z"
		stroke="rgb(0,0,0)"
		stroke-opacity="0.6745098"
		stroke-width="1.0" />
	<path
		d="M331,49h1zM350,57h1zM103,97h1zM466,193h1zM470,302h1zM444,368h1zM112,422h1zM368,444h1zM345,456h1zM330,462h1z"
		stroke="rgb(0,0,0)"
		stroke-opacity="0.7764706"
		stroke-width="1.0" />
	<path
		d="M332,49h1zM392,83h1zM107,93h1zM93,107h1zM46,188h1zM42,202h1z"
		stroke="rgb(0,0,0)"
		stroke-opacity="0.5764706"
		stroke-width="1.0" />
	<path
		d="M176,50h1zM429,120h1zM73,132h1zM74,380h1z"
		stroke="rgb(0,0,0)"
		stroke-opacity="0.30980393"
		stroke-width="1.0" />
	<path
		d="M177,50h1zM464,187h1zM310,468h1z"
		stroke="rgb(0,0,0)"
		stroke-opacity="0.8627451"
		stroke-width="1.0" />
	<path
		d="M334,50h1zM44,316h1zM50,334h1zM153,450h1z"
		stroke="rgb(0,0,0)"
		stroke-opacity="0.6392157"
		stroke-width="1.0" />
	<path
		d="M336,50h1zM340,459h1z"
		stroke="rgb(0,0,0)"
		stroke-opacity="0.07058824"
		stroke-width="1.0" />
	<path
		d="M173,51h1zM368,66h1zM446,145h1zM458,169h1zM51,173h1zM43,314h1zM447,364h1zM66,368h1zM115,425h1z"
		stroke="rgb(0,0,0)"
		stroke-opacity="0.19215687"
		stroke-width="1.0" />
	<path
		d="M175,51h1zM163,56h1zM81,122h1zM447,148h1zM459,173h1zM460,176h1zM38,223h1zM48,328h1zM413,408h1zM407,414h1zM377,438h1zM135,439h1zM359,449h1zM173,459h1zM317,466h1z"
		stroke="rgb(0,0,0)"
		stroke-opacity="0.90588236"
		stroke-width="1.0" />
	<path
		d="M337,51h1zM331,462h1z"
		stroke="rgb(0,0,0)"
		stroke-opacity="0.6156863"
		stroke-width="1.0" />
	<path
		d="M338,51h1zM343,53h1zM358,60h1zM397,86h1zM440,135h1zM448,148h1zM51,338h1zM458,342h1zM450,359h1zM126,434h1z"
		stroke="rgb(0,0,0)"
		stroke-opacity="0.007843138"
		stroke-width="1.0" />
	<path
		d="M172,52h1zM389,81h1zM421,111h1zM456,166h1z"
		stroke="rgb(0,0,0)"
		stroke-opacity="0.80784315"
		stroke-width="1.0" />
	<path
		d="M339,52h1zM72,134h1zM465,189h1zM438,378h1zM101,412h1zM119,428h1zM378,438h1zM363,447h1zM183,463h1zM246,475h1z"
		stroke="rgb(0,0,0)"
		stroke-opacity="0.5647059"
		stroke-width="1.0" />
	<path
		d="M169,53h1zM461,333h1z"
		stroke="rgb(0,0,0)"
		stroke-opacity="0.6431373"
		stroke-width="1.0" />
	<path
		d="M170,53h1zM356,60h1zM130,75h1zM401,91h1zM50,177h1zM462,181h1zM51,336h1zM458,340h1zM450,357h1zM404,417h1zM349,454h1z"
		stroke="rgb(0,0,0)"
		stroke-opacity="0.83137256"
		stroke-width="1.0" />
	<path
		d="M341,53h1zM348,56h1zM473,225h1zM146,446h1z"
		stroke="rgb(0,0,0)"
		stroke-opacity="0.78431374"
		stroke-width="1.0" />
	<path
		d="M342,53h1zM48,182h1z"
		stroke="rgb(0,0,0)"
		stroke-opacity="0.4862745"
		stroke-width="1.0" />
	<path
		d="M344,54h1zM418,107h1zM68,140h1zM346,456h1z"
		stroke="rgb(0,0,0)"
		stroke-opacity="0.42352942"
		stroke-width="1.0" />
	<path
		d="M345,54h1zM148,63h1zM395,85h1zM80,122h1zM471,301h1zM424,397h1zM397,424h1zM162,455h1zM201,469h1z"
		stroke="rgb(0,0,0)"
		stroke-opacity="0.17254902"
		stroke-width="1.0" />
	<path
		d="M164,55h1zM152,61h1zM405,94h1zM94,405h1z"
		stroke="rgb(0,0,0)"
		stroke-opacity="0.39607844"
		stroke-width="1.0" />
	<path
		d="M165,55h1zM99,101h1zM87,114h1zM83,119h1zM475,249h1z"
		stroke="rgb(0,0,0)"
		stroke-opacity="0.78039217"
		stroke-width="1.0" />
	<path
		d="M345,55h1zM468,201h1zM470,301h1zM46,322h1zM162,454h1zM201,468h1z"
		stroke="rgb(0,0,0)"
		stroke-opacity="0.92156863"
		stroke-width="1.0" />
	<path
		d="M346,55h1zM469,307h1z"
		stroke="rgb(0,0,0)"
		stroke-opacity="0.7137255"
		stroke-width="1.0" />
	<path
		d="M161,56h1zM38,218h1zM473,220h1zM91,402h1z"
		stroke="rgb(0,0,0)"
		stroke-opacity="0.12156863"
		stroke-width="1.0" />
	<path
		d="M162,56h1zM110,90h1zM55,164h1zM459,172h1zM36,272h1zM48,329h1zM76,383h1zM134,439h1zM172,459h1z"
		stroke="rgb(0,0,0)"
		stroke-opacity="0.34117648"
		stroke-width="1.0" />
	<path
		d="M349,56h1zM57,351h1zM308,469h1z"
		stroke="rgb(0,0,0)"
		stroke-opacity="0.25882354"
		stroke-width="1.0" />
	<path
		d="M160,57h1zM458,341h1z"
		stroke="rgb(0,0,0)"
		stroke-opacity="0.627451"
		stroke-width="1.0" />
	<path
		d="M161,57h1zM419,109h1zM39,218h1zM472,220h1zM85,394h1zM424,396h1zM109,419h1z"
		stroke="rgb(0,0,0)"
		stroke-opacity="0.87058824"
		stroke-width="1.0" />
	<path
		d="M351,57h1zM56,162h1zM59,355h1zM70,374h1zM79,387h1z"
		stroke="rgb(0,0,0)"
		stroke-opacity="0.3254902"
		stroke-width="1.0" />
	<path
		d="M156,59h1zM145,65h1zM430,389h1zM341,458h1z"
		stroke="rgb(0,0,0)"
		stroke-opacity="0.5882353"
		stroke-width="1.0" />
	<path
		d="M355,59h1zM132,73h1z"
		stroke="rgb(0,0,0)"
		stroke-opacity="0.2901961"
		stroke-width="1.0" />
	<path
		d="M154,60h1zM129,75h1zM391,82h1zM473,287h1zM281,474h1z"
		stroke="rgb(0,0,0)"
		stroke-opacity="0.36862746"
		stroke-width="1.0" />
	<path
		d="M357,60h1zM469,308h1zM414,408h1zM128,435h1z"
		stroke="rgb(0,0,0)"
		stroke-opacity="0.2627451"
		stroke-width="1.0" />
	<path
		d="M358,61h1zM98,102h1zM435,382h1zM432,386h1zM386,432h1z"
		stroke="rgb(0,0,0)"
		stroke-opacity="0.7372549"
		stroke-width="1.0" />
	<path
		d="M359,61h1zM361,62h1zM469,201h1zM475,237h1z"
		stroke="rgb(0,0,0)"
		stroke-opacity="0.16862746"
		stroke-width="1.0" />
	<path
		d="M149,62h1zM393,83h1zM106,93h1zM93,106h1zM43,196h1zM473,219h1zM53,343h1zM83,393h1zM389,431h1zM302,471h1z"
		stroke="rgb(0,0,0)"
		stroke-opacity="0.011764706"
		stroke-width="1.0" />
	<path
		d="M149,63h1zM37,282h1zM262,475h1z"
		stroke="rgb(0,0,0)"
		stroke-opacity="0.74509805"
		stroke-width="1.0" />
	<path
		d="M361,63h1zM382,76h1zM418,108h1zM474,237h1zM445,366h1zM409,412h1zM408,413h1zM108,418h1zM154,450h1zM176,460h1zM258,475h1z"
		stroke="rgb(0,0,0)"
		stroke-opacity="0.91764706"
		stroke-width="1.0" />
	<path
		d="M362,63h1zM155,451h1z"
		stroke="rgb(0,0,0)"
		stroke-opacity="0.6313726"
		stroke-width="1.0" />
	<path
		d="M146,64h1zM141,67h1zM133,72h1zM379,73h1zM77,126h1zM461,176h1zM475,274h1zM143,445h1zM145,446h1zM169,458h1zM171,459h1zM326,464h1zM317,467h1zM206,470h1zM301,471h1zM237,475h1z"
		stroke="rgb(0,0,0)"
		stroke-opacity="0.15294118"
		stroke-width="1.0" />
	<path
		d="M364,64h1zM475,244h1zM356,451h1zM212,471h1z"
		stroke="rgb(0,0,0)"
		stroke-opacity="0.33333334"
		stroke-width="1.0" />
	<path
		d="M365,64h1zM119,82h1zM104,95h1zM455,349h1zM80,389h1zM403,419h1zM275,475h1z"
		stroke="rgb(0,0,0)"
		stroke-opacity="0.0627451"
		stroke-width="1.0" />
	<path
		d="M146,65h1zM133,73h1zM122,81h1zM474,274h1zM143,444h1zM171,458h1zM301,470h1zM237,474h1z"
		stroke="rgb(0,0,0)"
		stroke-opacity="0.9019608"
		stroke-width="1.0" />
	<path
		d="M365,65h1zM49,180h1zM38,288h1zM454,349h1zM439,376h1zM81,389h1zM90,400h1zM418,403h1zM403,418h1zM111,421h1zM117,426h1zM275,474h1zM261,475h1z"
		stroke="rgb(0,0,0)"
		stroke-opacity="0.8117647"
		stroke-width="1.0" />
	<path
		d="M366,65h1zM377,72h1zM475,266h1zM42,309h1z"
		stroke="rgb(0,0,0)"
		stroke-opacity="0.4"
		stroke-width="1.0" />
	<path
		d="M143,66h1zM69,138h1zM66,143h1zM48,181h1zM38,219h1zM473,221h1zM475,238h1zM40,302h1zM465,323h1zM407,415h1zM360,449h1z"
		stroke="rgb(0,0,0)"
		stroke-opacity="0.23137255"
		stroke-width="1.0" />
	<path
		d="M368,67h1zM85,117h1zM452,158h1zM58,159h1zM475,253h1zM446,364h1zM67,368h1zM82,390h1zM87,396h1zM398,422h1zM115,424h1z"
		stroke="rgb(0,0,0)"
		stroke-opacity="0.9411765"
		stroke-width="1.0" />
	<path
		d="M369,67h1zM372,69h1zM47,326h1zM365,446h1z"
		stroke="rgb(0,0,0)"
		stroke-opacity="0.6784314"
		stroke-width="1.0" />
	<path
		d="M139,68h1zM88,112h1zM443,371h1zM117,427h1zM150,449h1zM313,468h1z"
		stroke="rgb(0,0,0)"
		stroke-opacity="0.09019608"
		stroke-width="1.0" />
	<path
		d="M140,68h1zM433,385h1zM385,433h1z"
		stroke="rgb(0,0,0)"
		stroke-opacity="0.42745098"
		stroke-width="1.0" />
	<path
		d="M139,69h1zM442,371h1zM416,405h1zM150,448h1z"
		stroke="rgb(0,0,0)"
		stroke-opacity="0.8392157"
		stroke-width="1.0" />
	<path
		d="M137,70h1zM95,105h1zM450,153h1zM49,179h1z"
		stroke="rgb(0,0,0)"
		stroke-opacity="0.654902"
		stroke-width="1.0" />
	<path
		d="M374,70h1zM40,210h1z"
		stroke="rgb(0,0,0)"
		stroke-opacity="0.3019608"
		stroke-width="1.0" />
	<path
		d="M375,70h1zM105,94h1zM442,138h1zM44,192h1zM42,199h1zM41,204h1zM58,354h1zM452,355h1zM449,361h1zM401,421h1zM112,423h1zM351,454h1z"
		stroke="rgb(0,0,0)"
		stroke-opacity="0.047058824"
		stroke-width="1.0" />
	<path
		d="M135,71h1zM76,128h1zM230,474h1z"
		stroke="rgb(0,0,0)"
		stroke-opacity="0.44705883"
		stroke-width="1.0" />
	<path
		d="M136,71h1zM89,112h1zM474,275h1zM434,383h1zM371,442h1zM335,460h1zM204,469h1zM236,474h1z"
		stroke="rgb(0,0,0)"
		stroke-opacity="0.8352941"
		stroke-width="1.0" />
	<path
		d="M375,71h1zM101,99h1zM45,192h1zM43,199h1zM37,279h1zM59,354h1zM448,361h1zM419,402h1zM402,419h1zM390,429h1z"
		stroke="rgb(0,0,0)"
		stroke-opacity="0.79607844"
		stroke-width="1.0" />
	<path
		d="M134,72h1zM416,105h1zM105,416h1zM224,473h1z"
		stroke="rgb(0,0,0)"
		stroke-opacity="0.53333336"
		stroke-width="1.0" />
	<path
		d="M380,74h1zM392,428h1zM120,429h1zM177,461h1z"
		stroke="rgb(0,0,0)"
		stroke-opacity="0.30588236"
		stroke-width="1.0" />
	<path
		d="M384,77h1zM456,165h1zM466,319h1zM52,339h1zM447,363h1zM77,384h1z"
		stroke="rgb(0,0,0)"
		stroke-opacity="0.5921569"
		stroke-width="1.0" />
	<path
		d="M124,79h1z"
		stroke="rgb(0,0,0)"
		stroke-opacity="0.7254902"
		stroke-width="1.0" />
	<path
		d="M387,79h1zM47,184h1zM44,194h1zM422,399h1zM412,410h1z"
		stroke="rgb(0,0,0)"
		stroke-opacity="0.31764707"
		stroke-width="1.0" />
	<path
		d="M122,80h1zM464,326h1zM439,377h1zM406,416h1zM125,433h1zM154,451h1zM176,461h1z"
		stroke="rgb(0,0,0)"
		stroke-opacity="0.16470589"
		stroke-width="1.0" />
	<path
		d="M389,80h1zM457,166h1zM48,180h1zM419,403h1zM305,470h1z"
		stroke="rgb(0,0,0)"
		stroke-opacity="0.05882353"
		stroke-width="1.0" />
	<path
		d="M121,81h1zM423,113h1zM81,121h1zM475,265h1zM163,455h1z"
		stroke="rgb(0,0,0)"
		stroke-opacity="0.49411765"
		stroke-width="1.0" />
	<path
		d="M120,82h1zM82,120h1zM41,205h1z"
		stroke="rgb(0,0,0)"
		stroke-opacity="0.47058824"
		stroke-width="1.0" />
	<path
		d="M390,82h1zM117,85h1zM424,115h1zM440,374h1zM79,386h1zM422,398h1zM364,446h1z"
		stroke="rgb(0,0,0)"
		stroke-opacity="0.9372549"
		stroke-width="1.0" />
	<path
		d="M117,84h1zM425,115h1zM84,117h1zM453,158h1zM474,229h1zM472,295h1zM423,398h1zM369,444h1zM364,447h1z"
		stroke="rgb(0,0,0)"
		stroke-opacity="0.1882353"
		stroke-width="1.0" />
	<path
		d="M393,84h1zM65,145h1zM453,159h1zM443,370h1zM84,393h1zM389,430h1zM354,452h1z"
		stroke="rgb(0,0,0)"
		stroke-opacity="0.6"
		stroke-width="1.0" />
	<path
		d="M394,85h1z"
		stroke="rgb(0,0,0)"
		stroke-opacity="0.8666667"
		stroke-width="1.0" />
	<path
		d="M114,86h1zM399,88h1zM95,104h1zM431,122h1zM122,431h1zM164,456h1zM209,471h1z"
		stroke="rgb(0,0,0)"
		stroke-opacity="0.05490196"
		stroke-width="1.0" />
	<path
		d="M115,86h1zM139,442h1z"
		stroke="rgb(0,0,0)"
		stroke-opacity="0.6039216"
		stroke-width="1.0" />
	<path
		d="M396,86h1zM473,290h1zM38,292h1zM431,388h1zM86,396h1z"
		stroke="rgb(0,0,0)"
		stroke-opacity="0.20392157"
		stroke-width="1.0" />
	<path
		d="M396,87h1zM60,155h1zM93,403h1zM210,470h1z"
		stroke="rgb(0,0,0)"
		stroke-opacity="0.94509804"
		stroke-width="1.0" />
	<path
		d="M112,88h1zM37,226h1zM475,236h1zM40,303h1zM45,321h1zM353,453h1zM187,465h1z"
		stroke="rgb(0,0,0)"
		stroke-opacity="0.101960786"
		stroke-width="1.0" />
	<path
		d="M113,88h1zM420,110h1zM470,209h1zM65,365h1zM166,456h1z"
		stroke="rgb(0,0,0)"
		stroke-opacity="0.81960785"
		stroke-width="1.0" />
	<path
		d="M112,89h1zM71,136h1zM57,161h1zM44,195h1zM452,353h1zM391,428h1zM291,472h1zM225,473h1z"
		stroke="rgb(0,0,0)"
		stroke-opacity="0.84705883"
		stroke-width="1.0" />
	<path
		d="M399,89h1zM430,122h1zM122,430h1zM376,439h1zM209,470h1z"
		stroke="rgb(0,0,0)"
		stroke-opacity="0.8039216"
		stroke-width="1.0" />
	<path
		d="M109,91h1zM36,240h1zM113,423h1z"
		stroke="rgb(0,0,0)"
		stroke-opacity="0.5294118"
		stroke-width="1.0" />
	<path
		d="M402,91h1zM83,118h1zM67,141h1zM50,175h1zM462,179h1zM55,347h1zM81,390h1zM220,473h1z"
		stroke="rgb(0,0,0)"
		stroke-opacity="0.14117648"
		stroke-width="1.0" />
	<path
		d="M108,92h1zM407,96h1zM409,98h1zM413,102h1zM92,108h1zM96,407h1zM98,409h1zM102,413h1zM104,415h1zM151,449h1z"
		stroke="rgb(0,0,0)"
		stroke-opacity="0.43529412"
		stroke-width="1.0" />
	<path
		d="M402,92h1zM429,121h1zM444,143h1zM92,402h1zM414,407h1zM321,465h1zM252,475h1z"
		stroke="rgb(0,0,0)"
		stroke-opacity="0.89411765"
		stroke-width="1.0" />
	<path
		d="M404,93h1zM411,100h1zM475,245h1zM93,404h1zM100,411h1z"
		stroke="rgb(0,0,0)"
		stroke-opacity="0.4392157"
		stroke-width="1.0" />
	<path
		d="M106,94h1zM94,106h1zM400,421h1zM343,457h1z"
		stroke="rgb(0,0,0)"
		stroke-opacity="0.5137255"
		stroke-width="1.0" />
	<path
		d="M406,95h1zM95,406h1z"
		stroke="rgb(0,0,0)"
		stroke-opacity="0.54509807"
		stroke-width="1.0" />
	<path
		d="M104,96h1zM40,211h1zM379,437h1zM217,472h1z"
		stroke="rgb(0,0,0)"
		stroke-opacity="0.70980394"
		stroke-width="1.0" />
	<path
		d="M101,98h1zM100,99h1zM47,327h1zM69,373h1z"
		stroke="rgb(0,0,0)"
		stroke-opacity="0.11764706"
		stroke-width="1.0" />
	<path
		d="M102,98h1zM440,136h1zM472,219h1zM136,440h1zM338,459h1zM196,467h1zM302,470h1z"
		stroke="rgb(0,0,0)"
		stroke-opacity="0.7607843"
		stroke-width="1.0" />
	<path
		d="M97,103h1zM436,130h1zM47,185h1zM130,436h1zM175,460h1zM286,473h1z"
		stroke="rgb(0,0,0)"
		stroke-opacity="0.7411765"
		stroke-width="1.0" />
	<path
		d="M415,104h1zM444,142h1zM61,152h1zM287,473h1z"
		stroke="rgb(0,0,0)"
		stroke-opacity="0.43137255"
		stroke-width="1.0" />
	<path
		d="M417,106h1zM60,154h1z"
		stroke="rgb(0,0,0)"
		stroke-opacity="0.38431373"
		stroke-width="1.0" />
	<path
		d="M90,110h1z"
		stroke="rgb(0,0,0)"
		stroke-opacity="0.3372549"
		stroke-width="1.0" />
	<path
		d="M86,115h1zM83,392h1z"
		stroke="rgb(0,0,0)"
		stroke-opacity="0.57254905"
		stroke-width="1.0" />
	<path
		d="M426,116h1zM455,162h1zM467,317h1z"
		stroke="rgb(0,0,0)"
		stroke-opacity="0.14901961"
		stroke-width="1.0" />
	<path
		d="M80,123h1zM75,130h1zM37,232h1zM460,335h1zM417,404h1zM141,443h1z"
		stroke="rgb(0,0,0)"
		stroke-opacity="0.827451"
		stroke-width="1.0" />
	<path
		d="M79,124h1zM401,420h1z"
		stroke="rgb(0,0,0)"
		stroke-opacity="0.7294118"
		stroke-width="1.0" />
	<path
		d="M434,127h1zM127,434h1zM319,466h1z"
		stroke="rgb(0,0,0)"
		stroke-opacity="0.5686275"
		stroke-width="1.0" />
	<path
		d="M75,129h1zM464,185h1zM463,328h1zM453,352h1zM445,367h1zM434,384h1z"
		stroke="rgb(0,0,0)"
		stroke-opacity="0.3529412"
		stroke-width="1.0" />
	<path
		d="M435,129h1zM474,236h1zM41,303h1zM251,475h1z"
		stroke="rgb(0,0,0)"
		stroke-opacity="0.85490197"
		stroke-width="1.0" />
	<path
		d="M74,130h1zM36,232h1zM470,305h1zM90,401h1zM152,450h1z"
		stroke="rgb(0,0,0)"
		stroke-opacity="0.078431375"
		stroke-width="1.0" />
	<path
		d="M74,131h1zM64,147h1zM468,199h1zM475,248h1zM446,365h1zM159,453h1zM333,461h1zM307,469h1z"
		stroke="rgb(0,0,0)"
		stroke-opacity="0.6901961"
		stroke-width="1.0" />
	<path
		d="M436,131h1zM475,254h1zM456,344h1zM131,436h1zM254,475h1z"
		stroke="rgb(0,0,0)"
		stroke-opacity="0.9607843"
		stroke-width="1.0" />
	<path
		d="M71,135h1zM449,151h1z"
		stroke="rgb(0,0,0)"
		stroke-opacity="0.45882353"
		stroke-width="1.0" />
	<path
		d="M163,139h1zM355,283h1zM354,284h1z"
		stroke="rgb(143,143,143)"
		stroke-opacity="1.0"
		stroke-width="1.0" />
	<path
		d="M164,139h140zM163,140h1zM163,141h1zM320,141h1zM163,142h1zM163,143h1zM329,143h1zM163,144h1zM163,145h1zM163,146h1zM163,147h1zM163,148h1zM163,149h1zM163,150h1zM163,151h1zM163,152h1zM163,153h1zM163,154h1zM163,155h1zM163,156h1zM163,157h1zM163,158h1zM163,159h1zM163,160h1zM163,161h1zM163,162h1zM163,163h1zM163,164h1zM163,165h1zM163,166h1zM163,167h1zM163,168h1zM163,169h1zM163,170h1zM163,171h1zM163,172h1zM163,173h1zM163,174h1zM163,175h1zM163,176h1zM163,177h1zM163,178h1zM163,179h1zM163,180h1zM163,181h1zM163,182h1zM163,183h1zM163,184h1zM310,186h2zM317,188h1zM380,194h1zM382,204h1zM382,205h1zM335,208h1zM382,232h1zM335,233h1zM382,233h1zM380,243h1zM199,257h103zM187,259h1zM167,276h1zM165,282h1zM341,292h1zM331,296h1zM324,298h1zM312,300h2z"
		stroke="rgb(191,191,191)"
		stroke-opacity="1.0"
		stroke-width="1.0" />
	<path
		d="M304,139h1zM358,158h1zM198,257h1zM314,300h1z"
		stroke="rgb(181,181,181)"
		stroke-opacity="1.0"
		stroke-width="1.0" />
	<path
		d="M305,139h1z"
		stroke="rgb(145,145,145)"
		stroke-opacity="1.0"
		stroke-width="1.0" />
	<path
		d="M306,139h1z"
		stroke="rgb(111,111,111)"
		stroke-opacity="1.0"
		stroke-width="1.0" />
	<path
		d="M307,139h1zM347,150h1zM322,191h1zM369,268h1zM166,278h1z"
		stroke="rgb(73,73,73)"
		stroke-opacity="1.0"
		stroke-width="1.0" />
	<path
		d="M308,139h1zM333,204h1zM336,218h1zM357,282h1zM164,284h1zM349,288h1z"
		stroke="rgb(36,36,36)"
		stroke-opacity="1.0"
		stroke-width="1.0" />
	<path
		d="M309,139h1zM348,150h1zM379,249h1zM336,295h1z"
		stroke="rgb(4,4,4)"
		stroke-opacity="1.0"
		stroke-width="1.0" />
	<path
		d="M442,139h1zM59,156h1zM38,222h1zM475,247h1zM37,283h1zM51,337h1zM452,354h1zM350,454h1zM280,474h1z"
		stroke="rgb(0,0,0)"
		stroke-opacity="0.60784316"
		stroke-width="1.0" />
	<path
		d="M164,140h149zM164,141h154zM164,142h160zM164,143h164zM164,144h168zM164,145h170zM164,146h174zM164,147h175zM164,148h178zM164,149h180zM164,150h182zM164,151h183zM164,152h186zM164,153h186zM164,154h188zM164,155h190zM164,156h192zM164,157h192zM164,158h194zM164,159h194zM164,160h196zM164,161h197zM164,162h198zM164,163h199zM164,164h200zM164,165h200zM164,166h202zM164,167h202zM164,168h204zM164,169h204zM164,170h205zM164,171h206zM164,172h206zM164,173h207zM164,174h208zM164,175h208zM164,176h209zM164,177h209zM164,178h210zM164,179h210zM164,180h211zM164,181h211zM164,182h212zM164,183h212zM164,184h213zM305,185h72zM314,186h64zM316,187h62zM319,188h59zM320,189h58zM323,190h56zM324,191h55zM326,192h54zM326,193h54zM328,194h52zM328,195h52zM330,196h50zM330,197h51zM331,198h50zM332,199h49zM332,200h50zM333,201h49zM334,202h48zM334,203h48zM334,204h48zM335,205h47zM336,206h46zM336,207h46zM336,208h46zM336,209h47zM336,210h47zM336,211h47zM337,212h46zM337,213h46zM337,214h46zM337,215h46zM338,216h45zM338,217h45zM338,218h45zM338,219h45zM338,220h45zM338,221h45zM338,222h45zM338,223h45zM338,224h45zM338,225h45zM337,226h46zM337,227h46zM337,228h46zM337,229h45zM336,230h46zM336,231h46zM336,232h46zM336,233h46zM336,234h46zM336,235h46zM335,236h47zM334,237h48zM334,238h47zM334,239h47zM333,240h48zM332,241h48zM332,242h48zM332,243h48zM330,244h50zM330,245h50zM329,246h50zM328,247h51zM327,248h51zM326,249h52zM324,250h54zM324,251h54zM322,252h55zM320,253h56zM318,254h58zM316,255h60zM311,256h64zM307,257h68zM193,258h181zM190,259h184zM185,260h188zM184,261h189zM180,262h192zM180,263h192zM178,264h193zM176,265h195zM175,266h195zM174,267h196zM173,268h195zM172,269h196zM172,270h195zM171,271h195zM170,272h196zM170,273h195zM169,274h195zM168,275h195zM168,276h194zM168,277h194zM167,278h193zM167,279h193zM166,280h192zM166,281h191zM166,282h190zM166,283h189zM166,284h187zM166,285h186zM165,286h185zM165,287h185zM165,288h182zM165,289h181zM164,290h180zM164,291h178zM164,292h176zM164,293h174zM164,294h171zM164,295h170zM164,296h166zM164,297h163zM164,298h158zM164,299h154zM164,300h144zM164,301h50zM164,302h47zM164,303h46zM164,304h46zM164,305h46zM164,306h46zM164,307h46zM164,308h46zM164,309h46zM164,310h46zM164,311h46zM164,312h46zM164,313h46zM164,314h46zM164,315h46zM164,316h46zM164,317h46zM164,318h46zM164,319h46zM164,320h46zM164,321h46zM164,322h46zM164,323h46zM164,324h46zM164,325h46zM164,326h46zM164,327h46zM164,328h46zM164,329h46zM164,330h46zM164,331h46zM164,332h46zM164,333h46zM164,334h46zM164,335h46zM164,336h46zM164,337h46zM164,338h46zM164,339h46zM164,340h46zM164,341h46zM164,342h46zM164,343h46zM164,344h46zM164,345h46zM164,346h46zM164,347h46zM164,348h46zM164,349h46zM164,350h46zM164,351h46zM164,352h46zM164,353h46zM164,354h46zM164,355h46zM164,356h46zM164,357h46zM164,358h46zM164,359h46zM164,360h46zM164,361h46zM164,362h46zM164,363h46zM164,364h46zM164,365h46zM164,366h46zM164,367h46zM164,368h46zM164,369h46zM164,370h46zM164,371h46zM164,372h46zM164,373h46zM164,374h46zM164,375h46zM164,376h46zM164,377h46zM164,378h46zM164,379h46zM164,380h46zM164,381h46zM164,382h46zM164,383h46zM164,384h46zM164,385h46zM164,386h46zM164,387h46zM164,388h46zM164,389h46zM164,390h46zM164,391h46zM164,392h46zM164,393h46zM164,394h46zM164,395h46zM164,396h46zM164,397h46zM164,398h46zM164,399h46zM164,400h46zM164,401h46zM164,402h46z"
		stroke="rgb(255,255,255)"
		stroke-opacity="1.0"
		stroke-width="1.0" />
	<path
		d="M313,140h1zM335,234h1zM330,296h1z"
		stroke="rgb(224,224,224)"
		stroke-opacity="1.0"
		stroke-width="1.0" />
	<path
		d="M314,140h1z"
		stroke="rgb(164,164,164)"
		stroke-opacity="1.0"
		stroke-width="1.0" />
	<path
		d="M315,140h1zM371,265h1z"
		stroke="rgb(79,79,79)"
		stroke-opacity="1.0"
		stroke-width="1.0" />
	<path
		d="M316,140h2zM327,142h1zM381,197h1zM334,206h1zM383,209h1zM383,210h1zM383,211h1zM383,212h1zM336,214h1zM336,215h1zM336,226h1zM383,226h1zM336,227h1zM383,227h1zM383,228h1zM334,235h1zM381,240h1zM377,253h1zM307,256h1zM164,286h1zM329,297h1zM321,299h1zM217,301h91z"
		stroke="rgb(63,63,63)"
		stroke-opacity="1.0"
		stroke-width="1.0" />
	<path
		d="M318,140h1zM368,168h1zM318,189h1zM363,276h1z"
		stroke="rgb(45,45,45)"
		stroke-opacity="1.0"
		stroke-width="1.0" />
	<path
		d="M319,140h1zM351,152h1zM378,186h1zM188,258h1zM182,260h1zM326,298h1z"
		stroke="rgb(14,14,14)"
		stroke-opacity="1.0"
		stroke-width="1.0" />
	<path
		d="M318,141h1zM318,188h1z"
		stroke="rgb(236,236,236)"
		stroke-opacity="1.0"
		stroke-width="1.0" />
	<path
		d="M319,141h1zM359,159h1zM364,164h1zM376,183h1zM337,220h1zM331,242h1zM182,261h1z"
		stroke="rgb(206,206,206)"
		stroke-opacity="1.0"
		stroke-width="1.0" />
	<path
		d="M321,141h1z"
		stroke="rgb(185,185,185)"
		stroke-opacity="1.0"
		stroke-width="1.0" />
	<path
		d="M322,141h1z"
		stroke="rgb(94,94,94)"
		stroke-opacity="1.0"
		stroke-width="1.0" />
	<path
		d="M323,141h1zM380,192h1z"
		stroke="rgb(9,9,9)"
		stroke-opacity="1.0"
		stroke-width="1.0" />
	<path
		d="M324,142h1zM339,147h1zM382,229h1zM315,255h1zM368,268h1zM350,286h1z"
		stroke="rgb(250,250,250)"
		stroke-opacity="1.0"
		stroke-width="1.0" />
	<path
		d="M325,142h1z"
		stroke="rgb(169,169,169)"
		stroke-opacity="1.0"
		stroke-width="1.0" />
	<path
		d="M326,142h1zM190,258h1z"
		stroke="rgb(63,63,63)"
		stroke-opacity="0.99607843"
		stroke-width="1.0" />
	<path
		d="M328,142h1zM369,169h1z"
		stroke="rgb(24,24,24)"
		stroke-opacity="1.0"
		stroke-width="1.0" />
	<path
		d="M328,143h1z"
		stroke="rgb(215,215,215)"
		stroke-opacity="1.0"
		stroke-width="1.0" />
	<path
		d="M330,143h1zM383,223h1zM332,240h1zM328,297h1z"
		stroke="rgb(130,130,130)"
		stroke-opacity="1.0"
		stroke-width="1.0" />
	<path
		d="M331,143h1zM373,175h1zM303,256h1zM180,261h1zM369,269h1zM351,287h1z"
		stroke="rgb(11,11,11)"
		stroke-opacity="1.0"
		stroke-width="1.0" />
	<path
		d="M445,143h1z"
		stroke="rgb(0,0,0)"
		stroke-opacity="0.14509805"
		stroke-width="1.0" />
	<path
		d="M332,144h1zM170,271h1z"
		stroke="rgb(231,231,231)"
		stroke-opacity="1.0"
		stroke-width="1.0" />
	<path
		d="M333,144h1zM336,213h1z"
		stroke="rgb(87,87,87)"
		stroke-opacity="1.0"
		stroke-width="1.0" />
	<path
		d="M334,144h1zM309,301h1z"
		stroke="rgb(52,52,52)"
		stroke-opacity="1.0"
		stroke-width="1.0" />
	<path
		d="M335,144h1zM362,161h1zM163,293h1z"
		stroke="rgb(5,5,5)"
		stroke-opacity="1.0"
		stroke-width="1.0" />
	<path
		d="M334,145h1zM375,181h1zM164,289h1zM309,300h1z"
		stroke="rgb(243,243,243)"
		stroke-opacity="1.0"
		stroke-width="1.0" />
	<path
		d="M335,145h1zM302,185h1zM324,192h1zM334,236h1z"
		stroke="rgb(196,196,196)"
		stroke-opacity="1.0"
		stroke-width="1.0" />
	<path
		d="M336,145h1zM376,182h1zM378,250h1zM186,259h1z"
		stroke="rgb(129,129,129)"
		stroke-opacity="1.0"
		stroke-width="1.0" />
	<path
		d="M337,145h1zM340,146h1zM378,251h1zM171,268h1z"
		stroke="rgb(6,6,6)"
		stroke-opacity="1.0"
		stroke-width="1.0" />
	<path
		d="M338,146h1zM197,257h1zM325,298h1z"
		stroke="rgb(141,141,141)"
		stroke-opacity="1.0"
		stroke-width="1.0" />
	<path
		d="M339,146h1zM383,229h1z"
		stroke="rgb(59,59,59)"
		stroke-opacity="1.0"
		stroke-width="1.0" />
	<path
		d="M340,147h1zM381,238h1z"
		stroke="rgb(197,197,197)"
		stroke-opacity="1.0"
		stroke-width="1.0" />
	<path
		d="M341,147h1z"
		stroke="rgb(97,97,97)"
		stroke-opacity="1.0"
		stroke-width="1.0" />
	<path
		d="M63,148h1zM451,154h1zM437,380h1zM85,395h1zM380,437h1zM374,441h1z"
		stroke="rgb(0,0,0)"
		stroke-opacity="0.1764706"
		stroke-width="1.0" />
	<path
		d="M342,148h1zM312,186h1zM379,191h1zM335,207h1z"
		stroke="rgb(226,226,226)"
		stroke-opacity="1.0"
		stroke-width="1.0" />
	<path
		d="M343,148h1zM379,190h1zM336,228h1zM380,244h1z"
		stroke="rgb(83,83,83)"
		stroke-opacity="1.0"
		stroke-width="1.0" />
	<path
		d="M344,148h1z"
		stroke="rgb(21,21,21)"
		stroke-opacity="1.0"
		stroke-width="1.0" />
	<path
		d="M344,149h1z"
		stroke="rgb(212,212,212)"
		stroke-opacity="1.0"
		stroke-width="1.0" />
	<path
		d="M345,149h1z"
		stroke="rgb(101,101,101)"
		stroke-opacity="1.0"
		stroke-width="1.0" />
	<path
		d="M448,149h1zM470,304h1z"
		stroke="rgb(0,0,0)"
		stroke-opacity="0.5529412"
		stroke-width="1.0" />
	<path
		d="M346,150h1zM337,223h1zM304,257h1z"
		stroke="rgb(217,217,217)"
		stroke-opacity="1.0"
		stroke-width="1.0" />
	<path
		d="M62,151h1zM415,406h1zM396,424h1z"
		stroke="rgb(0,0,0)"
		stroke-opacity="0.8745098"
		stroke-width="1.0" />
	<path
		d="M347,151h1zM358,159h1zM364,165h1zM313,186h1zM335,206h1zM335,235h1zM331,243h1zM376,253h1zM347,288h1z"
		stroke="rgb(254,254,254)"
		stroke-opacity="1.0"
		stroke-width="1.0" />
	<path
		d="M348,151h1zM382,203h1zM336,229h1zM169,272h1z"
		stroke="rgb(186,186,186)"
		stroke-opacity="1.0"
		stroke-width="1.0" />
	<path
		d="M349,151h1zM375,179h1zM383,230h1zM319,252h1zM167,275h1z"
		stroke="rgb(38,38,38)"
		stroke-opacity="1.0"
		stroke-width="1.0" />
	<path
		d="M350,152h1zM383,224h1z"
		stroke="rgb(96,96,96)"
		stroke-opacity="1.0"
		stroke-width="1.0" />
	<path
		d="M350,153h1zM306,257h1zM179,263h1zM171,270h1zM165,285h1zM308,300h1z"
		stroke="rgb(253,253,253)"
		stroke-opacity="1.0"
		stroke-width="1.0" />
	<path
		d="M351,153h1zM188,259h1zM178,263h1z"
		stroke="rgb(205,205,205)"
		stroke-opacity="1.0"
		stroke-width="1.0" />
	<path
		d="M352,153h1zM372,174h1zM332,202h1zM324,249h1zM168,273h1z"
		stroke="rgb(50,50,50)"
		stroke-opacity="1.0"
		stroke-width="1.0" />
	<path
		d="M352,154h1zM322,190h1zM382,208h1zM323,251h1zM321,252h1zM373,260h1zM342,291h1z"
		stroke="rgb(251,251,251)"
		stroke-opacity="1.0"
		stroke-width="1.0" />
	<path
		d="M353,154h1zM320,252h1zM176,264h1z"
		stroke="rgb(108,108,108)"
		stroke-opacity="1.0"
		stroke-width="1.0" />
	<path
		d="M354,154h1zM383,231h1zM178,262h1zM174,265h1z"
		stroke="rgb(13,13,13)"
		stroke-opacity="1.0"
		stroke-width="1.0" />
	<path
		d="M354,155h1zM378,188h1zM383,219h1z"
		stroke="rgb(198,198,198)"
		stroke-opacity="1.0"
		stroke-width="1.0" />
	<path
		d="M355,155h1zM344,291h1z"
		stroke="rgb(41,41,41)"
		stroke-opacity="1.0"
		stroke-width="1.0" />
	<path
		d="M356,156h1z"
		stroke="rgb(50,50,50)"
		stroke-opacity="0.99607843"
		stroke-width="1.0" />
	<path
		d="M357,156h1zM328,197h1zM332,203h1zM381,242h1zM175,264h1zM165,280h1zM348,289h1z"
		stroke="rgb(2,2,2)"
		stroke-opacity="1.0"
		stroke-width="1.0" />
	<path
		d="M356,157h1zM329,196h1zM333,202h1z"
		stroke="rgb(241,241,241)"
		stroke-opacity="1.0"
		stroke-width="1.0" />
	<path
		d="M357,157h1zM309,256h1z"
		stroke="rgb(128,128,128)"
		stroke-opacity="1.0"
		stroke-width="1.0" />
	<path
		d="M58,158h1zM474,281h1zM451,356h1zM87,397h1zM203,469h1zM216,472h1z"
		stroke="rgb(0,0,0)"
		stroke-opacity="0.3764706"
		stroke-width="1.0" />
	<path
		d="M359,158h1zM365,164h1zM377,183h1zM336,220h1zM330,242h1zM377,254h1z"
		stroke="rgb(15,15,15)"
		stroke-opacity="1.0"
		stroke-width="1.0" />
	<path
		d="M57,160h1zM462,331h1zM450,358h1zM189,465h1z"
		stroke="rgb(0,0,0)"
		stroke-opacity="0.5372549"
		stroke-width="1.0" />
	<path
		d="M360,160h1zM361,161h1zM362,162h1zM363,163h1zM337,222h1zM356,282h1z"
		stroke="rgb(208,208,208)"
		stroke-opacity="1.0"
		stroke-width="1.0" />
	<path
		d="M361,160h1zM363,162h1zM381,195h1z"
		stroke="rgb(19,19,19)"
		stroke-opacity="1.0"
		stroke-width="1.0" />
	<path
		d="M56,161h1zM52,170h1zM39,297h1zM429,391h1zM132,438h1zM291,473h1z"
		stroke="rgb(0,0,0)"
		stroke-opacity="0.09803922"
		stroke-width="1.0" />
	<path
		d="M454,162h1zM466,317h1z"
		stroke="rgb(0,0,0)"
		stroke-opacity="0.8980392"
		stroke-width="1.0" />
	<path
		d="M455,163h1zM142,444h1z"
		stroke="rgb(0,0,0)"
		stroke-opacity="0.44313726"
		stroke-width="1.0" />
	<path
		d="M55,165h1zM468,200h1zM45,319h1zM73,378h1zM200,468h1z"
		stroke="rgb(0,0,0)"
		stroke-opacity="0.76862746"
		stroke-width="1.0" />
	<path
		d="M365,165h1zM383,217h1z"
		stroke="rgb(184,184,184)"
		stroke-opacity="1.0"
		stroke-width="1.0" />
	<path
		d="M366,166h1z"
		stroke="rgb(136,136,136)"
		stroke-opacity="1.0"
		stroke-width="1.0" />
	<path
		d="M367,166h1zM168,272h1z"
		stroke="rgb(3,3,3)"
		stroke-opacity="1.0"
		stroke-width="1.0" />
	<path
		d="M366,167h1zM304,185h1zM328,246h1zM169,273h1zM357,281h1zM338,293h1z"
		stroke="rgb(242,242,242)"
		stroke-opacity="1.0"
		stroke-width="1.0" />
	<path
		d="M367,167h1zM327,195h1zM336,225h1z"
		stroke="rgb(56,56,56)"
		stroke-opacity="1.0"
		stroke-width="1.0" />
	<path
		d="M368,169h1z"
		stroke="rgb(214,214,214)"
		stroke-opacity="1.0"
		stroke-width="1.0" />
	<path
		d="M369,170h1zM163,185h1zM337,294h1z"
		stroke="rgb(119,119,119)"
		stroke-opacity="1.0"
		stroke-width="1.0" />
	<path
		d="M370,171h1z"
		stroke="rgb(118,118,118)"
		stroke-opacity="1.0"
		stroke-width="1.0" />
	<path
		d="M370,172h1zM331,199h1zM382,206h1z"
		stroke="rgb(213,213,213)"
		stroke-opacity="1.0"
		stroke-width="1.0" />
	<path
		d="M371,172h1zM330,199h1zM383,206h1z"
		stroke="rgb(22,22,22)"
		stroke-opacity="1.0"
		stroke-width="1.0" />
	<path
		d="M371,173h1zM332,201h1zM181,261h1z"
		stroke="rgb(154,154,154)"
		stroke-opacity="1.0"
		stroke-width="1.0" />
	<path
		d="M460,174h1zM461,177h1zM362,448h1zM223,473h1z"
		stroke="rgb(0,0,0)"
		stroke-opacity="0.27058825"
		stroke-width="1.0" />
	<path
		d="M51,175h1zM37,278h1zM121,429h1zM220,472h1z"
		stroke="rgb(0,0,0)"
		stroke-opacity="0.8901961"
		stroke-width="1.0" />
	<path
		d="M372,175h1zM368,269h1zM351,286h1z"
		stroke="rgb(202,202,202)"
		stroke-opacity="1.0"
		stroke-width="1.0" />
	<path
		d="M373,176h1zM165,281h1z"
		stroke="rgb(90,90,90)"
		stroke-opacity="1.0"
		stroke-width="1.0" />
	<path
		d="M373,177h1zM305,257h1zM372,262h1z"
		stroke="rgb(234,234,234)"
		stroke-opacity="1.0"
		stroke-width="1.0" />
	<path
		d="M374,178h1zM377,252h1zM318,253h1zM345,290h1z"
		stroke="rgb(163,163,163)"
		stroke-opacity="1.0"
		stroke-width="1.0" />
	<path
		d="M374,179h1zM382,230h1zM319,253h1zM167,277h1z"
		stroke="rgb(229,229,229)"
		stroke-opacity="1.0"
		stroke-width="1.0" />
	<path
		d="M375,180h1z"
		stroke="rgb(100,100,100)"
		stroke-opacity="1.0"
		stroke-width="1.0" />
	<path
		d="M462,180h1zM45,191h1zM464,325h1zM192,466h1z"
		stroke="rgb(0,0,0)"
		stroke-opacity="0.72156864"
		stroke-width="1.0" />
	<path
		d="M463,183h1zM49,332h1z"
		stroke="rgb(0,0,0)"
		stroke-opacity="0.54901963"
		stroke-width="1.0" />
	<path
		d="M377,184h1zM308,256h1z"
		stroke="rgb(66,66,66)"
		stroke-opacity="1.0"
		stroke-width="1.0" />
	<path
		d="M164,185h136zM175,265h1z"
		stroke="rgb(159,159,159)"
		stroke-opacity="1.0"
		stroke-width="1.0" />
	<path
		d="M300,185h1z"
		stroke="rgb(161,161,161)"
		stroke-opacity="1.0"
		stroke-width="1.0" />
	<path
		d="M301,185h1zM210,304h1z"
		stroke="rgb(177,177,177)"
		stroke-opacity="1.0"
		stroke-width="1.0" />
	<path
		d="M303,185h1z"
		stroke="rgb(218,218,218)"
		stroke-opacity="1.0"
		stroke-width="1.0" />
	<path
		d="M377,185h1z"
		stroke="rgb(179,179,179)"
		stroke-opacity="1.0"
		stroke-width="1.0" />
	<path
		d="M308,186h1z"
		stroke="rgb(54,54,54)"
		stroke-opacity="1.0"
		stroke-width="1.0" />
	<path
		d="M309,186h1z"
		stroke="rgb(148,148,148)"
		stroke-opacity="1.0"
		stroke-width="1.0" />
	<path
		d="M312,187h1zM334,207h1zM364,275h1z"
		stroke="rgb(35,35,35)"
		stroke-opacity="1.0"
		stroke-width="1.0" />
	<path
		d="M313,187h1zM163,298h1zM308,301h1z"
		stroke="rgb(62,62,62)"
		stroke-opacity="1.0"
		stroke-width="1.0" />
	<path
		d="M314,187h1zM319,189h1z"
		stroke="rgb(122,122,122)"
		stroke-opacity="1.0"
		stroke-width="1.0" />
	<path
		d="M315,187h1z"
		stroke="rgb(244,244,244)"
		stroke-opacity="1.0"
		stroke-width="1.0" />
	<path
		d="M378,187h1z"
		stroke="rgb(155,155,155)"
		stroke-opacity="1.0"
		stroke-width="1.0" />
	<path
		d="M316,188h1z"
		stroke="rgb(86,86,86)"
		stroke-opacity="1.0"
		stroke-width="1.0" />
	<path
		d="M379,188h1zM352,286h1zM311,301h1z"
		stroke="rgb(7,7,7)"
		stroke-opacity="1.0"
		stroke-width="1.0" />
	<path
		d="M378,189h1zM366,271h1z"
		stroke="rgb(246,246,246)"
		stroke-opacity="1.0"
		stroke-width="1.0" />
	<path
		d="M379,189h1zM329,244h1zM163,295h1z"
		stroke="rgb(55,55,55)"
		stroke-opacity="1.0"
		stroke-width="1.0" />
	<path
		d="M320,190h1z"
		stroke="rgb(27,27,27)"
		stroke-opacity="1.0"
		stroke-width="1.0" />
	<path
		d="M321,190h1zM172,268h1z"
		stroke="rgb(170,170,170)"
		stroke-opacity="1.0"
		stroke-width="1.0" />
	<path
		d="M323,191h1zM327,247h1zM367,270h1z"
		stroke="rgb(220,220,220)"
		stroke-opacity="1.0"
		stroke-width="1.0" />
	<path
		d="M325,192h1zM317,254h1zM353,284h1zM335,294h1zM210,303h1z"
		stroke="rgb(249,249,249)"
		stroke-opacity="1.0"
		stroke-width="1.0" />
	<path
		d="M324,193h1zM335,231h1zM374,260h1z"
		stroke="rgb(10,10,10)"
		stroke-opacity="1.0"
		stroke-width="1.0" />
	<path
		d="M325,193h1zM170,270h1z"
		stroke="rgb(85,85,85)"
		stroke-opacity="1.0"
		stroke-width="1.0" />
	<path
		d="M380,193h1z"
		stroke="rgb(120,120,120)"
		stroke-opacity="1.0"
		stroke-width="1.0" />
	<path
		d="M326,194h1zM315,254h1zM312,255h1zM335,295h1z"
		stroke="rgb(58,58,58)"
		stroke-opacity="1.0"
		stroke-width="1.0" />
	<path
		d="M327,194h1zM381,199h1zM333,239h1zM378,248h1zM360,278h1z"
		stroke="rgb(239,239,239)"
		stroke-opacity="1.0"
		stroke-width="1.0" />
	<path
		d="M380,195h1z"
		stroke="rgb(210,210,210)"
		stroke-opacity="1.0"
		stroke-width="1.0" />
	<path
		d="M328,196h1zM383,208h1z"
		stroke="rgb(60,60,60)"
		stroke-opacity="1.0"
		stroke-width="1.0" />
	<path
		d="M380,196h1zM375,256h1zM189,259h1z"
		stroke="rgb(248,248,248)"
		stroke-opacity="1.0"
		stroke-width="1.0" />
	<path
		d="M381,196h1zM189,258h1zM163,299h1zM163,300h1zM163,301h1zM163,302h1zM163,303h1zM163,304h1zM163,305h1zM163,306h1zM163,307h1zM163,308h1zM163,309h1zM163,310h1zM163,311h1zM163,312h1zM163,313h1zM163,314h1zM163,315h1zM163,316h1zM163,317h1zM163,318h1zM163,319h1zM163,320h1zM163,321h1zM163,322h1zM163,323h1zM163,324h1zM163,325h1zM163,326h1zM163,327h1zM163,328h1zM163,329h1zM163,330h1zM163,331h1zM163,332h1zM163,333h1zM163,334h1zM163,335h1zM163,336h1zM163,337h1zM163,338h1zM163,339h1zM163,340h1zM163,341h1zM163,342h1zM163,343h1zM163,344h1zM163,345h1zM163,346h1zM163,347h1zM163,348h1zM163,349h1zM163,350h1zM163,351h1zM163,352h1zM163,353h1zM163,354h1zM163,355h1zM163,356h1zM163,357h1zM163,358h1zM163,359h1zM163,360h1zM163,361h1zM163,362h1zM163,363h1zM163,364h1zM163,365h1zM163,366h1zM163,367h1zM163,368h1zM163,369h1zM163,370h1zM163,371h1zM163,372h1zM163,373h1zM163,374h1zM163,375h1zM163,376h1zM163,377h1zM163,378h1zM163,379h1zM163,380h1zM163,381h1zM163,382h1zM163,383h1zM163,384h1zM163,385h1zM163,386h1zM163,387h1zM163,388h1zM163,389h1zM163,390h1zM163,391h1zM163,392h1zM163,393h1zM163,394h1zM163,395h1zM163,396h1zM163,397h1zM163,398h1zM163,399h1zM163,400h1zM163,401h1zM163,402h1z"
		stroke="rgb(57,57,57)"
		stroke-opacity="1.0"
		stroke-width="1.0" />
	<path
		d="M467,196h1zM420,401h1z"
		stroke="rgb(0,0,0)"
		stroke-opacity="0.7176471"
		stroke-width="1.0" />
	<path
		d="M43,197h1zM399,422h1z"
		stroke="rgb(0,0,0)"
		stroke-opacity="0.3647059"
		stroke-width="1.0" />
	<path
		d="M329,197h1zM331,200h1zM343,291h1z"
		stroke="rgb(113,113,113)"
		stroke-opacity="1.0"
		stroke-width="1.0" />
	<path
		d="M330,198h1zM334,205h1z"
		stroke="rgb(189,189,189)"
		stroke-opacity="1.0"
		stroke-width="1.0" />
	<path
		d="M381,198h1zM365,273h1z"
		stroke="rgb(125,125,125)"
		stroke-opacity="1.0"
		stroke-width="1.0" />
	<path
		d="M468,198h1zM398,423h1zM210,471h1z"
		stroke="rgb(0,0,0)"
		stroke-opacity="0.19607843"
		stroke-width="1.0" />
	<path
		d="M382,201h1zM321,251h1z"
		stroke="rgb(23,23,23)"
		stroke-opacity="1.0"
		stroke-width="1.0" />
	<path
		d="M382,202h1z"
		stroke="rgb(117,117,117)"
		stroke-opacity="1.0"
		stroke-width="1.0" />
	<path
		d="M333,203h1zM380,242h1z"
		stroke="rgb(193,193,193)"
		stroke-opacity="1.0"
		stroke-width="1.0" />
	<path
		d="M382,207h1zM380,241h1zM325,249h1z"
		stroke="rgb(235,235,235)"
		stroke-opacity="1.0"
		stroke-width="1.0" />
	<path
		d="M383,207h1zM381,241h1zM325,248h1z"
		stroke="rgb(44,44,44)"
		stroke-opacity="1.0"
		stroke-width="1.0" />
	<path
		d="M335,209h1zM383,215h1zM335,232h1zM372,263h1z"
		stroke="rgb(138,138,138)"
		stroke-opacity="1.0"
		stroke-width="1.0" />
	<path
		d="M335,210h1zM336,221h1zM322,250h1zM314,254h1zM342,292h1z"
		stroke="rgb(12,12,12)"
		stroke-opacity="1.0"
		stroke-width="1.0" />
	<path
		d="M336,212h1zM379,246h1z"
		stroke="rgb(188,188,188)"
		stroke-opacity="1.0"
		stroke-width="1.0" />
	<path
		d="M471,212h1z"
		stroke="rgb(0,0,0)"
		stroke-opacity="0.35686275"
		stroke-width="1.0" />
	<path
		d="M383,213h1zM353,285h1zM347,289h1zM320,299h1z"
		stroke="rgb(82,82,82)"
		stroke-opacity="1.0"
		stroke-width="1.0" />
	<path
		d="M383,214h1z"
		stroke="rgb(114,114,114)"
		stroke-opacity="1.0"
		stroke-width="1.0" />
	<path
		d="M39,215h1zM294,472h1z"
		stroke="rgb(0,0,0)"
		stroke-opacity="0.6509804"
		stroke-width="1.0" />
	<path
		d="M336,216h1zM306,256h1zM183,260h1zM164,285h1z"
		stroke="rgb(61,61,61)"
		stroke-opacity="1.0"
		stroke-width="1.0" />
	<path
		d="M337,216h1zM183,261h1zM177,264h1zM327,297h1z"
		stroke="rgb(252,252,252)"
		stroke-opacity="1.0"
		stroke-width="1.0" />
	<path
		d="M383,216h1z"
		stroke="rgb(160,160,160)"
		stroke-opacity="1.0"
		stroke-width="1.0" />
	<path
		d="M336,217h1zM328,245h1zM362,277h1zM361,278h1zM360,279h1zM359,280h1z"
		stroke="rgb(47,47,47)"
		stroke-opacity="1.0"
		stroke-width="1.0" />
	<path
		d="M337,217h1zM329,245h1zM374,258h1zM358,280h1zM211,302h1z"
		stroke="rgb(238,238,238)"
		stroke-opacity="1.0"
		stroke-width="1.0" />
	<path
		d="M337,218h1zM165,284h1z"
		stroke="rgb(227,227,227)"
		stroke-opacity="1.0"
		stroke-width="1.0" />
	<path
		d="M383,218h1zM303,257h1z"
		stroke="rgb(203,203,203)"
		stroke-opacity="1.0"
		stroke-width="1.0" />
	<path
		d="M336,219h1zM304,256h1zM195,257h1z"
		stroke="rgb(25,25,25)"
		stroke-opacity="1.0"
		stroke-width="1.0" />
	<path
		d="M337,219h1zM192,258h1z"
		stroke="rgb(216,216,216)"
		stroke-opacity="1.0"
		stroke-width="1.0" />
	<path
		d="M383,220h1z"
		stroke="rgb(187,187,187)"
		stroke-opacity="1.0"
		stroke-width="1.0" />
	<path
		d="M337,221h1zM382,231h1zM322,251h1zM314,255h1zM166,279h1z"
		stroke="rgb(204,204,204)"
		stroke-opacity="1.0"
		stroke-width="1.0" />
	<path
		d="M383,221h1zM382,234h1z"
		stroke="rgb(174,174,174)"
		stroke-opacity="1.0"
		stroke-width="1.0" />
	<path
		d="M336,222h1z"
		stroke="rgb(17,17,17)"
		stroke-opacity="1.0"
		stroke-width="1.0" />
	<path
		d="M383,222h1z"
		stroke="rgb(162,162,162)"
		stroke-opacity="1.0"
		stroke-width="1.0" />
	<path
		d="M336,223h1z"
		stroke="rgb(26,26,26)"
		stroke-opacity="1.0"
		stroke-width="1.0" />
	<path
		d="M336,224h1zM327,246h1z"
		stroke="rgb(39,39,39)"
		stroke-opacity="1.0"
		stroke-width="1.0" />
	<path
		d="M337,224h1zM310,256h1z"
		stroke="rgb(230,230,230)"
		stroke-opacity="1.0"
		stroke-width="1.0" />
	<path
		d="M473,224h1zM36,271h1zM266,475h1z"
		stroke="rgb(0,0,0)"
		stroke-opacity="0.48235294"
		stroke-width="1.0" />
	<path
		d="M337,225h1z"
		stroke="rgb(247,247,247)"
		stroke-opacity="1.0"
		stroke-width="1.0" />
	<path
		d="M383,225h1zM163,297h1zM216,301h1z"
		stroke="rgb(68,68,68)"
		stroke-opacity="1.0"
		stroke-width="1.0" />
	<path
		d="M37,227h1zM244,475h1z"
		stroke="rgb(0,0,0)"
		stroke-opacity="0.41960785"
		stroke-width="1.0" />
	<path
		d="M334,234h1z"
		stroke="rgb(33,33,33)"
		stroke-opacity="1.0"
		stroke-width="1.0" />
	<path
		d="M382,235h1zM163,296h1z"
		stroke="rgb(75,75,75)"
		stroke-opacity="1.0"
		stroke-width="1.0" />
	<path
		d="M333,237h1z"
		stroke="rgb(40,40,40)"
		stroke-opacity="1.0"
		stroke-width="1.0" />
	<path
		d="M332,238h1zM380,245h1zM302,256h1zM375,259h1zM164,283h1z"
		stroke="rgb(1,1,1)"
		stroke-opacity="1.0"
		stroke-width="1.0" />
	<path
		d="M333,238h1zM302,257h1zM374,259h1zM165,283h1z"
		stroke="rgb(192,192,192)"
		stroke-opacity="1.0"
		stroke-width="1.0" />
	<path
		d="M332,239h1zM379,248h1zM322,299h1z"
		stroke="rgb(48,48,48)"
		stroke-opacity="1.0"
		stroke-width="1.0" />
	<path
		d="M381,239h1z"
		stroke="rgb(81,81,81)"
		stroke-opacity="1.0"
		stroke-width="1.0" />
	<path
		d="M331,241h1zM367,271h1z"
		stroke="rgb(69,69,69)"
		stroke-opacity="1.0"
		stroke-width="1.0" />
	<path
		d="M330,243h1z"
		stroke="rgb(126,126,126)"
		stroke-opacity="1.0"
		stroke-width="1.0" />
	<path
		d="M326,247h1zM166,277h1z"
		stroke="rgb(37,37,37)"
		stroke-opacity="1.0"
		stroke-width="1.0" />
	<path
		d="M379,247h1z"
		stroke="rgb(72,72,72)"
		stroke-opacity="1.0"
		stroke-width="1.0" />
	<path
		d="M326,248h1z"
		stroke="rgb(219,219,219)"
		stroke-opacity="1.0"
		stroke-width="1.0" />
	<path
		d="M378,249h1zM364,274h1zM336,294h1z"
		stroke="rgb(195,195,195)"
		stroke-opacity="1.0"
		stroke-width="1.0" />
	<path
		d="M323,250h1z"
		stroke="rgb(92,92,92)"
		stroke-opacity="1.0"
		stroke-width="1.0" />
	<path
		d="M316,254h1z"
		stroke="rgb(127,127,127)"
		stroke-opacity="1.0"
		stroke-width="1.0" />
	<path
		d="M376,254h1zM173,267h1zM164,403h46z"
		stroke="rgb(207,207,207)"
		stroke-opacity="1.0"
		stroke-width="1.0" />
	<path
		d="M313,255h1zM164,288h1z"
		stroke="rgb(176,176,176)"
		stroke-opacity="1.0"
		stroke-width="1.0" />
	<path
		d="M376,255h1z"
		stroke="rgb(150,150,150)"
		stroke-opacity="1.0"
		stroke-width="1.0" />
	<path
		d="M305,256h1zM340,293h1z"
		stroke="rgb(42,42,42)"
		stroke-opacity="1.0"
		stroke-width="1.0" />
	<path
		d="M196,257h1z"
		stroke="rgb(84,84,84)"
		stroke-opacity="1.0"
		stroke-width="1.0" />
	<path
		d="M375,257h1zM315,300h1z"
		stroke="rgb(104,104,104)"
		stroke-opacity="1.0"
		stroke-width="1.0" />
	<path
		d="M191,258h1z"
		stroke="rgb(113,113,113)"
		stroke-opacity="0.99607843"
		stroke-width="1.0" />
	<path
		d="M375,258h1zM358,281h1zM210,305h1zM163,403h1z"
		stroke="rgb(46,46,46)"
		stroke-opacity="1.0"
		stroke-width="1.0" />
	<path
		d="M184,260h1z"
		stroke="rgb(178,178,178)"
		stroke-opacity="1.0"
		stroke-width="1.0" />
	<path
		d="M373,261h1z"
		stroke="rgb(116,116,116)"
		stroke-opacity="1.0"
		stroke-width="1.0" />
	<path
		d="M179,262h1zM177,263h1z"
		stroke="rgb(74,74,74)"
		stroke-opacity="1.0"
		stroke-width="1.0" />
	<path
		d="M373,262h1z"
		stroke="rgb(43,43,43)"
		stroke-opacity="1.0"
		stroke-width="1.0" />
	<path
		d="M371,264h1zM310,300h1z"
		stroke="rgb(223,223,223)"
		stroke-opacity="1.0"
		stroke-width="1.0" />
	<path
		d="M475,264h1zM88,398h1zM394,426h1z"
		stroke="rgb(0,0,0)"
		stroke-opacity="0.58431375"
		stroke-width="1.0" />
	<path
		d="M173,266h1z"
		stroke="rgb(34,34,34)"
		stroke-opacity="1.0"
		stroke-width="1.0" />
	<path
		d="M174,266h1z"
		stroke="rgb(183,183,183)"
		stroke-opacity="1.0"
		stroke-width="1.0" />
	<path
		d="M370,266h1zM319,299h1z"
		stroke="rgb(172,172,172)"
		stroke-opacity="1.0"
		stroke-width="1.0" />
	<path
		d="M172,267h1zM163,294h1z"
		stroke="rgb(29,29,29)"
		stroke-opacity="1.0"
		stroke-width="1.0" />
	<path
		d="M370,267h1zM356,283h1z"
		stroke="rgb(28,28,28)"
		stroke-opacity="1.0"
		stroke-width="1.0" />
	<path
		d="M171,269h1z"
		stroke="rgb(149,149,149)"
		stroke-opacity="1.0"
		stroke-width="1.0" />
	<path
		d="M366,272h1z"
		stroke="rgb(142,142,142)"
		stroke-opacity="1.0"
		stroke-width="1.0" />
	<path
		d="M36,273h1zM40,301h1zM413,409h1z"
		stroke="rgb(0,0,0)"
		stroke-opacity="0.25490198"
		stroke-width="1.0" />
	<path
		d="M168,274h1z"
		stroke="rgb(165,165,165)"
		stroke-opacity="1.0"
		stroke-width="1.0" />
	<path
		d="M365,274h1z"
		stroke="rgb(16,16,16)"
		stroke-opacity="1.0"
		stroke-width="1.0" />
	<path
		d="M363,275h1zM362,276h1z"
		stroke="rgb(237,237,237)"
		stroke-opacity="1.0"
		stroke-width="1.0" />
	<path
		d="M37,284h1zM410,412h1zM408,414h1zM114,424h1z"
		stroke="rgb(0,0,0)"
		stroke-opacity="0.32156864"
		stroke-width="1.0" />
	<path
		d="M352,285h1zM344,290h1z"
		stroke="rgb(232,232,232)"
		stroke-opacity="1.0"
		stroke-width="1.0" />
	<path
		d="M164,287h1z"
		stroke="rgb(95,95,95)"
		stroke-opacity="1.0"
		stroke-width="1.0" />
	<path
		d="M350,287h1z"
		stroke="rgb(77,77,77)"
		stroke-opacity="1.0"
		stroke-width="1.0" />
	<path
		d="M348,288h1z"
		stroke="rgb(182,182,182)"
		stroke-opacity="1.0"
		stroke-width="1.0" />
	<path
		d="M38,289h1zM442,372h1zM372,442h1z"
		stroke="rgb(0,0,0)"
		stroke-opacity="0.47843137"
		stroke-width="1.0" />
	<path
		d="M346,289h1z"
		stroke="rgb(225,225,225)"
		stroke-opacity="1.0"
		stroke-width="1.0" />
	<path
		d="M340,292h1z"
		stroke="rgb(233,233,233)"
		stroke-opacity="1.0"
		stroke-width="1.0" />
	<path
		d="M339,293h1zM215,301h1z"
		stroke="rgb(98,98,98)"
		stroke-opacity="1.0"
		stroke-width="1.0" />
	<path
		d="M472,294h1zM468,312h1zM370,443h1zM264,475h1z"
		stroke="rgb(0,0,0)"
		stroke-opacity="0.6117647"
		stroke-width="1.0" />
	<path
		d="M334,295h1z"
		stroke="rgb(133,133,133)"
		stroke-opacity="1.0"
		stroke-width="1.0" />
	<path
		d="M332,296h1z"
		stroke="rgb(91,91,91)"
		stroke-opacity="1.0"
		stroke-width="1.0" />
	<path
		d="M330,297h1zM310,301h1z"
		stroke="rgb(32,32,32)"
		stroke-opacity="1.0"
		stroke-width="1.0" />
	<path
		d="M322,298h1z"
		stroke="rgb(240,240,240)"
		stroke-opacity="1.0"
		stroke-width="1.0" />
	<path
		d="M323,298h1z"
		stroke="rgb(200,200,200)"
		stroke-opacity="1.0"
		stroke-width="1.0" />
	<path
		d="M318,299h1z"
		stroke="rgb(245,245,245)"
		stroke-opacity="1.0"
		stroke-width="1.0" />
	<path
		d="M323,299h1z"
		stroke="rgb(8,8,8)"
		stroke-opacity="1.0"
		stroke-width="1.0" />
	<path
		d="M311,300h1z"
		stroke="rgb(199,199,199)"
		stroke-opacity="1.0"
		stroke-width="1.0" />
	<path
		d="M316,300h1z"
		stroke="rgb(18,18,18)"
		stroke-opacity="1.0"
		stroke-width="1.0" />
	<path
		d="M214,301h1z"
		stroke="rgb(171,171,171)"
		stroke-opacity="1.0"
		stroke-width="1.0" />
	<path
		d="M212,302h1z"
		stroke="rgb(135,135,135)"
		stroke-opacity="1.0"
		stroke-width="1.0" />
	<path
		d="M211,303h1z"
		stroke="rgb(89,89,89)"
		stroke-opacity="1.0"
		stroke-width="1.0" />
	<path
		d="M41,306h1z"
		stroke="rgb(0,0,0)"
		stroke-opacity="0.28627452"
		stroke-width="1.0" />
	<path
		d="M42,308h1zM125,432h1zM178,461h1z"
		stroke="rgb(0,0,0)"
		stroke-opacity="0.9137255"
		stroke-width="1.0" />
	<path
		d="M53,342h1zM123,431h1z"
		stroke="rgb(0,0,0)"
		stroke-opacity="0.5058824"
		stroke-width="1.0" />
	<path
		d="M55,346h1zM437,379h1z"
		stroke="rgb(0,0,0)"
		stroke-opacity="0.7019608"
		stroke-width="1.0" />
	<path
		d="M456,346h1zM381,436h1z"
		stroke="rgb(0,0,0)"
		stroke-opacity="0.38039216"
		stroke-width="1.0" />
	<path
		d="M60,357h1zM174,460h1z"
		stroke="rgb(0,0,0)"
		stroke-opacity="0.27450982"
		stroke-width="1.0" />
	<path
		d="M65,366h1zM72,377h1zM427,393h1zM393,427h1z"
		stroke="rgb(0,0,0)"
		stroke-opacity="0.40784314"
		stroke-width="1.0" />
	<path
		d="M440,375h1z"
		stroke="rgb(0,0,0)"
		stroke-opacity="0.46666667"
		stroke-width="1.0" />
	<path
		d="M436,380h1zM411,410h1zM380,436h1zM374,440h1z"
		stroke="rgb(0,0,0)"
		stroke-opacity="0.9254902"
		stroke-width="1.0" />
	<path
		d="M426,394h1zM315,467h1z"
		stroke="rgb(0,0,0)"
		stroke-opacity="0.5803922"
		stroke-width="1.0" />
	<path
		d="M421,400h1z"
		stroke="rgb(0,0,0)"
		stroke-opacity="0.4745098"
		stroke-width="1.0" />
	<path
		d="M92,403h1zM409,413h1zM195,467h1z"
		stroke="rgb(0,0,0)"
		stroke-opacity="0.2784314"
		stroke-width="1.0" />
	<path
		d="M107,418h1z"
		stroke="rgb(0,0,0)"
		stroke-opacity="0.41568628"
		stroke-width="1.0" />
	<path
		d="M384,434h1z"
		stroke="rgb(0,0,0)"
		stroke-opacity="0.36078432"
		stroke-width="1.0" />
	<path
		d="M375,440h1z"
		stroke="rgb(0,0,0)"
		stroke-opacity="0.4509804"
		stroke-width="1.0" />
	<path
		d="M149,448h1zM265,475h1z"
		stroke="rgb(0,0,0)"
		stroke-opacity="0.5411765"
		stroke-width="1.0" />
	<path
		d="M157,452h1z"
		stroke="rgb(0,0,0)"
		stroke-opacity="0.69411767"
		stroke-width="1.0" />
	<path
		d="M245,475h1z"
		stroke="rgb(0,0,0)"
		stroke-opacity="0.49803922"
		stroke-width="1.0" />
</svg>