<!-- Created by Apktool M – https://maximoff.su/apktool -->
<svg
	xmlns="http://www.w3.org/2000/svg"
	xmlns:xlink="http://www.w3.org/1999/xlink"
	version="1.1"
	width="512"
	height="512"
	viewBox="0 0 512 512">
	<path
		d="M0,0h512zM0,1h512zM0,2h512zM0,3h512zM0,4h512zM0,5h512zM0,6h512zM0,7h512zM0,8h512zM0,9h512zM0,10h512zM0,11h512zM0,12h512zM0,13h512zM0,14h512zM0,15h512zM0,16h512zM0,17h512zM0,18h512zM0,19h512zM0,20h512zM0,21h512zM0,22h512zM0,23h512zM0,24h512zM0,25h512zM0,26h512zM0,27h512zM0,28h512zM0,29h512zM0,30h512zM0,31h512zM0,32h512zM0,33h512zM0,34h512zM0,35h512zM0,36h512zM0,37h512zM0,38h512zM0,39h512zM0,40h512zM0,41h512zM0,42h512zM0,43h512zM0,44h512zM0,45h512zM0,46h512zM0,47h512zM0,48h512zM0,49h512zM0,50h512zM0,51h512zM0,52h512zM0,53h512zM0,54h512zM0,55h512zM0,56h512zM0,57h512zM0,58h512zM0,59h512zM0,60h512zM0,61h512zM0,62h512zM0,63h512zM0,64h512zM0,65h512zM0,66h512zM0,67h512zM0,68h512zM0,69h512zM0,70h512zM0,71h512zM0,72h512zM0,73h512zM0,74h512zM0,75h512zM0,76h512zM0,77h512zM0,78h512zM0,79h512zM0,80h512zM0,81h512zM0,82h512zM0,83h512zM0,84h512zM0,85h512zM0,86h512zM0,87h512zM0,88h512zM0,89h512zM0,90h512zM0,91h512zM0,92h512zM0,93h512zM0,94h512zM0,95h512zM0,96h512zM0,97h512zM0,98h128zM279,98h233zM0,99h127zM314,99h198zM0,100h127zM321,100h191zM0,101h127zM325,101h187zM0,102h127zM327,102h185zM0,103h127zM330,103h182zM0,104h127zM334,104h178zM0,105h127zM335,105h177zM0,106h127zM337,106h175zM0,107h127zM340,107h172zM0,108h127zM341,108h171zM0,109h127zM343,109h169zM0,110h127zM345,110h167zM0,111h127zM346,111h166zM0,112h127zM347,112h165zM0,113h127zM349,113h163zM0,114h127zM351,114h161zM0,115h127zM351,115h161zM0,116h127zM353,116h159zM0,117h127zM354,117h158zM0,118h127zM355,118h157zM0,119h127zM356,119h156zM0,120h127zM357,120h155zM0,121h127zM358,121h154zM0,122h127zM359,122h153zM0,123h127zM360,123h152zM0,124h127zM361,124h151zM0,125h127zM362,125h150zM0,126h127zM363,126h149zM0,127h127zM364,127h148zM0,128h127zM364,128h148zM0,129h127zM365,129h147zM0,130h127zM366,130h146zM0,131h127zM366,131h146zM0,132h127zM367,132h145zM0,133h127zM368,133h144zM0,134h127zM368,134h144zM0,135h127zM369,135h143zM0,136h127zM370,136h142zM0,137h127zM370,137h142zM0,138h127zM371,138h141zM0,139h127zM372,139h140zM0,140h127zM372,140h140zM0,141h127zM372,141h140zM0,142h127zM373,142h139zM0,143h127zM373,143h139zM0,144h127zM373,144h139zM0,145h127zM374,145h138zM0,146h127zM375,146h137zM0,147h127zM375,147h137zM0,148h127zM375,148h137zM0,149h127zM376,149h136zM0,150h127zM376,150h136zM0,151h127zM376,151h136zM0,152h127zM376,152h136zM0,153h127zM377,153h135zM0,154h127zM377,154h135zM0,155h127zM377,155h135zM0,156h127zM377,156h135zM0,157h127zM378,157h134zM0,158h127zM378,158h134zM0,159h127zM378,159h134zM0,160h127zM379,160h133zM0,161h127zM379,161h133zM0,162h127zM379,162h133zM0,163h127zM379,163h133zM0,164h127zM379,164h133zM0,165h127zM379,165h133zM0,166h127zM379,166h133zM0,167h127zM379,167h133zM0,168h127zM380,168h132zM0,169h127zM380,169h132zM0,170h127zM380,170h132zM0,171h127zM380,171h132zM0,172h127zM380,172h132zM0,173h127zM380,173h132zM0,174h127zM380,174h132zM0,175h127zM380,175h132zM0,176h127zM380,176h132zM0,177h127zM380,177h132zM0,178h127zM380,178h132zM0,179h127zM380,179h132zM0,180h127zM380,180h132zM0,181h127zM379,181h133zM0,182h127zM379,182h133zM0,183h127zM379,183h133zM0,184h127zM379,184h133zM0,185h127zM379,185h133zM0,186h127zM379,186h133zM0,187h127zM379,187h133zM0,188h127zM379,188h133zM0,189h127zM378,189h134zM0,190h127zM378,190h134zM0,191h127zM378,191h134zM0,192h127zM377,192h135zM0,193h127zM377,193h135zM0,194h127zM377,194h135zM0,195h127zM377,195h135zM0,196h127zM376,196h136zM0,197h127zM376,197h136zM0,198h127zM376,198h136zM0,199h127zM376,199h136zM0,200h127zM375,200h137zM0,201h127zM375,201h137zM0,202h127zM375,202h137zM0,203h127zM374,203h138zM0,204h127zM373,204h139zM0,205h127zM373,205h139zM0,206h127zM373,206h139zM0,207h127zM372,207h140zM0,208h127zM372,208h140zM0,209h127zM372,209h140zM0,210h127zM371,210h141zM0,211h127zM370,211h142zM0,212h127zM370,212h142zM0,213h127zM369,213h143zM0,214h127zM368,214h144zM0,215h127zM368,215h144zM0,216h127zM367,216h145zM0,217h127zM366,217h146zM0,218h127zM366,218h146zM0,219h127zM365,219h147zM0,220h127zM364,220h148zM0,221h127zM363,221h149zM0,222h127zM363,222h149zM0,223h127zM362,223h150zM0,224h127zM361,224h151zM0,225h127zM360,225h152zM0,226h127zM359,226h153zM0,227h127zM358,227h154zM0,228h127zM357,228h155zM0,229h127zM356,229h156zM0,230h127zM355,230h157zM0,231h127zM354,231h158zM0,232h127zM353,232h159zM0,233h127zM351,233h161zM0,234h127zM350,234h162zM0,235h127zM349,235h163zM0,236h127zM348,236h164zM0,237h127zM346,237h166zM0,238h127zM345,238h167zM0,239h127zM343,239h169zM0,240h127zM341,240h171zM0,241h127zM340,241h172zM0,242h127zM338,242h174zM0,243h127zM335,243h177zM0,244h127zM332,244h180zM0,245h127zM330,245h182zM0,246h127zM327,246h185zM0,247h127zM323,247h189zM0,248h127zM321,248h191zM0,249h127zM314,249h198zM0,250h127zM280,250h232zM0,251h127zM280,251h232zM0,252h127zM280,252h232zM0,253h127zM280,253h232zM0,254h127zM280,254h232zM0,255h127zM280,255h232zM0,256h127zM280,256h232zM0,257h127zM280,257h232zM0,258h127zM280,258h232zM0,259h127zM280,259h232zM0,260h127zM280,260h232zM0,261h127zM280,261h232zM0,262h127zM280,262h232zM0,263h127zM280,263h232zM0,264h127zM280,264h232zM0,265h127zM280,265h232zM0,266h127zM280,266h232zM0,267h127zM280,267h232zM0,268h127zM280,268h232zM0,269h127zM280,269h232zM0,270h127zM280,270h232zM0,271h127zM280,271h232zM0,272h127zM280,272h232zM0,273h127zM280,273h232zM0,274h127zM280,274h232zM0,275h127zM280,275h232zM0,276h127zM280,276h232zM0,277h127zM280,277h232zM0,278h127zM280,278h232zM0,279h127zM280,279h232zM0,280h127zM280,280h232zM0,281h127zM280,281h232zM0,282h127zM280,282h232zM0,283h127zM280,283h232zM0,284h127zM280,284h232zM0,285h127zM280,285h232zM0,286h127zM280,286h232zM0,287h127zM280,287h232zM0,288h127zM280,288h232zM0,289h127zM280,289h232zM0,290h127zM280,290h232zM0,291h127zM280,291h232zM0,292h127zM280,292h232zM0,293h127zM280,293h232zM0,294h127zM280,294h232zM0,295h127zM280,295h232zM0,296h127zM280,296h232zM0,297h127zM280,297h232zM0,298h127zM280,298h232zM0,299h127zM280,299h232zM0,300h127zM280,300h232zM0,301h127zM280,301h232zM0,302h127zM280,302h232zM0,303h127zM280,303h232zM0,304h127zM280,304h232zM0,305h127zM280,305h232zM0,306h127zM280,306h232zM0,307h127zM280,307h232zM0,308h127zM280,308h232zM0,309h127zM280,309h232zM0,310h127zM280,310h232zM0,311h127zM280,311h232zM0,312h127zM280,312h232zM0,313h127zM280,313h232zM0,314h127zM280,314h232zM0,315h127zM280,315h232zM0,316h127zM280,316h232zM0,317h127zM280,317h232zM0,318h127zM280,318h232zM0,319h127zM280,319h232zM0,320h127zM280,320h232zM0,321h127zM280,321h232zM0,322h127zM280,322h232zM0,323h127zM280,323h232zM0,324h127zM280,324h232zM0,325h127zM280,325h232zM0,326h127zM280,326h232zM0,327h127zM280,327h232zM0,328h127zM280,328h232zM0,329h127zM280,329h232zM0,330h127zM280,330h232zM0,331h127zM280,331h232zM0,332h127zM280,332h232zM0,333h127zM280,333h232zM0,334h127zM280,334h232zM0,335h127zM280,335h232zM0,336h127zM280,336h232zM0,337h127zM280,337h232zM0,338h127zM280,338h232zM0,339h127zM280,339h232zM0,340h127zM280,340h232zM0,341h127zM280,341h232zM0,342h127zM280,342h232zM0,343h127zM280,343h232zM0,344h127zM280,344h232zM0,345h127zM280,345h232zM0,346h127zM280,346h232zM0,347h127zM280,347h232zM0,348h127zM280,348h232zM0,349h128zM280,349h232zM0,350h128zM279,350h233zM0,351h128zM279,351h233zM0,352h128zM279,352h233zM0,353h128zM279,353h233zM0,354h128zM279,354h233zM0,355h128zM279,355h233zM0,356h129zM279,356h233zM0,357h129zM279,357h233zM0,358h129zM279,358h233zM0,359h129zM279,359h233zM0,360h129zM278,360h234zM0,361h129zM278,361h234zM0,362h129zM278,362h234zM0,363h130zM278,363h234zM0,364h130zM278,364h234zM0,365h130zM277,365h235zM0,366h130zM277,366h235zM0,367h131zM276,367h236zM0,368h131zM276,368h236zM0,369h132zM276,369h236zM0,370h132zM276,370h236zM0,371h132zM275,371h237zM0,372h132zM275,372h237zM0,373h133zM275,373h237zM0,374h133zM274,374h238zM0,375h134zM274,375h238zM0,376h134zM273,376h239zM0,377h135zM273,377h239zM0,378h135zM272,378h240zM0,379h135zM272,379h240zM0,380h136zM271,380h241zM0,381h136zM271,381h241zM0,382h137zM270,382h242zM0,383h137zM270,383h242zM0,384h138zM269,384h243zM0,385h139zM269,385h243zM0,386h139zM268,386h244zM0,387h140zM267,387h245zM0,388h140zM267,388h245zM0,389h142zM266,389h246zM0,390h142zM265,390h247zM0,391h143zM265,391h247zM0,392h143zM264,392h248zM0,393h145zM263,393h249zM0,394h145zM262,394h250zM0,395h146zM261,395h251zM0,396h147zM260,396h252zM0,397h148zM260,397h252zM0,398h149zM259,398h253zM0,399h150zM257,399h255zM0,400h151zM257,400h255zM0,401h152zM256,401h256zM0,402h153zM254,402h258zM0,403h154zM253,403h259zM0,404h155zM252,404h260zM0,405h156zM251,405h261zM0,406h158zM249,406h263zM0,407h159zM249,407h263zM0,408h161zM247,408h265zM0,409h162zM245,409h267zM0,410h164zM244,410h268zM0,411h165zM242,411h270zM0,412h168zM240,412h272zM0,413h169zM239,413h273zM0,414h171zM237,414h275zM0,415h173zM234,415h278zM0,416h175zM232,416h280zM0,417h178zM229,417h283zM0,418h182zM226,418h286zM0,419h186zM221,419h291zM0,420h189zM218,420h294zM0,421h197zM211,421h301zM0,422h512zM0,423h512zM0,424h512zM0,425h512zM0,426h512zM0,427h512zM0,428h512zM0,429h512zM0,430h512zM0,431h512zM0,432h512zM0,433h512zM0,434h512zM0,435h512zM0,436h512zM0,437h512zM0,438h512zM0,439h512zM0,440h512zM0,441h512zM0,442h512zM0,443h512zM0,444h512zM0,445h512zM0,446h512zM0,447h512zM0,448h512zM0,449h512zM0,450h512zM0,451h512zM0,452h512zM0,453h512zM0,454h512zM0,455h512zM0,456h512zM0,457h512zM0,458h512zM0,459h512zM0,460h512zM0,461h512zM0,462h512zM0,463h512zM0,464h512zM0,465h512zM0,466h512zM0,467h512zM0,468h512zM0,469h512zM0,470h512zM0,471h512zM0,472h512zM0,473h512zM0,474h512zM0,475h512zM0,476h512zM0,477h512zM0,478h512zM0,479h512zM0,480h512zM0,481h512zM0,482h512zM0,483h512zM0,484h512zM0,485h512zM0,486h512zM0,487h512zM0,488h512zM0,489h512zM0,490h512zM0,491h512zM0,492h512zM0,493h512zM0,494h512zM0,495h512zM0,496h512zM0,497h512zM0,498h512zM0,499h512zM0,500h512zM0,501h512zM0,502h512zM0,503h512zM0,504h512zM0,505h512zM0,506h512zM0,507h512zM0,508h512zM0,509h512zM0,510h512zM0,511h512z"
		stroke="none"
		stroke-width="1.0" />
	<path
		d="M128,98h1z"
		stroke="rgb(128,42,255)"
		stroke-opacity="0.047058824"
		stroke-width="1.0" />
	<path
		d="M129,98h150z"
		stroke="rgb(128,55,237)"
		stroke-opacity="0.05490196"
		stroke-width="1.0" />
	<path
		d="M127,99h1zM127,100h1zM127,101h1zM127,102h1zM127,103h1zM127,104h1zM127,105h1zM127,106h1zM127,107h1zM127,108h1zM127,109h1zM127,110h1zM127,111h1zM127,112h1zM127,113h1zM127,114h1zM127,115h1zM127,116h1zM127,117h1zM127,118h1zM127,119h1zM127,120h1zM127,121h1zM127,122h1zM127,123h1zM127,124h1zM127,125h1zM127,126h1zM127,127h1zM127,128h1zM127,129h1zM127,130h1zM127,131h1zM127,132h1zM127,133h1zM127,134h1zM127,135h1zM127,136h1zM127,137h1zM127,138h1zM127,139h1zM127,140h1zM127,141h1zM127,142h1zM127,143h1zM127,144h1zM127,145h1zM127,146h1zM127,147h1zM127,148h1zM127,149h1zM127,150h1zM127,151h1zM127,152h1zM127,153h1zM127,154h1zM127,155h1zM127,156h1zM127,157h1zM127,158h1zM127,159h1zM127,160h1zM127,161h1zM127,162h1zM127,163h1zM127,164h1zM127,165h1zM127,166h1zM127,167h1zM127,168h1zM127,169h1zM127,170h1zM127,171h1zM127,172h1zM127,173h1zM127,174h1zM127,175h1zM127,176h1zM127,177h1zM127,178h1zM127,179h1zM127,180h1zM127,181h1zM127,182h1zM127,183h1zM127,184h1zM127,185h1zM127,186h1zM127,187h1zM127,188h1zM127,189h1zM127,190h1zM127,191h1zM127,192h1zM127,193h1zM127,194h1zM127,195h1zM127,196h1zM127,197h1zM127,198h1zM127,199h1zM127,200h1zM127,201h1zM127,202h1zM127,203h1zM127,204h1zM127,205h1zM127,206h1zM127,207h1zM127,208h1zM127,209h1zM127,210h1zM127,211h1zM127,212h1zM127,213h1zM127,214h1zM127,215h1zM127,216h1zM127,217h1zM127,218h1zM127,219h1zM127,220h1zM127,221h1zM127,222h1zM127,223h1zM127,224h1zM127,225h1zM127,226h1zM127,227h1zM127,228h1zM127,229h1zM127,230h1zM127,231h1zM127,232h1zM127,233h1zM127,234h1zM127,235h1zM127,236h1zM127,237h1zM127,238h1zM127,239h1zM127,240h1zM127,241h1zM127,242h1zM127,243h1zM127,244h1zM127,245h1zM127,246h1zM127,247h1zM127,248h1zM127,249h1z"
		stroke="rgb(119,51,255)"
		stroke-opacity="0.05882353"
		stroke-width="1.0" />
	<path
		d="M128,99h1z"
		stroke="rgb(131,59,252)"
		stroke-opacity="0.8784314"
		stroke-width="1.0" />
	<path
		d="M129,99h150z"
		stroke="rgb(131,60,252)"
		stroke-opacity="0.96862745"
		stroke-width="1.0" />
	<path
		d="M279,99h1z"
		stroke="rgb(197,242,58)"
		stroke-opacity="0.7607843"
		stroke-width="1.0" />
	<path
		d="M280,99h27z"
		stroke="rgb(203,255,45)"
		stroke-opacity="0.7490196"
		stroke-width="1.0" />
	<path
		d="M307,99h1z"
		stroke="rgb(203,255,45)"
		stroke-opacity="0.7137255"
		stroke-width="1.0" />
	<path
		d="M308,99h1z"
		stroke="rgb(203,255,44)"
		stroke-opacity="0.6117647"
		stroke-width="1.0" />
	<path
		d="M309,99h1z"
		stroke="rgb(203,255,44)"
		stroke-opacity="0.49803922"
		stroke-width="1.0" />
	<path
		d="M310,99h1zM278,357h1z"
		stroke="rgb(203,255,43)"
		stroke-opacity="0.36862746"
		stroke-width="1.0" />
	<path
		d="M311,99h1z"
		stroke="rgb(202,255,40)"
		stroke-opacity="0.22745098"
		stroke-width="1.0" />
	<path
		d="M312,99h1zM233,415h1z"
		stroke="rgb(206,255,36)"
		stroke-opacity="0.08235294"
		stroke-width="1.0" />
	<path
		d="M313,99h1zM371,139h1zM370,210h1zM339,241h1zM277,364h1zM275,370h1zM132,372h1z"
		stroke="rgb(255,255,0)"
		stroke-opacity="0.007843138"
		stroke-width="1.0" />
	<path
		d="M128,100h1zM128,101h1zM128,102h1zM128,103h1zM128,104h1zM128,105h1zM128,106h1zM128,107h1zM128,108h1zM128,109h1zM128,110h1zM128,111h1zM128,112h1zM128,113h1zM128,114h1zM128,115h1zM128,116h1zM128,117h1zM128,118h1zM128,119h1zM128,120h1zM128,121h1zM128,122h1zM128,123h1zM128,124h1zM128,125h1zM128,126h1zM128,127h1zM128,128h1zM128,129h1zM128,130h1zM128,131h1zM128,132h1zM128,133h1zM128,134h1zM128,135h1zM128,136h1zM128,137h1zM128,138h1zM128,139h1zM128,140h1zM128,141h1zM128,142h1zM128,143h1zM128,144h1zM128,145h1zM128,146h1zM128,147h1zM128,148h1zM128,149h1zM128,150h1zM128,151h1zM128,152h1zM128,153h1zM128,154h1zM128,155h1zM128,156h1zM128,157h1zM128,158h1zM128,159h1zM128,160h1zM128,161h1zM128,162h1zM128,163h1zM128,164h1zM128,165h1zM128,166h1zM128,167h1zM128,168h1zM128,169h1zM128,170h1zM128,171h1zM128,172h1zM128,173h1zM128,174h1zM128,175h1zM128,176h1zM128,177h1zM128,178h1zM128,179h1zM128,180h1zM128,181h1zM128,182h1zM128,183h1zM128,184h1zM128,185h1zM128,186h1zM128,187h1zM128,188h1zM128,189h1zM128,190h1zM128,191h1zM128,192h1zM128,193h1zM128,194h1zM128,195h1zM128,196h1zM128,197h1zM128,198h1zM128,199h1zM128,200h1zM128,201h1zM128,202h1zM128,203h1zM128,204h1zM128,205h1zM128,206h1zM128,207h1zM128,208h1zM128,209h1zM128,210h1zM128,211h1zM128,212h1zM128,213h1zM128,214h1zM128,215h1zM128,216h1zM128,217h1zM128,218h1zM128,219h1zM128,220h1zM128,221h1zM128,222h1zM128,223h1zM128,224h1zM128,225h1zM128,226h1zM128,227h1zM128,228h1zM128,229h1zM128,230h1zM128,231h1zM128,232h1zM128,233h1zM128,234h1zM128,235h1zM128,236h1zM128,237h1zM128,238h1zM128,239h1zM128,240h1zM128,241h1zM128,242h1zM128,243h1zM128,244h1zM128,245h1zM128,246h1zM128,247h1zM128,248h1z"
		stroke="rgb(131,60,252)"
		stroke-opacity="0.9019608"
		stroke-width="1.0" />
	<path
		d="M129,100h150zM129,101h150zM129,102h150zM129,103h150zM129,104h150zM129,105h150zM129,106h150zM129,107h150zM129,108h150zM129,109h150zM129,110h150zM129,111h150zM129,112h150zM129,113h150zM129,114h150zM129,115h150zM129,116h150zM129,117h150zM129,118h150zM129,119h150zM129,120h150zM129,121h150zM129,122h150zM129,123h150zM129,124h150zM129,125h150zM129,126h150zM129,127h150zM129,128h150zM129,129h150zM129,130h150zM129,131h150zM129,132h150zM129,133h150zM129,134h150zM129,135h150zM129,136h150zM129,137h150zM129,138h150zM129,139h150zM129,140h150zM129,141h150zM129,142h150zM129,143h150zM129,144h150zM129,145h150zM129,146h150zM129,147h150zM129,148h150zM129,149h150zM129,150h150zM129,151h150zM129,152h150zM129,153h150zM129,154h150zM129,155h150zM129,156h150zM129,157h150zM129,158h150zM129,159h150zM129,160h150zM129,161h150zM129,162h150zM129,163h150zM129,164h150zM129,165h150zM129,166h150zM129,167h150zM129,168h150zM129,169h150zM129,170h150zM129,171h150zM129,172h150zM129,173h150zM129,174h150zM129,175h150zM129,176h150zM129,177h150zM129,178h150zM129,179h150zM129,180h150zM129,181h150zM129,182h150zM129,183h150zM129,184h150zM129,185h150zM129,186h150zM129,187h150zM129,188h150zM129,189h150zM129,190h150zM129,191h150zM129,192h150zM129,193h150zM129,194h150zM129,195h150zM129,196h150zM129,197h150zM129,198h150zM129,199h150zM129,200h150zM129,201h150zM129,202h150zM129,203h150zM129,204h150zM129,205h150zM129,206h150zM129,207h150zM129,208h150zM129,209h150zM129,210h150zM129,211h150zM129,212h150zM129,213h150zM129,214h150zM129,215h150zM129,216h150zM129,217h150zM129,218h150zM129,219h150zM129,220h150zM129,221h150zM129,222h150zM129,223h150zM129,224h150zM129,225h150zM129,226h150zM129,227h150zM129,228h150zM129,229h150zM129,230h150zM129,231h150zM129,232h150zM129,233h150zM129,234h150zM129,235h150zM129,236h150zM129,237h150zM129,238h150zM129,239h150zM129,240h150zM129,241h150zM129,242h150zM129,243h150zM129,244h150zM129,245h150zM129,246h150zM129,247h150zM129,248h150z"
		stroke="rgb(131,60,252)"
		stroke-opacity="1.0"
		stroke-width="1.0" />
	<path
		d="M279,100h1zM279,101h1zM279,102h1zM279,103h1zM279,104h1zM279,105h1zM279,106h1zM279,107h1zM279,108h1zM279,109h1zM279,110h1zM279,111h1zM279,112h1zM279,113h1zM279,114h1zM279,115h1zM279,116h1zM279,117h1zM279,118h1zM279,119h1zM279,120h1zM279,121h1zM279,122h1zM279,123h1zM279,124h1zM279,125h1zM279,126h1zM279,127h1zM279,128h1zM279,129h1zM279,130h1zM279,131h1zM279,132h1zM279,133h1zM279,134h1zM279,135h1zM279,136h1zM279,137h1zM279,138h1zM279,139h1zM279,140h1zM279,141h1zM279,142h1zM279,143h1zM279,144h1zM279,145h1zM279,146h1zM279,147h1zM279,148h1zM279,149h1zM279,150h1zM279,151h1zM279,152h1zM279,153h1zM279,154h1zM279,155h1zM279,156h1zM279,157h1zM279,158h1zM279,159h1zM279,160h1zM279,161h1zM279,162h1zM279,163h1zM279,164h1zM279,165h1zM279,166h1zM279,167h1zM279,168h1zM279,169h1zM279,170h1zM279,171h1zM279,172h1zM279,173h1zM279,174h1zM279,175h1zM279,176h1zM279,177h1zM279,178h1zM279,179h1zM279,180h1zM279,181h1zM279,182h1zM279,183h1zM279,184h1zM279,185h1zM279,186h1zM279,187h1zM279,188h1zM279,189h1zM279,190h1zM279,191h1zM279,192h1zM279,193h1zM279,194h1zM279,195h1zM279,196h1zM279,197h1zM279,198h1zM279,199h1zM279,200h1zM279,201h1zM279,202h1zM279,203h1zM279,204h1zM279,205h1zM279,206h1zM279,207h1zM279,208h1zM279,209h1zM279,210h1zM279,211h1zM279,212h1zM279,213h1zM279,214h1zM279,215h1zM279,216h1zM279,217h1zM279,218h1zM279,219h1zM279,220h1zM279,221h1zM279,222h1zM279,223h1zM279,224h1zM279,225h1zM279,226h1zM279,227h1zM279,228h1zM279,229h1zM279,230h1zM279,231h1zM279,232h1zM279,233h1zM279,234h1zM279,235h1zM279,236h1zM279,237h1zM279,238h1zM279,239h1zM279,240h1zM279,241h1zM279,242h1zM279,243h1zM279,244h1zM279,245h1zM279,246h1zM279,247h1zM279,248h1z"
		stroke="rgb(198,245,55)"
		stroke-opacity="1.0"
		stroke-width="1.0" />
	<path
		d="M280,100h32zM280,101h40zM280,102h43zM280,103h47zM280,104h50zM280,105h51zM280,106h54zM280,107h57zM280,108h59zM280,109h60zM280,110h63zM280,111h64zM280,112h65zM280,113h67zM280,114h69zM280,115h69zM280,116h71zM280,117h72zM280,118h73zM280,119h74zM280,120h76zM280,121h77zM280,122h77zM280,123h79zM280,124h80zM280,125h80zM280,126h81zM280,127h82zM280,128h83zM280,129h83zM280,130h85zM280,131h85zM280,132h86zM280,133h86zM280,134h87zM280,135h87zM280,136h88zM280,137h89zM280,138h89zM280,139h90zM280,140h90zM280,141h91zM280,142h91zM280,143h92zM280,144h92zM280,145h93zM280,146h93zM280,147h93zM280,148h94zM280,149h94zM280,150h95zM280,151h95zM280,152h95zM280,153h96zM280,154h96zM280,155h96zM280,156h96zM280,157h96zM280,158h97zM280,159h97zM280,160h97zM280,161h98zM280,162h98zM280,163h98zM280,164h98zM280,165h98zM280,166h98zM280,167h98zM280,168h98zM280,169h99zM280,170h99zM280,171h99zM280,172h99zM280,173h99zM280,174h99zM280,175h99zM280,176h99zM280,177h99zM280,178h99zM280,179h99zM280,180h98zM280,181h98zM280,182h98zM280,183h98zM280,184h98zM280,185h98zM280,186h98zM280,187h98zM280,188h97zM280,189h97zM280,190h97zM280,191h96zM280,192h96zM280,193h96zM280,194h96zM280,195h96zM280,196h95zM280,197h95zM280,198h95zM280,199h95zM280,200h94zM280,201h93zM280,202h93zM280,203h93zM280,204h92zM280,205h92zM280,206h91zM280,207h91zM280,208h90zM280,209h90zM280,210h89zM280,211h89zM280,212h88zM280,213h87zM280,214h87zM280,215h86zM280,216h86zM280,217h85zM280,218h84zM280,219h83zM280,220h83zM280,221h82zM280,222h81zM280,223h80zM280,224h79zM280,225h79zM280,226h77zM280,227h76zM280,228h76zM280,229h74zM280,230h73zM280,231h72zM280,232h71zM280,233h69zM280,234h68zM280,235h67zM280,236h65zM280,237h63zM280,238h63zM280,239h60zM280,240h58zM280,241h57zM280,242h54zM280,243h51zM280,244h50zM280,245h47zM280,246h43zM280,247h38zM280,248h32zM129,250h150zM129,251h150zM129,252h150zM129,253h150zM129,254h150zM129,255h150zM129,256h150zM129,257h150zM129,258h150zM129,259h150zM129,260h150zM129,261h150zM129,262h150zM129,263h150zM129,264h150zM129,265h150zM129,266h150zM129,267h150zM129,268h150zM129,269h150zM129,270h150zM129,271h150zM129,272h150zM129,273h150zM129,274h150zM129,275h150zM129,276h150zM129,277h150zM129,278h150zM129,279h150zM129,280h150zM129,281h150zM129,282h150zM129,283h150zM129,284h150zM129,285h150zM129,286h150zM129,287h150zM129,288h150zM129,289h150zM129,290h150zM129,291h150zM129,292h150zM129,293h150zM129,294h150zM129,295h150zM129,296h150zM129,297h150zM129,298h150zM129,299h150zM129,300h150zM129,301h150zM129,302h150zM129,303h150zM129,304h150zM129,305h150zM129,306h150zM129,307h150zM129,308h150zM129,309h150zM129,310h150zM129,311h150zM129,312h150zM129,313h150zM129,314h150zM129,315h150zM129,316h150zM129,317h150zM129,318h150zM129,319h150zM129,320h150zM129,321h150zM129,322h150zM129,323h150zM129,324h150zM129,325h150zM129,326h150zM129,327h150zM129,328h150zM129,329h150zM129,330h150zM129,331h150zM129,332h150zM129,333h150zM129,334h150zM129,335h150zM129,336h150zM129,337h150zM129,338h150zM129,339h150zM129,340h150zM129,341h150zM129,342h150zM129,343h150zM129,344h150zM129,345h150zM129,346h150zM129,347h150zM129,348h150zM129,349h150zM129,350h149zM129,351h149zM129,352h149zM129,353h149zM129,354h149zM129,355h149zM129,356h149zM130,357h148zM130,358h148zM130,359h147zM130,360h147zM130,361h147zM130,362h147zM131,363h145zM131,364h145zM132,365h144zM132,366h144zM132,367h143zM132,368h143zM133,369h142zM133,370h141zM133,371h141zM134,372h139zM135,373h138zM135,374h138zM135,375h137zM136,376h136zM136,377h136zM136,378h135zM137,379h134zM137,380h133zM138,381h131zM139,382h130zM139,383h129zM139,384h129zM140,385h127zM141,386h125zM142,387h124zM142,388h123zM143,389h121zM143,390h121zM145,391h118zM145,392h117zM146,393h115zM147,394h113zM148,395h111zM149,396h109zM149,397h109zM150,398h107zM152,399h103zM152,400h103zM154,401h99zM155,402h97zM156,403h96zM157,404h93zM159,405h90zM160,406h87zM162,407h84zM163,408h81zM165,409h77zM166,410h76zM168,411h72zM171,412h66zM172,413h64zM174,414h59zM177,415h53zM178,416h51zM182,417h44zM187,418h34zM189,419h29zM197,420h13z"
		stroke="rgb(203,255,46)"
		stroke-opacity="1.0"
		stroke-width="1.0" />
	<path
		d="M312,100h1zM331,105h1zM349,115h1zM367,135h1zM371,142h1zM373,147h1zM376,157h1zM377,160h1zM378,168h1zM377,188h1zM376,191h1zM367,213h1zM349,233h1zM338,240h1zM331,243h1zM312,248h1zM274,370h1zM134,373h1zM135,376h1zM144,391h1zM258,396h1zM255,399h1zM247,406h1zM161,407h1zM244,408h1zM242,409h1zM170,412h1zM186,418h1z"
		stroke="rgb(203,255,45)"
		stroke-opacity="0.99607843"
		stroke-width="1.0" />
	<path
		d="M313,100h1zM221,418h1z"
		stroke="rgb(203,255,45)"
		stroke-opacity="0.9843137"
		stroke-width="1.0" />
	<path
		d="M314,100h1zM369,210h1z"
		stroke="rgb(202,255,45)"
		stroke-opacity="0.9254902"
		stroke-width="1.0" />
	<path
		d="M315,100h1zM321,101h1z"
		stroke="rgb(203,255,45)"
		stroke-opacity="0.73333335"
		stroke-width="1.0" />
	<path
		d="M316,100h1zM372,205h1z"
		stroke="rgb(202,255,45)"
		stroke-opacity="0.49411765"
		stroke-width="1.0" />
	<path
		d="M317,100h1zM275,369h1z"
		stroke="rgb(202,255,44)"
		stroke-opacity="0.43137255"
		stroke-width="1.0" />
	<path
		d="M318,100h1z"
		stroke="rgb(205,255,43)"
		stroke-opacity="0.3019608"
		stroke-width="1.0" />
	<path
		d="M319,100h1zM312,249h1z"
		stroke="rgb(197,255,35)"
		stroke-opacity="0.08627451"
		stroke-width="1.0" />
	<path
		d="M320,100h1zM333,104h1zM248,407h1z"
		stroke="rgb(0,255,0)"
		stroke-opacity="0.003921569"
		stroke-width="1.0" />
	<path
		d="M320,101h1zM366,215h1z"
		stroke="rgb(203,255,45)"
		stroke-opacity="0.9529412"
		stroke-width="1.0" />
	<path
		d="M322,101h1z"
		stroke="rgb(204,255,44)"
		stroke-opacity="0.13725491"
		stroke-width="1.0" />
	<path
		d="M323,101h1zM342,239h1zM128,355h1z"
		stroke="rgb(202,255,42)"
		stroke-opacity="0.09411765"
		stroke-width="1.0" />
	<path
		d="M324,101h1zM264,391h1z"
		stroke="rgb(212,255,42)"
		stroke-opacity="0.023529412"
		stroke-width="1.0" />
	<path
		d="M323,102h1z"
		stroke="rgb(203,255,45)"
		stroke-opacity="0.95686275"
		stroke-width="1.0" />
	<path
		d="M324,102h1z"
		stroke="rgb(202,255,45)"
		stroke-opacity="0.8509804"
		stroke-width="1.0" />
	<path
		d="M325,102h1z"
		stroke="rgb(204,255,44)"
		stroke-opacity="0.72156864"
		stroke-width="1.0" />
	<path
		d="M326,102h1z"
		stroke="rgb(204,255,38)"
		stroke-opacity="0.15686275"
		stroke-width="1.0" />
	<path
		d="M327,103h1zM360,223h1zM195,420h1z"
		stroke="rgb(203,255,46)"
		stroke-opacity="0.8784314"
		stroke-width="1.0" />
	<path
		d="M328,103h1zM139,385h1z"
		stroke="rgb(203,255,44)"
		stroke-opacity="0.5411765"
		stroke-width="1.0" />
	<path
		d="M329,103h1z"
		stroke="rgb(201,255,44)"
		stroke-opacity="0.31764707"
		stroke-width="1.0" />
	<path
		d="M330,104h1zM360,125h1zM361,126h1z"
		stroke="rgb(202,255,45)"
		stroke-opacity="0.92941177"
		stroke-width="1.0" />
	<path
		d="M331,104h1zM357,227h1z"
		stroke="rgb(204,255,43)"
		stroke-opacity="0.41568628"
		stroke-width="1.0" />
	<path
		d="M332,104h1zM340,108h1zM131,368h1z"
		stroke="rgb(203,255,41)"
		stroke-opacity="0.17254902"
		stroke-width="1.0" />
	<path
		d="M332,105h1zM354,119h1zM363,129h1zM364,218h1zM354,229h1zM129,357h1zM138,382h1zM164,409h1zM237,412h1z"
		stroke="rgb(203,255,46)"
		stroke-opacity="0.98039216"
		stroke-width="1.0" />
	<path
		d="M333,105h1z"
		stroke="rgb(203,255,45)"
		stroke-opacity="0.8509804"
		stroke-width="1.0" />
	<path
		d="M334,105h1zM199,421h1z"
		stroke="rgb(200,255,36)"
		stroke-opacity="0.10980392"
		stroke-width="1.0" />
	<path
		d="M334,106h1zM318,247h1zM253,401h1z"
		stroke="rgb(203,255,46)"
		stroke-opacity="0.9882353"
		stroke-width="1.0" />
	<path
		d="M335,106h1zM376,193h1z"
		stroke="rgb(203,255,45)"
		stroke-opacity="0.77254903"
		stroke-width="1.0" />
	<path
		d="M336,106h1zM356,228h1z"
		stroke="rgb(201,255,43)"
		stroke-opacity="0.37254903"
		stroke-width="1.0" />
	<path
		d="M337,107h1zM262,392h1zM229,416h1z"
		stroke="rgb(203,255,45)"
		stroke-opacity="0.84313726"
		stroke-width="1.0" />
	<path
		d="M338,107h1z"
		stroke="rgb(201,255,44)"
		stroke-opacity="0.29803923"
		stroke-width="1.0" />
	<path
		d="M339,107h1zM258,398h1z"
		stroke="rgb(182,255,36)"
		stroke-opacity="0.02745098"
		stroke-width="1.0" />
	<path
		d="M339,108h1zM372,204h1z"
		stroke="rgb(203,255,45)"
		stroke-opacity="0.9372549"
		stroke-width="1.0" />
	<path
		d="M340,109h1zM373,201h1zM340,239h1zM131,365h1zM264,389h1zM260,394h1zM153,401h1z"
		stroke="rgb(203,255,46)"
		stroke-opacity="0.9843137"
		stroke-width="1.0" />
	<path
		d="M341,109h1z"
		stroke="rgb(202,255,46)"
		stroke-opacity="0.72156864"
		stroke-width="1.0" />
	<path
		d="M342,109h1zM348,113h1zM379,178h1zM147,396h1z"
		stroke="rgb(201,255,39)"
		stroke-opacity="0.12941177"
		stroke-width="1.0" />
	<path
		d="M343,110h1z"
		stroke="rgb(203,255,44)"
		stroke-opacity="0.5019608"
		stroke-width="1.0" />
	<path
		d="M344,110h1zM375,199h1zM369,212h1zM209,421h1z"
		stroke="rgb(198,255,28)"
		stroke-opacity="0.03529412"
		stroke-width="1.0" />
	<path
		d="M344,111h1zM136,379h1zM162,408h1zM243,409h1z"
		stroke="rgb(203,255,45)"
		stroke-opacity="0.90588236"
		stroke-width="1.0" />
	<path
		d="M345,111h1zM237,413h1z"
		stroke="rgb(197,255,41)"
		stroke-opacity="0.12156863"
		stroke-width="1.0" />
	<path
		d="M345,112h1zM368,212h1zM345,236h1zM277,359h1z"
		stroke="rgb(203,255,45)"
		stroke-opacity="0.98039216"
		stroke-width="1.0" />
	<path
		d="M346,112h1z"
		stroke="rgb(203,255,45)"
		stroke-opacity="0.5764706"
		stroke-width="1.0" />
	<path
		d="M347,113h1zM238,412h1z"
		stroke="rgb(202,255,44)"
		stroke-opacity="0.8117647"
		stroke-width="1.0" />
	<path
		d="M349,114h1z"
		stroke="rgb(205,255,44)"
		stroke-opacity="0.36078432"
		stroke-width="1.0" />
	<path
		d="M350,114h1zM379,180h1zM347,236h1zM135,379h1zM259,397h1zM173,415h1z"
		stroke="rgb(128,255,0)"
		stroke-opacity="0.007843138"
		stroke-width="1.0" />
	<path
		d="M350,115h1zM234,414h1z"
		stroke="rgb(203,255,44)"
		stroke-opacity="0.6392157"
		stroke-width="1.0" />
	<path
		d="M351,116h1z"
		stroke="rgb(203,255,46)"
		stroke-opacity="0.76862746"
		stroke-width="1.0" />
	<path
		d="M352,116h1z"
		stroke="rgb(206,255,41)"
		stroke-opacity="0.12156863"
		stroke-width="1.0" />
	<path
		d="M352,117h1zM273,373h1zM185,418h1z"
		stroke="rgb(202,255,45)"
		stroke-opacity="0.9490196"
		stroke-width="1.0" />
	<path
		d="M353,117h1zM228,417h1z"
		stroke="rgb(198,255,42)"
		stroke-opacity="0.14117648"
		stroke-width="1.0" />
	<path
		d="M353,118h1zM369,138h1zM376,192h1zM356,227h1zM330,244h1zM276,363h1zM267,385h1z"
		stroke="rgb(203,255,45)"
		stroke-opacity="0.9490196"
		stroke-width="1.0" />
	<path
		d="M354,118h1zM379,171h1zM379,177h1zM326,246h1zM130,365h1z"
		stroke="rgb(200,255,42)"
		stroke-opacity="0.16470589"
		stroke-width="1.0" />
	<path
		d="M355,119h1zM358,226h1zM179,417h1z"
		stroke="rgb(202,255,44)"
		stroke-opacity="0.3372549"
		stroke-width="1.0" />
	<path
		d="M356,120h1z"
		stroke="rgb(204,255,44)"
		stroke-opacity="0.43137255"
		stroke-width="1.0" />
	<path
		d="M357,121h1zM224,418h1z"
		stroke="rgb(202,255,43)"
		stroke-opacity="0.41568628"
		stroke-width="1.0" />
	<path
		d="M357,122h1zM370,140h1zM378,181h1zM377,189h1zM375,196h1zM252,402h1z"
		stroke="rgb(203,255,45)"
		stroke-opacity="0.972549"
		stroke-width="1.0" />
	<path
		d="M358,122h1z"
		stroke="rgb(202,255,42)"
		stroke-opacity="0.38039216"
		stroke-width="1.0" />
	<path
		d="M359,123h1z"
		stroke="rgb(201,255,43)"
		stroke-opacity="0.34901962"
		stroke-width="1.0" />
	<path
		d="M360,124h1zM378,187h1z"
		stroke="rgb(198,255,40)"
		stroke-opacity="0.1764706"
		stroke-width="1.0" />
	<path
		d="M361,125h1zM338,241h1zM176,416h1z"
		stroke="rgb(198,255,28)"
		stroke-opacity="0.07058824"
		stroke-width="1.0" />
	<path
		d="M362,126h1z"
		stroke="rgb(207,255,40)"
		stroke-opacity="0.1254902"
		stroke-width="1.0" />
	<path
		d="M362,127h1zM374,148h1z"
		stroke="rgb(203,255,44)"
		stroke-opacity="0.69803923"
		stroke-width="1.0" />
	<path
		d="M363,127h1zM379,168h1zM279,349h1zM278,359h1zM266,388h1zM143,392h1zM156,405h1zM238,413h1z"
		stroke="rgb(170,255,0)"
		stroke-opacity="0.011764706"
		stroke-width="1.0" />
	<path
		d="M363,128h1z"
		stroke="rgb(202,255,44)"
		stroke-opacity="0.5647059"
		stroke-width="1.0" />
	<path
		d="M364,129h1zM378,162h1zM378,186h1z"
		stroke="rgb(203,255,45)"
		stroke-opacity="0.2901961"
		stroke-width="1.0" />
	<path
		d="M365,130h1zM159,407h1z"
		stroke="rgb(198,255,38)"
		stroke-opacity="0.105882354"
		stroke-width="1.0" />
	<path
		d="M365,131h1zM265,388h1z"
		stroke="rgb(203,255,45)"
		stroke-opacity="0.79607844"
		stroke-width="1.0" />
	<path
		d="M366,132h1z"
		stroke="rgb(203,255,43)"
		stroke-opacity="0.4392157"
		stroke-width="1.0" />
	<path
		d="M366,133h1zM359,224h1z"
		stroke="rgb(203,255,45)"
		stroke-opacity="0.94509804"
		stroke-width="1.0" />
	<path
		d="M367,133h1zM379,169h1zM365,218h1zM345,237h1z"
		stroke="rgb(204,255,38)"
		stroke-opacity="0.078431375"
		stroke-width="1.0" />
	<path
		d="M367,134h1zM337,241h1zM250,404h1z"
		stroke="rgb(202,255,45)"
		stroke-opacity="0.8901961"
		stroke-width="1.0" />
	<path
		d="M368,135h1z"
		stroke="rgb(201,255,45)"
		stroke-opacity="0.33333334"
		stroke-width="1.0" />
	<path
		d="M368,136h1zM375,152h1zM377,159h1zM378,167h1zM275,367h1zM233,414h1z"
		stroke="rgb(203,255,45)"
		stroke-opacity="0.9764706"
		stroke-width="1.0" />
	<path
		d="M369,136h1zM208,421h1z"
		stroke="rgb(194,255,36)"
		stroke-opacity="0.08235294"
		stroke-width="1.0" />
	<path
		d="M369,137h1zM373,145h1z"
		stroke="rgb(203,255,44)"
		stroke-opacity="0.57254905"
		stroke-width="1.0" />
	<path
		d="M370,138h1zM371,209h1zM337,242h1zM320,248h1zM127,250h1zM127,251h1zM127,252h1zM127,253h1zM127,254h1zM127,255h1zM127,256h1zM127,257h1zM127,258h1zM127,259h1zM127,260h1zM127,261h1zM127,262h1zM127,263h1zM127,264h1zM127,265h1zM127,266h1zM127,267h1zM127,268h1zM127,269h1zM127,270h1zM127,271h1zM127,272h1zM127,273h1zM127,274h1zM127,275h1zM127,276h1zM127,277h1zM127,278h1zM127,279h1zM127,280h1zM127,281h1zM127,282h1zM127,283h1zM127,284h1zM127,285h1zM127,286h1zM127,287h1zM127,288h1zM127,289h1zM127,290h1zM127,291h1zM127,292h1zM127,293h1zM127,294h1zM127,295h1zM127,296h1zM127,297h1zM127,298h1zM127,299h1zM127,300h1zM127,301h1zM127,302h1zM127,303h1zM127,304h1zM127,305h1zM127,306h1zM127,307h1zM127,308h1zM127,309h1zM127,310h1zM127,311h1zM127,312h1zM127,313h1zM127,314h1zM127,315h1zM127,316h1zM127,317h1zM127,318h1zM127,319h1zM127,320h1zM127,321h1zM127,322h1zM127,323h1zM127,324h1zM127,325h1zM127,326h1zM127,327h1zM127,328h1zM127,329h1zM127,330h1zM127,331h1zM127,332h1zM127,333h1zM127,334h1zM127,335h1zM127,336h1zM127,337h1zM127,338h1zM127,339h1zM127,340h1zM127,341h1zM127,342h1zM127,343h1zM127,344h1zM127,345h1zM127,346h1zM127,347h1zM127,348h1zM137,383h1zM140,388h1zM236,414h1zM210,421h1z"
		stroke="rgb(255,255,0)"
		stroke-opacity="0.003921569"
		stroke-width="1.0" />
	<path
		d="M370,139h1zM376,155h1z"
		stroke="rgb(203,255,46)"
		stroke-opacity="0.7882353"
		stroke-width="1.0" />
	<path
		d="M371,140h1zM360,224h1zM220,419h1z"
		stroke="rgb(201,255,40)"
		stroke-opacity="0.14901961"
		stroke-width="1.0" />
	<path
		d="M371,141h1z"
		stroke="rgb(203,255,45)"
		stroke-opacity="0.7254902"
		stroke-width="1.0" />
	<path
		d="M372,142h1z"
		stroke="rgb(202,255,42)"
		stroke-opacity="0.1882353"
		stroke-width="1.0" />
	<path
		d="M372,143h1z"
		stroke="rgb(203,255,45)"
		stroke-opacity="0.5529412"
		stroke-width="1.0" />
	<path
		d="M372,144h1zM352,231h1zM314,248h1zM173,414h1z"
		stroke="rgb(203,255,45)"
		stroke-opacity="0.9607843"
		stroke-width="1.0" />
	<path
		d="M373,146h1zM142,389h1z"
		stroke="rgb(203,255,45)"
		stroke-opacity="0.85882354"
		stroke-width="1.0" />
	<path
		d="M374,146h1zM231,416h1z"
		stroke="rgb(191,255,32)"
		stroke-opacity="0.03137255"
		stroke-width="1.0" />
	<path
		d="M374,147h1zM137,382h1zM146,395h1zM153,402h1z"
		stroke="rgb(203,255,39)"
		stroke-opacity="0.15294118"
		stroke-width="1.0" />
	<path
		d="M374,149h1zM378,180h1zM371,206h1zM334,242h1zM313,248h1zM273,372h1zM141,387h1zM159,406h1zM171,413h1zM176,415h1zM210,420h1z"
		stroke="rgb(203,255,45)"
		stroke-opacity="0.99215686"
		stroke-width="1.0" />
	<path
		d="M375,149h1zM378,160h1zM243,410h1z"
		stroke="rgb(207,255,32)"
		stroke-opacity="0.0627451"
		stroke-width="1.0" />
	<path
		d="M375,150h1zM277,361h1z"
		stroke="rgb(201,255,44)"
		stroke-opacity="0.40784314"
		stroke-width="1.0" />
	<path
		d="M375,151h1z"
		stroke="rgb(203,255,44)"
		stroke-opacity="0.63529414"
		stroke-width="1.0" />
	<path
		d="M376,153h1z"
		stroke="rgb(202,255,42)"
		stroke-opacity="0.28235295"
		stroke-width="1.0" />
	<path
		d="M376,154h1z"
		stroke="rgb(204,255,44)"
		stroke-opacity="0.6627451"
		stroke-width="1.0" />
	<path
		d="M376,156h1zM370,208h1zM357,226h1zM133,372h1zM266,386h1zM158,405h1z"
		stroke="rgb(203,255,46)"
		stroke-opacity="0.9647059"
		stroke-width="1.0" />
	<path
		d="M377,157h1z"
		stroke="rgb(191,255,21)"
		stroke-opacity="0.047058824"
		stroke-width="1.0" />
	<path
		d="M377,158h1z"
		stroke="rgb(203,255,43)"
		stroke-opacity="0.67058825"
		stroke-width="1.0" />
	<path
		d="M378,161h1z"
		stroke="rgb(200,255,39)"
		stroke-opacity="0.18039216"
		stroke-width="1.0" />
	<path
		d="M378,163h1zM378,185h1zM265,389h1zM192,420h1zM215,420h1z"
		stroke="rgb(203,255,45)"
		stroke-opacity="0.30980393"
		stroke-width="1.0" />
	<path
		d="M378,164h1z"
		stroke="rgb(202,255,45)"
		stroke-opacity="0.39607844"
		stroke-width="1.0" />
	<path
		d="M378,165h1z"
		stroke="rgb(203,255,44)"
		stroke-opacity="0.7882353"
		stroke-width="1.0" />
	<path
		d="M378,166h1zM323,246h1z"
		stroke="rgb(203,255,45)"
		stroke-opacity="0.9411765"
		stroke-width="1.0" />
	<path
		d="M379,170h1zM190,420h1z"
		stroke="rgb(203,255,37)"
		stroke-opacity="0.13333334"
		stroke-width="1.0" />
	<path
		d="M379,172h1zM134,376h1z"
		stroke="rgb(204,255,41)"
		stroke-opacity="0.19607843"
		stroke-width="1.0" />
	<path
		d="M379,173h1z"
		stroke="rgb(206,255,40)"
		stroke-opacity="0.22352941"
		stroke-width="1.0" />
	<path
		d="M379,174h1z"
		stroke="rgb(202,255,44)"
		stroke-opacity="0.22745098"
		stroke-width="1.0" />
	<path
		d="M379,175h1z"
		stroke="rgb(201,255,40)"
		stroke-opacity="0.22352941"
		stroke-width="1.0" />
	<path
		d="M379,176h1zM164,410h1zM202,421h1z"
		stroke="rgb(199,255,42)"
		stroke-opacity="0.21568628"
		stroke-width="1.0" />
	<path
		d="M379,179h1zM352,232h1zM278,358h1zM267,386h1z"
		stroke="rgb(198,255,42)"
		stroke-opacity="0.07058824"
		stroke-width="1.0" />
	<path
		d="M378,182h1zM348,234h1zM332,243h1zM278,351h1z"
		stroke="rgb(202,255,45)"
		stroke-opacity="0.93333334"
		stroke-width="1.0" />
	<path
		d="M378,183h1z"
		stroke="rgb(202,255,44)"
		stroke-opacity="0.7764706"
		stroke-width="1.0" />
	<path
		d="M378,184h1z"
		stroke="rgb(201,255,46)"
		stroke-opacity="0.37254903"
		stroke-width="1.0" />
	<path
		d="M378,188h1z"
		stroke="rgb(196,255,39)"
		stroke-opacity="0.050980393"
		stroke-width="1.0" />
	<path
		d="M377,190h1z"
		stroke="rgb(202,255,44)"
		stroke-opacity="0.5686275"
		stroke-width="1.0" />
	<path
		d="M377,191h1z"
		stroke="rgb(209,255,23)"
		stroke-opacity="0.043137256"
		stroke-width="1.0" />
	<path
		d="M376,194h1zM271,378h1z"
		stroke="rgb(204,255,45)"
		stroke-opacity="0.64705884"
		stroke-width="1.0" />
	<path
		d="M376,195h1zM329,245h1z"
		stroke="rgb(202,255,40)"
		stroke-opacity="0.24705882"
		stroke-width="1.0" />
	<path
		d="M375,197h1zM374,200h1zM170,413h1z"
		stroke="rgb(203,255,44)"
		stroke-opacity="0.6156863"
		stroke-width="1.0" />
	<path
		d="M375,198h1z"
		stroke="rgb(202,255,45)"
		stroke-opacity="0.38039216"
		stroke-width="1.0" />
	<path
		d="M374,201h1z"
		stroke="rgb(200,255,41)"
		stroke-opacity="0.14509805"
		stroke-width="1.0" />
	<path
		d="M373,202h1z"
		stroke="rgb(203,255,46)"
		stroke-opacity="0.83137256"
		stroke-width="1.0" />
	<path
		d="M374,202h1z"
		stroke="rgb(255,255,0)"
		stroke-opacity="0.011764706"
		stroke-width="1.0" />
	<path
		d="M373,203h1z"
		stroke="rgb(202,255,42)"
		stroke-opacity="0.47058824"
		stroke-width="1.0" />
	<path
		d="M372,206h1z"
		stroke="rgb(203,255,45)"
		stroke-opacity="0.13333334"
		stroke-width="1.0" />
	<path
		d="M371,207h1z"
		stroke="rgb(202,255,44)"
		stroke-opacity="0.5882353"
		stroke-width="1.0" />
	<path
		d="M371,208h1z"
		stroke="rgb(197,255,44)"
		stroke-opacity="0.13725491"
		stroke-width="1.0" />
	<path
		d="M370,209h1zM344,237h1z"
		stroke="rgb(203,255,45)"
		stroke-opacity="0.78431374"
		stroke-width="1.0" />
	<path
		d="M369,211h1zM350,233h1z"
		stroke="rgb(203,255,44)"
		stroke-opacity="0.5176471"
		stroke-width="1.0" />
	<path
		d="M368,213h1z"
		stroke="rgb(204,255,45)"
		stroke-opacity="0.3137255"
		stroke-width="1.0" />
	<path
		d="M367,214h1z"
		stroke="rgb(202,255,44)"
		stroke-opacity="0.7882353"
		stroke-width="1.0" />
	<path
		d="M367,215h1zM344,238h1zM279,348h1zM129,362h1zM256,400h1zM255,401h1z"
		stroke="rgb(204,255,0)"
		stroke-opacity="0.019607844"
		stroke-width="1.0" />
	<path
		d="M366,216h1z"
		stroke="rgb(201,255,43)"
		stroke-opacity="0.36862746"
		stroke-width="1.0" />
	<path
		d="M365,217h1z"
		stroke="rgb(202,255,44)"
		stroke-opacity="0.68235296"
		stroke-width="1.0" />
	<path
		d="M363,219h1z"
		stroke="rgb(202,255,46)"
		stroke-opacity="0.9843137"
		stroke-width="1.0" />
	<path
		d="M364,219h1zM354,230h1zM201,421h1z"
		stroke="rgb(204,255,40)"
		stroke-opacity="0.1764706"
		stroke-width="1.0" />
	<path
		d="M363,220h1z"
		stroke="rgb(203,255,44)"
		stroke-opacity="0.47843137"
		stroke-width="1.0" />
	<path
		d="M362,221h1zM333,243h1z"
		stroke="rgb(202,255,45)"
		stroke-opacity="0.6627451"
		stroke-width="1.0" />
	<path
		d="M361,222h1zM146,394h1zM154,402h1zM167,411h1z"
		stroke="rgb(203,255,46)"
		stroke-opacity="0.92156863"
		stroke-width="1.0" />
	<path
		d="M362,222h1zM361,223h1zM353,231h1z"
		stroke="rgb(187,255,34)"
		stroke-opacity="0.05882353"
		stroke-width="1.0" />
	<path
		d="M359,225h1z"
		stroke="rgb(203,255,44)"
		stroke-opacity="0.27058825"
		stroke-width="1.0" />
	<path
		d="M355,229h1zM310,249h1z"
		stroke="rgb(203,255,42)"
		stroke-opacity="0.30980393"
		stroke-width="1.0" />
	<path
		d="M353,230h1z"
		stroke="rgb(203,255,45)"
		stroke-opacity="0.8980392"
		stroke-width="1.0" />
	<path
		d="M351,232h1z"
		stroke="rgb(203,255,44)"
		stroke-opacity="0.77254903"
		stroke-width="1.0" />
	<path
		d="M349,234h1z"
		stroke="rgb(201,255,43)"
		stroke-opacity="0.2784314"
		stroke-width="1.0" />
	<path
		d="M347,235h1zM278,352h1z"
		stroke="rgb(203,255,45)"
		stroke-opacity="0.8235294"
		stroke-width="1.0" />
	<path
		d="M348,235h1z"
		stroke="rgb(196,255,39)"
		stroke-opacity="0.101960786"
		stroke-width="1.0" />
	<path
		d="M346,236h1z"
		stroke="rgb(204,255,45)"
		stroke-opacity="0.46666667"
		stroke-width="1.0" />
	<path
		d="M343,237h1zM278,350h1zM230,415h1z"
		stroke="rgb(204,255,45)"
		stroke-opacity="0.99215686"
		stroke-width="1.0" />
	<path
		d="M343,238h1zM135,378h1zM161,408h1z"
		stroke="rgb(201,255,43)"
		stroke-opacity="0.39215687"
		stroke-width="1.0" />
	<path
		d="M341,239h1z"
		stroke="rgb(203,255,45)"
		stroke-opacity="0.56078434"
		stroke-width="1.0" />
	<path
		d="M339,240h1z"
		stroke="rgb(203,255,44)"
		stroke-opacity="0.76862746"
		stroke-width="1.0" />
	<path
		d="M340,240h1z"
		stroke="rgb(205,255,39)"
		stroke-opacity="0.18039216"
		stroke-width="1.0" />
	<path
		d="M335,242h1z"
		stroke="rgb(203,255,44)"
		stroke-opacity="0.7294118"
		stroke-width="1.0" />
	<path
		d="M336,242h1z"
		stroke="rgb(206,255,42)"
		stroke-opacity="0.2627451"
		stroke-width="1.0" />
	<path
		d="M334,243h1z"
		stroke="rgb(205,255,42)"
		stroke-opacity="0.14117648"
		stroke-width="1.0" />
	<path
		d="M331,244h1z"
		stroke="rgb(202,255,44)"
		stroke-opacity="0.32156864"
		stroke-width="1.0" />
	<path
		d="M327,245h1zM130,363h1zM276,364h1z"
		stroke="rgb(202,255,45)"
		stroke-opacity="0.8745098"
		stroke-width="1.0" />
	<path
		d="M328,245h1z"
		stroke="rgb(203,255,45)"
		stroke-opacity="0.41960785"
		stroke-width="1.0" />
	<path
		d="M324,246h1z"
		stroke="rgb(203,255,45)"
		stroke-opacity="0.7294118"
		stroke-width="1.0" />
	<path
		d="M325,246h1zM213,420h1z"
		stroke="rgb(204,255,44)"
		stroke-opacity="0.5882353"
		stroke-width="1.0" />
	<path
		d="M319,247h1z"
		stroke="rgb(203,255,46)"
		stroke-opacity="0.95686275"
		stroke-width="1.0" />
	<path
		d="M320,247h1z"
		stroke="rgb(204,255,45)"
		stroke-opacity="0.9137255"
		stroke-width="1.0" />
	<path
		d="M321,247h1z"
		stroke="rgb(204,255,45)"
		stroke-opacity="0.7254902"
		stroke-width="1.0" />
	<path
		d="M322,247h1zM319,248h1zM198,421h1z"
		stroke="rgb(191,255,32)"
		stroke-opacity="0.0627451"
		stroke-width="1.0" />
	<path
		d="M315,248h1z"
		stroke="rgb(203,255,44)"
		stroke-opacity="0.7764706"
		stroke-width="1.0" />
	<path
		d="M316,248h1zM264,390h1z"
		stroke="rgb(203,255,43)"
		stroke-opacity="0.3254902"
		stroke-width="1.0" />
	<path
		d="M317,248h1zM239,412h1z"
		stroke="rgb(206,255,43)"
		stroke-opacity="0.18431373"
		stroke-width="1.0" />
	<path
		d="M318,248h1z"
		stroke="rgb(205,255,44)"
		stroke-opacity="0.16078432"
		stroke-width="1.0" />
	<path
		d="M128,249h1z"
		stroke="rgb(132,62,248)"
		stroke-opacity="0.9019608"
		stroke-width="1.0" />
	<path
		d="M129,249h150z"
		stroke="rgb(132,63,248)"
		stroke-opacity="1.0"
		stroke-width="1.0" />
	<path
		d="M279,249h1z"
		stroke="rgb(196,238,61)"
		stroke-opacity="0.52156866"
		stroke-width="1.0" />
	<path
		d="M280,249h27zM278,356h1z"
		stroke="rgb(203,255,46)"
		stroke-opacity="0.49803922"
		stroke-width="1.0" />
	<path
		d="M307,249h1z"
		stroke="rgb(203,255,44)"
		stroke-opacity="0.48235294"
		stroke-width="1.0" />
	<path
		d="M308,249h1z"
		stroke="rgb(201,255,45)"
		stroke-opacity="0.44705883"
		stroke-width="1.0" />
	<path
		d="M309,249h1z"
		stroke="rgb(204,255,43)"
		stroke-opacity="0.39215687"
		stroke-width="1.0" />
	<path
		d="M311,249h1zM130,364h1z"
		stroke="rgb(204,255,42)"
		stroke-opacity="0.21568628"
		stroke-width="1.0" />
	<path
		d="M313,249h1zM273,375h1zM139,386h1zM175,416h1zM225,418h1z"
		stroke="rgb(191,255,0)"
		stroke-opacity="0.015686275"
		stroke-width="1.0" />
	<path
		d="M128,250h1zM128,251h1zM128,252h1zM128,253h1zM128,254h1zM128,255h1zM128,256h1zM128,257h1zM128,258h1zM128,259h1zM128,260h1zM128,261h1zM128,262h1zM128,263h1zM128,264h1zM128,265h1zM128,266h1zM128,267h1zM128,268h1zM128,269h1zM128,270h1zM128,271h1zM128,272h1zM128,273h1zM128,274h1zM128,275h1zM128,276h1zM128,277h1zM128,278h1zM128,279h1zM128,280h1zM128,281h1zM128,282h1zM128,283h1zM128,284h1zM128,285h1zM128,286h1zM128,287h1zM128,288h1zM128,289h1zM128,290h1zM128,291h1zM128,292h1zM128,293h1zM128,294h1zM128,295h1zM128,296h1zM128,297h1zM128,298h1zM128,299h1zM128,300h1zM128,301h1zM128,302h1zM128,303h1zM128,304h1zM128,305h1zM128,306h1zM128,307h1zM128,308h1zM128,309h1zM128,310h1zM128,311h1zM128,312h1zM128,313h1zM128,314h1zM128,315h1zM128,316h1zM128,317h1zM128,318h1zM128,319h1zM128,320h1zM128,321h1zM128,322h1zM128,323h1zM128,324h1zM128,325h1zM128,326h1zM128,327h1zM128,328h1zM128,329h1zM128,330h1zM128,331h1zM128,332h1zM128,333h1zM128,334h1zM128,335h1zM128,336h1zM128,337h1zM128,338h1zM128,339h1zM128,340h1zM128,341h1zM128,342h1zM128,343h1zM128,344h1zM128,345h1zM128,346h1zM128,347h1zM128,348h1z"
		stroke="rgb(203,255,45)"
		stroke-opacity="0.81960785"
		stroke-width="1.0" />
	<path
		d="M279,250h1zM279,251h1zM279,252h1zM279,253h1zM279,254h1zM279,255h1zM279,256h1zM279,257h1zM279,258h1zM279,259h1zM279,260h1zM279,261h1zM279,262h1zM279,263h1zM279,264h1zM279,265h1zM279,266h1zM279,267h1zM279,268h1zM279,269h1zM279,270h1zM279,271h1zM279,272h1zM279,273h1zM279,274h1zM279,275h1zM279,276h1zM279,277h1zM279,278h1zM279,279h1zM279,280h1zM279,281h1zM279,282h1zM279,283h1zM279,284h1zM279,285h1zM279,286h1zM279,287h1zM279,288h1zM279,289h1zM279,290h1zM279,291h1zM279,292h1zM279,293h1zM279,294h1zM279,295h1zM279,296h1zM279,297h1zM279,298h1zM279,299h1zM279,300h1zM279,301h1zM279,302h1zM279,303h1zM279,304h1zM279,305h1zM279,306h1zM279,307h1zM279,308h1zM279,309h1zM279,310h1zM279,311h1zM279,312h1zM279,313h1zM279,314h1zM279,315h1zM279,316h1zM279,317h1zM279,318h1zM279,319h1zM279,320h1zM279,321h1zM279,322h1zM279,323h1zM279,324h1zM279,325h1zM279,326h1zM279,327h1zM279,328h1zM279,329h1zM279,330h1zM279,331h1zM279,332h1zM279,333h1zM279,334h1zM279,335h1zM279,336h1zM279,337h1zM279,338h1zM279,339h1zM279,340h1zM279,341h1zM279,342h1zM279,343h1zM279,344h1zM279,345h1z"
		stroke="rgb(185,255,23)"
		stroke-opacity="0.043137256"
		stroke-width="1.0" />
	<path
		d="M279,346h1zM136,381h1zM250,405h1zM246,408h1z"
		stroke="rgb(204,255,26)"
		stroke-opacity="0.039215688"
		stroke-width="1.0" />
	<path
		d="M279,347h1z"
		stroke="rgb(191,255,0)"
		stroke-opacity="0.03137255"
		stroke-width="1.0" />
	<path
		d="M128,349h1zM128,350h1zM128,351h1z"
		stroke="rgb(203,255,46)"
		stroke-opacity="0.8117647"
		stroke-width="1.0" />
	<path
		d="M128,352h1z"
		stroke="rgb(202,255,44)"
		stroke-opacity="0.6627451"
		stroke-width="1.0" />
	<path
		d="M128,353h1zM150,399h1z"
		stroke="rgb(203,255,42)"
		stroke-opacity="0.42352942"
		stroke-width="1.0" />
	<path
		d="M278,353h1z"
		stroke="rgb(204,255,44)"
		stroke-opacity="0.74509805"
		stroke-width="1.0" />
	<path
		d="M128,354h1z"
		stroke="rgb(200,255,41)"
		stroke-opacity="0.2901961"
		stroke-width="1.0" />
	<path
		d="M278,354h1zM129,358h1z"
		stroke="rgb(203,255,45)"
		stroke-opacity="0.6156863"
		stroke-width="1.0" />
	<path
		d="M278,355h1z"
		stroke="rgb(202,255,45)"
		stroke-opacity="0.5058824"
		stroke-width="1.0" />
	<path
		d="M129,359h1z"
		stroke="rgb(203,255,46)"
		stroke-opacity="0.5019608"
		stroke-width="1.0" />
	<path
		d="M129,360h1z"
		stroke="rgb(204,255,44)"
		stroke-opacity="0.42745098"
		stroke-width="1.0" />
	<path
		d="M277,360h1z"
		stroke="rgb(203,255,44)"
		stroke-opacity="0.8117647"
		stroke-width="1.0" />
	<path
		d="M129,361h1z"
		stroke="rgb(202,255,41)"
		stroke-opacity="0.24313726"
		stroke-width="1.0" />
	<path
		d="M277,362h1zM142,390h1zM205,421h1z"
		stroke="rgb(203,255,42)"
		stroke-opacity="0.19215687"
		stroke-width="1.0" />
	<path
		d="M277,363h1zM145,394h1zM155,404h1zM241,411h1z"
		stroke="rgb(202,255,44)"
		stroke-opacity="0.11372549"
		stroke-width="1.0" />
	<path
		d="M276,365h1z"
		stroke="rgb(202,255,44)"
		stroke-opacity="0.65882355"
		stroke-width="1.0" />
	<path
		d="M130,366h1zM274,373h1zM268,385h1zM178,417h1z"
		stroke="rgb(200,255,36)"
		stroke-opacity="0.05490196"
		stroke-width="1.0" />
	<path
		d="M131,366h1zM155,403h1z"
		stroke="rgb(203,255,45)"
		stroke-opacity="0.9098039"
		stroke-width="1.0" />
	<path
		d="M276,366h1z"
		stroke="rgb(202,255,42)"
		stroke-opacity="0.16862746"
		stroke-width="1.0" />
	<path
		d="M131,367h1z"
		stroke="rgb(202,255,44)"
		stroke-opacity="0.85490197"
		stroke-width="1.0" />
	<path
		d="M275,368h1zM245,408h1zM187,419h1z"
		stroke="rgb(202,255,45)"
		stroke-opacity="0.62352943"
		stroke-width="1.0" />
	<path
		d="M132,369h1zM211,420h1z"
		stroke="rgb(203,255,45)"
		stroke-opacity="0.9254902"
		stroke-width="1.0" />
	<path
		d="M132,370h1z"
		stroke="rgb(202,255,45)"
		stroke-opacity="0.6392157"
		stroke-width="1.0" />
	<path
		d="M132,371h1z"
		stroke="rgb(202,255,43)"
		stroke-opacity="0.39607844"
		stroke-width="1.0" />
	<path
		d="M274,371h1z"
		stroke="rgb(202,255,44)"
		stroke-opacity="0.6392157"
		stroke-width="1.0" />
	<path
		d="M274,372h1z"
		stroke="rgb(204,255,42)"
		stroke-opacity="0.23529412"
		stroke-width="1.0" />
	<path
		d="M133,373h1z"
		stroke="rgb(201,255,44)"
		stroke-opacity="0.5019608"
		stroke-width="1.0" />
	<path
		d="M133,374h1zM271,379h1z"
		stroke="rgb(202,255,43)"
		stroke-opacity="0.20784314"
		stroke-width="1.0" />
	<path
		d="M134,374h1zM269,381h1zM259,395h1z"
		stroke="rgb(202,255,46)"
		stroke-opacity="0.9882353"
		stroke-width="1.0" />
	<path
		d="M273,374h1z"
		stroke="rgb(205,255,44)"
		stroke-opacity="0.48235294"
		stroke-width="1.0" />
	<path
		d="M134,375h1z"
		stroke="rgb(204,255,45)"
		stroke-opacity="0.8352941"
		stroke-width="1.0" />
	<path
		d="M272,375h1z"
		stroke="rgb(203,255,46)"
		stroke-opacity="0.9411765"
		stroke-width="1.0" />
	<path
		d="M272,376h1zM183,418h1z"
		stroke="rgb(202,255,45)"
		stroke-opacity="0.627451"
		stroke-width="1.0" />
	<path
		d="M135,377h1z"
		stroke="rgb(202,255,45)"
		stroke-opacity="0.7411765"
		stroke-width="1.0" />
	<path
		d="M272,377h1z"
		stroke="rgb(204,255,36)"
		stroke-opacity="0.13725491"
		stroke-width="1.0" />
	<path
		d="M136,380h1z"
		stroke="rgb(204,255,42)"
		stroke-opacity="0.3529412"
		stroke-width="1.0" />
	<path
		d="M270,380h1z"
		stroke="rgb(204,255,45)"
		stroke-opacity="0.85882354"
		stroke-width="1.0" />
	<path
		d="M137,381h1z"
		stroke="rgb(202,255,45)"
		stroke-opacity="0.98039216"
		stroke-width="1.0" />
	<path
		d="M270,381h1z"
		stroke="rgb(201,255,40)"
		stroke-opacity="0.07450981"
		stroke-width="1.0" />
	<path
		d="M269,382h1zM257,398h1z"
		stroke="rgb(202,255,44)"
		stroke-opacity="0.60784316"
		stroke-width="1.0" />
	<path
		d="M138,383h1z"
		stroke="rgb(202,255,45)"
		stroke-opacity="0.75686276"
		stroke-width="1.0" />
	<path
		d="M268,383h1zM148,396h1zM151,399h1z"
		stroke="rgb(203,255,46)"
		stroke-opacity="0.9607843"
		stroke-width="1.0" />
	<path
		d="M269,383h1z"
		stroke="rgb(170,255,0)"
		stroke-opacity="0.023529412"
		stroke-width="1.0" />
	<path
		d="M138,384h1z"
		stroke="rgb(208,255,38)"
		stroke-opacity="0.105882354"
		stroke-width="1.0" />
	<path
		d="M268,384h1z"
		stroke="rgb(202,255,44)"
		stroke-opacity="0.43529412"
		stroke-width="1.0" />
	<path
		d="M140,386h1zM165,410h1z"
		stroke="rgb(203,255,45)"
		stroke-opacity="0.92941177"
		stroke-width="1.0" />
	<path
		d="M140,387h1z"
		stroke="rgb(198,255,42)"
		stroke-opacity="0.19215687"
		stroke-width="1.0" />
	<path
		d="M266,387h1z"
		stroke="rgb(203,255,45)"
		stroke-opacity="0.6901961"
		stroke-width="1.0" />
	<path
		d="M141,388h1zM240,411h1z"
		stroke="rgb(203,255,45)"
		stroke-opacity="0.6"
		stroke-width="1.0" />
	<path
		d="M143,391h1z"
		stroke="rgb(203,255,45)"
		stroke-opacity="0.40392157"
		stroke-width="1.0" />
	<path
		d="M263,391h1z"
		stroke="rgb(203,255,45)"
		stroke-opacity="0.80784315"
		stroke-width="1.0" />
	<path
		d="M144,392h1z"
		stroke="rgb(202,255,43)"
		stroke-opacity="0.6"
		stroke-width="1.0" />
	<path
		d="M263,392h1z"
		stroke="rgb(170,255,42)"
		stroke-opacity="0.023529412"
		stroke-width="1.0" />
	<path
		d="M145,393h1z"
		stroke="rgb(204,255,45)"
		stroke-opacity="0.7607843"
		stroke-width="1.0" />
	<path
		d="M261,393h1z"
		stroke="rgb(203,255,46)"
		stroke-opacity="0.9764706"
		stroke-width="1.0" />
	<path
		d="M262,393h1zM230,416h1z"
		stroke="rgb(201,255,39)"
		stroke-opacity="0.20392157"
		stroke-width="1.0" />
	<path
		d="M261,394h1z"
		stroke="rgb(203,255,42)"
		stroke-opacity="0.30588236"
		stroke-width="1.0" />
	<path
		d="M147,395h1zM218,419h1z"
		stroke="rgb(203,255,45)"
		stroke-opacity="0.9647059"
		stroke-width="1.0" />
	<path
		d="M260,395h1z"
		stroke="rgb(202,255,45)"
		stroke-opacity="0.50980395"
		stroke-width="1.0" />
	<path
		d="M259,396h1z"
		stroke="rgb(202,255,46)"
		stroke-opacity="0.5686275"
		stroke-width="1.0" />
	<path
		d="M148,397h1zM152,401h1z"
		stroke="rgb(203,255,41)"
		stroke-opacity="0.2901961"
		stroke-width="1.0" />
	<path
		d="M258,397h1z"
		stroke="rgb(201,255,44)"
		stroke-opacity="0.5411765"
		stroke-width="1.0" />
	<path
		d="M149,398h1z"
		stroke="rgb(202,255,44)"
		stroke-opacity="0.36078432"
		stroke-width="1.0" />
	<path
		d="M256,399h1z"
		stroke="rgb(202,255,45)"
		stroke-opacity="0.64705884"
		stroke-width="1.0" />
	<path
		d="M151,400h1z"
		stroke="rgb(204,255,42)"
		stroke-opacity="0.33333334"
		stroke-width="1.0" />
	<path
		d="M255,400h1z"
		stroke="rgb(204,255,44)"
		stroke-opacity="0.54509807"
		stroke-width="1.0" />
	<path
		d="M254,401h1zM193,420h1z"
		stroke="rgb(202,255,44)"
		stroke-opacity="0.4745098"
		stroke-width="1.0" />
	<path
		d="M253,402h1z"
		stroke="rgb(202,255,44)"
		stroke-opacity="0.54509807"
		stroke-width="1.0" />
	<path
		d="M154,403h1z"
		stroke="rgb(196,255,20)"
		stroke-opacity="0.050980393"
		stroke-width="1.0" />
	<path
		d="M252,403h1z"
		stroke="rgb(200,255,42)"
		stroke-opacity="0.32941177"
		stroke-width="1.0" />
	<path
		d="M156,404h1z"
		stroke="rgb(203,255,44)"
		stroke-opacity="0.5921569"
		stroke-width="1.0" />
	<path
		d="M251,404h1z"
		stroke="rgb(205,255,45)"
		stroke-opacity="0.2"
		stroke-width="1.0" />
	<path
		d="M157,405h1z"
		stroke="rgb(201,255,44)"
		stroke-opacity="0.57254905"
		stroke-width="1.0" />
	<path
		d="M249,405h1z"
		stroke="rgb(202,255,45)"
		stroke-opacity="0.7529412"
		stroke-width="1.0" />
	<path
		d="M158,406h1z"
		stroke="rgb(203,255,41)"
		stroke-opacity="0.26666668"
		stroke-width="1.0" />
	<path
		d="M248,406h1z"
		stroke="rgb(204,255,44)"
		stroke-opacity="0.40784314"
		stroke-width="1.0" />
	<path
		d="M160,407h1z"
		stroke="rgb(202,255,45)"
		stroke-opacity="0.7372549"
		stroke-width="1.0" />
	<path
		d="M246,407h1z"
		stroke="rgb(204,255,45)"
		stroke-opacity="0.8745098"
		stroke-width="1.0" />
	<path
		d="M247,407h1z"
		stroke="rgb(200,255,44)"
		stroke-opacity="0.27450982"
		stroke-width="1.0" />
	<path
		d="M162,409h1zM189,420h1z"
		stroke="rgb(212,255,42)"
		stroke-opacity="0.047058824"
		stroke-width="1.0" />
	<path
		d="M163,409h1z"
		stroke="rgb(202,255,44)"
		stroke-opacity="0.8352941"
		stroke-width="1.0" />
	<path
		d="M244,409h1z"
		stroke="rgb(204,255,34)"
		stroke-opacity="0.11764706"
		stroke-width="1.0" />
	<path
		d="M242,410h1z"
		stroke="rgb(203,255,43)"
		stroke-opacity="0.4627451"
		stroke-width="1.0" />
	<path
		d="M165,411h1z"
		stroke="rgb(209,255,46)"
		stroke-opacity="0.043137256"
		stroke-width="1.0" />
	<path
		d="M166,411h1z"
		stroke="rgb(201,255,44)"
		stroke-opacity="0.48235294"
		stroke-width="1.0" />
	<path
		d="M168,412h1z"
		stroke="rgb(203,255,44)"
		stroke-opacity="0.6666667"
		stroke-width="1.0" />
	<path
		d="M169,412h1z"
		stroke="rgb(203,255,46)"
		stroke-opacity="0.9372549"
		stroke-width="1.0" />
	<path
		d="M169,413h1z"
		stroke="rgb(209,255,35)"
		stroke-opacity="0.08627451"
		stroke-width="1.0" />
	<path
		d="M236,413h1z"
		stroke="rgb(203,255,45)"
		stroke-opacity="0.8039216"
		stroke-width="1.0" />
	<path
		d="M171,414h1zM200,421h1z"
		stroke="rgb(207,255,41)"
		stroke-opacity="0.14509805"
		stroke-width="1.0" />
	<path
		d="M172,414h1z"
		stroke="rgb(204,255,46)"
		stroke-opacity="0.5254902"
		stroke-width="1.0" />
	<path
		d="M235,414h1z"
		stroke="rgb(205,255,42)"
		stroke-opacity="0.23921569"
		stroke-width="1.0" />
	<path
		d="M174,415h1z"
		stroke="rgb(202,255,44)"
		stroke-opacity="0.5254902"
		stroke-width="1.0" />
	<path
		d="M175,415h1z"
		stroke="rgb(202,255,45)"
		stroke-opacity="0.8156863"
		stroke-width="1.0" />
	<path
		d="M231,415h1z"
		stroke="rgb(203,255,45)"
		stroke-opacity="0.88235295"
		stroke-width="1.0" />
	<path
		d="M232,415h1z"
		stroke="rgb(203,255,44)"
		stroke-opacity="0.654902"
		stroke-width="1.0" />
	<path
		d="M177,416h1z"
		stroke="rgb(203,255,43)"
		stroke-opacity="0.6509804"
		stroke-width="1.0" />
	<path
		d="M180,417h1z"
		stroke="rgb(204,255,45)"
		stroke-opacity="0.5137255"
		stroke-width="1.0" />
	<path
		d="M181,417h1z"
		stroke="rgb(202,255,45)"
		stroke-opacity="0.96862745"
		stroke-width="1.0" />
	<path
		d="M226,417h1z"
		stroke="rgb(203,255,45)"
		stroke-opacity="0.7176471"
		stroke-width="1.0" />
	<path
		d="M227,417h1z"
		stroke="rgb(203,255,44)"
		stroke-opacity="0.38431373"
		stroke-width="1.0" />
	<path
		d="M182,418h1z"
		stroke="rgb(207,255,44)"
		stroke-opacity="0.22745098"
		stroke-width="1.0" />
	<path
		d="M184,418h1z"
		stroke="rgb(203,255,44)"
		stroke-opacity="0.7647059"
		stroke-width="1.0" />
	<path
		d="M222,418h1z"
		stroke="rgb(204,255,45)"
		stroke-opacity="0.81960785"
		stroke-width="1.0" />
	<path
		d="M223,418h1z"
		stroke="rgb(203,255,44)"
		stroke-opacity="0.6745098"
		stroke-width="1.0" />
	<path
		d="M186,419h1z"
		stroke="rgb(198,255,0)"
		stroke-opacity="0.03529412"
		stroke-width="1.0" />
	<path
		d="M188,419h1z"
		stroke="rgb(204,255,44)"
		stroke-opacity="0.92156863"
		stroke-width="1.0" />
	<path
		d="M219,419h1z"
		stroke="rgb(203,255,45)"
		stroke-opacity="0.83137256"
		stroke-width="1.0" />
	<path
		d="M191,420h1z"
		stroke="rgb(205,255,44)"
		stroke-opacity="0.29803923"
		stroke-width="1.0" />
	<path
		d="M194,420h1z"
		stroke="rgb(203,255,44)"
		stroke-opacity="0.74509805"
		stroke-width="1.0" />
	<path
		d="M196,420h1z"
		stroke="rgb(204,255,45)"
		stroke-opacity="0.9764706"
		stroke-width="1.0" />
	<path
		d="M212,420h1z"
		stroke="rgb(204,255,45)"
		stroke-opacity="0.8"
		stroke-width="1.0" />
	<path
		d="M214,420h1z"
		stroke="rgb(201,255,45)"
		stroke-opacity="0.3137255"
		stroke-width="1.0" />
	<path
		d="M216,420h1z"
		stroke="rgb(205,255,44)"
		stroke-opacity="0.18039216"
		stroke-width="1.0" />
	<path
		d="M217,420h1z"
		stroke="rgb(210,255,30)"
		stroke-opacity="0.06666667"
		stroke-width="1.0" />
	<path
		d="M197,421h1z"
		stroke="rgb(219,255,36)"
		stroke-opacity="0.02745098"
		stroke-width="1.0" />
	<path
		d="M203,421h1z"
		stroke="rgb(200,255,43)"
		stroke-opacity="0.25490198"
		stroke-width="1.0" />
	<path
		d="M204,421h1z"
		stroke="rgb(203,255,43)"
		stroke-opacity="0.23137255"
		stroke-width="1.0" />
	<path
		d="M206,421h1z"
		stroke="rgb(204,255,45)"
		stroke-opacity="0.15686275"
		stroke-width="1.0" />
	<path
		d="M207,421h1z"
		stroke="rgb(199,255,40)"
		stroke-opacity="0.1254902"
		stroke-width="1.0" />
</svg>